<?xml version="1.0" encoding="UTF-8" standalone="no"?>
<!-- Generator: Adobe Illustrator 16.0.0, SVG Export Plug-In . SVG Version: 6.00 Build 0)  -->

<svg
   xmlns:sketchjs="https://sketch.io/dtd/"
   xmlns:osb="http://www.openswatchbook.org/uri/2009/osb"
   xmlns:dc="http://purl.org/dc/elements/1.1/"
   xmlns:cc="http://creativecommons.org/ns#"
   xmlns:rdf="http://www.w3.org/1999/02/22-rdf-syntax-ns#"
   xmlns:svg="http://www.w3.org/2000/svg"
   xmlns="http://www.w3.org/2000/svg"
   xmlns:xlink="http://www.w3.org/1999/xlink"
   xmlns:sodipodi="http://sodipodi.sourceforge.net/DTD/sodipodi-0.dtd"
   xmlns:inkscape="http://www.inkscape.org/namespaces/inkscape"
   version="1.1"
   id="root"
   x="0px"
   y="0px"
   width="500"
   height="500"
   viewBox="0 0 500 500"
   enable-background="new 0 0 1920 1200"
   xml:space="preserve"
   sodipodi:docname="a_sort_of_sun-driven_bombC2.svg"
   inkscape:version="0.92.1 r15371"
   inkscape:export-filename="/home/ticho/images/wallpapers/skyPng.png"
   inkscape:export-xdpi="96"
   inkscape:export-ydpi="96"><metadata
     id="metadata5557"><rdf:RDF><cc:Work
         rdf:about=""><dc:format>image/svg+xml</dc:format><dc:type
           rdf:resource="http://purl.org/dc/dcmitype/StillImage" /><dc:title></dc:title></cc:Work></rdf:RDF></metadata><defs
     id="defs5555"><inkscape:path-effect
       effect="sketch"
       id="path-effect5386"
       is_visible="true"
       nbiter_approxstrokes="11"
       strokelength="120"
       strokelength_rdm="1;1"
       strokeoverlap="0.3"
       strokeoverlap_rdm="0.6;1"
       ends_tolerance="0.3;1"
       parallel_offset="4;1"
       tremble_size="1;1"
       tremble_frequency="1.01"
       nbtangents="7"
       tgt_places_rdmness="1;1"
       tgtscale="1"
       tgtlength="100"
       tgtlength_rdm="0.6;1" /><inkscape:path-effect
       effect="roughen"
       id="path-effect5384"
       is_visible="true"
       method="size"
       max_segment_size="55"
       segments="2"
       displace_x="10;1"
       displace_y="10;1"
       global_randomize="1;1"
       handles="along"
       shift_nodes="true"
       fixed_displacement="false"
       spray_tool_friendly="false" /><inkscape:path-effect
       effect="roughen"
       id="path-effect5382"
       is_visible="true"
       method="size"
       max_segment_size="4"
       segments="27"
       displace_x="10;1"
       displace_y="10;1"
       global_randomize="0.1;1"
       handles="smooth"
       shift_nodes="true"
       fixed_displacement="false"
       spray_tool_friendly="false" /><inkscape:path-effect
       effect="lattice2"
       gridpoint0="995.6,409.34572"
       gridpoint1="1131.6948,409.34572"
       gridpoint2="995.79958,545.24095"
       gridpoint3="1131.6948,545.24095"
       gridpoint4="1029.7734,409.34572"
       gridpoint5="1097.721,409.34572"
       gridpoint6="1029.7734,545.24095"
       gridpoint7="1097.721,545.24095"
       gridpoint8x9="1063.7472,409.34572"
       gridpoint10x11="1063.7472,545.24095"
       gridpoint12="995.79958,443.31953"
       gridpoint13="1131.6948,443.31953"
       gridpoint14="995.79958,511.26714"
       gridpoint15="1131.6948,511.26714"
       gridpoint16="1029.7734,443.31953"
       gridpoint17="1097.721,443.31953"
       gridpoint18="1029.7734,511.26714"
       gridpoint19="1097.721,511.26714"
       gridpoint20x21="1063.7472,443.31953"
       gridpoint22x23="1063.7472,511.26714"
       gridpoint24x26="995.79958,477.29333"
       gridpoint25x27="1131.6948,477.29333"
       gridpoint28x30="1029.7734,477.29333"
       gridpoint29x31="1097.721,477.29333"
       gridpoint32x33x34x35="1063.7472,477.29333"
       id="path-effect5380"
       is_visible="true"
       horizontal_mirror="false"
       vertical_mirror="false"
       live_update="true" /><inkscape:path-effect
       effect="knot"
       id="path-effect5378"
       is_visible="true"
       interruption_width="3"
       prop_to_stroke_width="true"
       add_stroke_width="true"
       add_other_stroke_width="true"
       switcher_size="15"
       crossing_points_vector="" /><inkscape:path-effect
       effect="gears"
       id="path-effect5376"
       is_visible="true"
       teeth="10"
       phi="5"
       min_radius="5" /><marker
       inkscape:stockid="Arrow1Lend"
       orient="auto"
       refY="0.0"
       refX="0.0"
       id="Arrow1Lend"
       style="overflow:visible;"
       inkscape:isstock="true"><path
         id="path5113"
         d="M 0.0,0.0 L 5.0,-5.0 L -12.5,0.0 L 5.0,5.0 L 0.0,0.0 z "
         style="fill-rule:evenodd;stroke:#afe9c6;stroke-width:1pt;stroke-opacity:0.52941165;fill:#afe9c6;fill-opacity:0.52941165"
         transform="scale(0.8) rotate(180) translate(12.5,0)" /></marker><marker
       inkscape:stockid="Arrow2Lstart"
       orient="auto"
       refY="0.0"
       refX="0.0"
       id="Arrow2Lstart"
       style="overflow:visible"
       inkscape:isstock="true"><path
         id="path5128"
         style="fill-rule:evenodd;stroke-width:0.625;stroke-linejoin:round;stroke:#afe9c6;stroke-opacity:0.52941165;fill:#afe9c6;fill-opacity:0.52941165"
         d="M 8.7185878,4.0337352 L -2.2072895,0.016013256 L 8.7185884,-4.0017078 C 6.9730900,-1.6296469 6.9831476,1.6157441 8.7185878,4.0337352 z "
         transform="scale(1.1) translate(1,0)" /></marker><linearGradient
       id="linearGradient8457"
       osb:paint="solid"><stop
         style="stop-color:#ffffff;stop-opacity:1;"
         offset="0"
         id="stop8455" /></linearGradient><filter
       inkscape:label="Eroded Metal"
       inkscape:menu="Materials"
       inkscape:menu-tooltip="Eroded metal texture with ridges, grooves, holes and bumps"
       style="color-interpolation-filters:sRGB"
       id="filter4516"><feGaussianBlur
         result="result0"
         in="SourceGraphic"
         stdDeviation="1"
         id="feGaussianBlur4492" /><feTurbulence
         type="turbulence"
         baseFrequency="0.057"
         seed="4"
         numOctaves="4"
         result="result1"
         id="feTurbulence4494" /><feDisplacementMap
         xChannelSelector="R"
         in2="result1"
         result="result91"
         id="feDisplacementMap4496"
         scale="0"
         yChannelSelector="A" /><feComposite
         result="result2"
         operator="out"
         in="result0"
         in2="result91"
         id="feComposite4498" /><feComposite
         k1="0.1"
         k3="1.2"
         in2="result2"
         in="SourceAlpha"
         operator="arithmetic"
         result="result5"
         id="feComposite4500"
         k2="0"
         k4="0" /><feBlend
         result="fbSourceGraphic"
         mode="multiply"
         in2="result5"
         id="feBlend4502" /><feGaussianBlur
         stdDeviation="3"
         in="fbSourceGraphic"
         result="result0"
         id="feGaussianBlur4504" /><feSpecularLighting
         in="result0"
         result="result1"
         lighting-color="#fee65d"
         surfaceScale="3"
         specularConstant="0.40000001"
         specularExponent="15"
         id="feSpecularLighting4508"><fePointLight
           x="-5000"
           y="-10000"
           z="20000"
           id="fePointLight4506" /></feSpecularLighting><feComposite
         in2="fbSourceGraphic"
         in="result1"
         result="result2"
         operator="in"
         id="feComposite4510" /><feComposite
         k1="-1"
         in="fbSourceGraphic"
         result="result4"
         operator="arithmetic"
         k2="2.5"
         k3="3.5"
         in2="result2"
         id="feComposite4512"
         k4="0" /><feBlend
         mode="multiply"
         in2="result4"
         id="feBlend4514" /></filter><filter
       inkscape:label="Age"
       inkscape:menu="Image Effects"
       inkscape:menu-tooltip="Imitate aged photograph"
       style="color-interpolation-filters:sRGB"
       id="filter4550"><feColorMatrix
         type="saturate"
         in="SourceGraphic"
         values="0"
         id="feColorMatrix4538" /><feColorMatrix
         values="3 0 0 0 -0.3 0 3 0 0 -0.3 0 0 3 0 -0.3 0 0 0 1 0"
         result="result0"
         id="feColorMatrix4540" /><feTurbulence
         baseFrequency="0.111"
         numOctaves="2"
         type="fractalNoise"
         id="feTurbulence4542" /><feColorMatrix
         values="0 0 0 0 0 0 0 0 0 0 0 0 0 0 0 0 0 0 255 -200"
         id="feColorMatrix4544" /><feGaussianBlur
         stdDeviation="1"
         id="feGaussianBlur4546" /><feComposite
         in2="result0"
         operator="atop"
         id="feComposite4548" /></filter><filter
       inkscape:label="Film Grain"
       inkscape:menu="Image Effects"
       inkscape:menu-tooltip="Adds a small scale graininess"
       style="color-interpolation-filters:sRGB"
       id="filter4590"><feTurbulence
         type="turbulence"
         numOctaves="10"
         baseFrequency="0.56100000000000005"
         seed="0"
         result="result0"
         id="feTurbulence4580" /><feColorMatrix
         result="result4"
         values="0"
         type="saturate"
         id="feColorMatrix4582" /><feComposite
         in="SourceGraphic"
         in2="result4"
         operator="arithmetic"
         k1="0.15"
         k2="0.5"
         k3="0.5"
         result="result2"
         id="feComposite4584"
         k4="0" /><feBlend
         result="result5"
         mode="normal"
         in="result2"
         in2="SourceGraphic"
         id="feBlend4586" /><feComposite
         in="result5"
         in2="SourceGraphic"
         operator="in"
         result="result3"
         id="feComposite4588" /></filter><linearGradient
       id="linearGradient7542"
       inkscape:collect="always"><stop
         id="stop7544"
         offset="0"
         style="stop-color:#a7e0ee;stop-opacity:1;" /><stop
         id="stop7546"
         offset="1"
         style="stop-color:#a7e0ee;stop-opacity:0;" /></linearGradient><linearGradient
       id="linearGradient7175"
       inkscape:collect="always"><stop
         id="stop7177"
         offset="0"
         style="stop-color:#92fff9;stop-opacity:1;" /><stop
         id="stop7179"
         offset="1"
         style="stop-color:#92fff9;stop-opacity:0;" /></linearGradient><linearGradient
       osb:paint="solid"
       id="linearGradient7163"><stop
         id="stop7165"
         offset="0"
         style="stop-color:#92fff9;stop-opacity:1;" /></linearGradient><linearGradient
       gradientUnits="userSpaceOnUse"
       y2="540"
       x2="1909.7681"
       y1="540"
       x1="10.231934"
       id="linearGradient7181"
       xlink:href="#linearGradient7175"
       inkscape:collect="always" /><linearGradient
       gradientUnits="userSpaceOnUse"
       y2="540"
       x2="1188.0228"
       y1="540"
       x1="731.97723"
       id="linearGradient7548"
       xlink:href="#linearGradient7542"
       inkscape:collect="always" /><filter
       id="filter7665"
       inkscape:label="Drop Shadow"
       style="color-interpolation-filters:sRGB"><feFlood
         id="feFlood7667"
         result="flood"
         flood-color="rgb(0,0,14)"
         flood-opacity="0.541176" /><feComposite
         id="feComposite7669"
         result="composite1"
         operator="in"
         in2="SourceGraphic"
         in="flood" /><feGaussianBlur
         id="feGaussianBlur7671"
         result="blur"
         stdDeviation="5.4"
         in="composite1" /><feOffset
         id="feOffset7673"
         result="offset"
         dy="1.38778e-16"
         dx="8.32667e-17" /><feComposite
         id="feComposite7675"
         result="composite2"
         operator="over"
         in2="offset"
         in="SourceGraphic" /></filter><filter
       inkscape:label="Film Grain"
       inkscape:menu="Image Effects"
       inkscape:menu-tooltip="Adds a small scale graininess"
       style="color-interpolation-filters:sRGB"
       id="filter4577"><feTurbulence
         type="fractalNoise"
         numOctaves="1"
         baseFrequency="0.74199999999999999"
         seed="609"
         result="result0"
         id="feTurbulence4567" /><feColorMatrix
         result="result4"
         values="0"
         type="saturate"
         id="feColorMatrix4569" /><feComposite
         in="SourceGraphic"
         in2="result4"
         operator="arithmetic"
         k1="0.09"
         k2="0.5"
         k3="0.5"
         result="result2"
         id="feComposite4571"
         k4="0" /><feBlend
         result="result5"
         mode="normal"
         in="result2"
         in2="SourceGraphic"
         id="feBlend4573" /><feComposite
         in="result5"
         in2="SourceGraphic"
         operator="in"
         result="result3"
         id="feComposite4575" /></filter><filter
       inkscape:label="Film Grain"
       inkscape:menu="Image Effects"
       inkscape:menu-tooltip="Adds a small scale graininess"
       style="color-interpolation-filters:sRGB"
       id="filter4577-7"><feTurbulence
         type="fractalNoise"
         numOctaves="1"
         baseFrequency="0.74199999999999999"
         seed="609"
         result="result0"
         id="feTurbulence4567-9" /><feColorMatrix
         result="result4"
         values="0"
         type="saturate"
         id="feColorMatrix4569-7" /><feComposite
         k4="0"
         in="SourceGraphic"
         in2="result4"
         operator="arithmetic"
         k1="-1.31"
         k2="0.5"
         k3="0.5"
         result="result2"
         id="feComposite4571-4" /><feBlend
         result="result5"
         mode="normal"
         in="result2"
         in2="SourceGraphic"
         id="feBlend4573-9" /><feComposite
         in="result5"
         in2="SourceGraphic"
         operator="in"
         result="result3"
         id="feComposite4575-1" /></filter><circle
       style="opacity:1;fill:none;fill-opacity:0.86031745;stroke:#afe9c6;stroke-width:0.17539023;stroke-linecap:butt;stroke-linejoin:round;stroke-miterlimit:4;stroke-dasharray:none;stroke-dashoffset:15.55857372;stroke-opacity:0.24126988;paint-order:markers fill stroke"
       id="path4613"
       cx="449.45615"
       cy="-1039.0328"
       r="81.775696"
       transform="rotate(98.613442)" /><circle
       style="opacity:1;fill:none;fill-opacity:0.86031745;stroke:#afe9c6;stroke-width:0.17539023;stroke-linecap:butt;stroke-linejoin:round;stroke-miterlimit:4;stroke-dasharray:none;stroke-dashoffset:15.55857372;stroke-opacity:0.24126988;paint-order:markers fill stroke"
       id="path4613-6"
       cx="449.45615"
       cy="-1039.0328"
       r="81.775696"
       transform="rotate(98.613442)" /><circle
       style="opacity:1;fill:none;fill-opacity:0.86031745;stroke:#afe9c6;stroke-width:0.17539023;stroke-linecap:butt;stroke-linejoin:round;stroke-miterlimit:4;stroke-dasharray:none;stroke-dashoffset:15.55857372;stroke-opacity:0.24126988;paint-order:markers fill stroke"
       id="path4613-3"
       cx="449.45615"
       cy="-1039.0328"
       r="81.775696"
       transform="rotate(98.613442)" /></defs><sodipodi:namedview
     pagecolor="#312d31"
     bordercolor="#b4bd0f"
     borderopacity="1"
     objecttolerance="10"
     gridtolerance="10"
     guidetolerance="10"
     inkscape:pageopacity="1"
     inkscape:pageshadow="2"
     inkscape:window-width="1914"
     inkscape:window-height="1090"
     id="namedview5553"
     showgrid="false"
     showguides="true"
     inkscape:zoom="2.0000001"
     inkscape:cx="181.26126"
     inkscape:cy="202.0703"
     inkscape:window-x="6"
     inkscape:window-y="46"
     inkscape:window-maximized="1"
     inkscape:current-layer="layer1"
     inkscape:showpageshadow="false"
     borderlayer="true"
     inkscape:pagecheckerboard="false"
     fit-margin-top="55"
     fit-margin-left="55"
     fit-margin-right="55"
     fit-margin-bottom="55"
     inkscape:measure-start="0,0"
     inkscape:measure-end="0,0"><inkscape:grid
       type="xygrid"
       id="grid6792"
       originx="-771.41385"
       originy="-387.78933" /></sodipodi:namedview><g
     inkscape:groupmode="layer"
     id="layer1"
     inkscape:label="fonts"
     style="display:inline"
     transform="translate(-771.41386,-312.21066)"><text
       xml:space="preserve"
       style="font-style:normal;font-weight:normal;font-size:20.29672241px;line-height:1.25;font-family:sans-serif;letter-spacing:22.09000015px;word-spacing:0px;display:inline;fill:#000000;fill-opacity:1;stroke:none;stroke-width:0.5074181"
       id="text4557"
       x="-813.36243"
       y="-452.39755"
       transform="rotate(35.962847,676.25979,-247.84955)"><textPath
         xlink:href="#path4613"
         id="textPath4615"
         style="font-style:normal;font-variant:normal;font-weight:normal;font-stretch:normal;font-size:61.33333206px;line-height:10.25;font-family:'Ostrich Sans Rounded';-inkscape-font-specification:'Ostrich Sans Rounded';letter-spacing:0.25px;fill:#afe9c6;fill-opacity:0.15873018;stroke-width:0.5074181">a sort of sun-driven bomb</textPath></text>
<circle
       style="display:inline;opacity:1;fill:none;fill-opacity:0.86031745;stroke:#afe9c6;stroke-width:0.17539023;stroke-linecap:butt;stroke-linejoin:round;stroke-miterlimit:4;stroke-dasharray:none;stroke-dashoffset:15.55857372;stroke-opacity:0.24126988;paint-order:markers fill stroke"
       id="circle5248"
       cx="535.25049"
       cy="-493.75104"
       r="81.775696"
       transform="rotate(98.613442)" /><g
       aria-label="a sort of sun-driven bomb"
       transform="matrix(0.99776138,0.72392801,-0.72392801,0.99776138,497.84108,-732.17297)"
       style="font-style:normal;font-weight:normal;font-size:20.29672241px;line-height:1.25;font-family:sans-serif;letter-spacing:22.09000015px;word-spacing:0px;display:inline;fill:#afe9c6;fill-opacity:0.530303;stroke:none;stroke-width:0.5074181"
       id="text4557-6"><path
         d="m 927.13469,676.69473 c -0.0325,-0.52303 0.52148,-0.86676 1.0445,-0.8993 l 0.23461,0.0717 c 0.46924,0.14343 0.6908,0.46769 0.66468,0.97278 l -0.83869,12.18575 10.38184,3.17335 6.11759,-10.57218 c 0.31939,-0.41545 0.91412,-0.6826 1.32957,-0.36321 0.47411,0.33732 0.68261,0.91413 0.36322,1.32958 l -20.26757,35.04346 c -0.26074,0.43338 -0.62573,0.57835 -1.09496,0.43492 -0.52789,-0.16135 -0.74945,-0.48562 -0.72333,-0.99071 z m -0.54129,36.39124 11.06186,-19.19415 -9.56067,-2.92235 z"
         style="font-style:normal;font-variant:normal;font-weight:normal;font-stretch:normal;font-size:61.33333206px;line-height:10.25;font-family:'Ostrich Sans Rounded';-inkscape-font-specification:'Ostrich Sans Rounded';letter-spacing:0.25px;fill:#afe9c6;fill-opacity:0.530303;stroke-width:0.5074181"
         id="path4600"
         inkscape:connector-curvature="0" /><path
         d="m 892.46281,675.16195 0.43738,1.06612 c 0.57306,1.1904 1.44023,3.14933 1.50125,5.53425 0.14768,2.38112 -0.3865,5.05257 -2.83089,7.72085 -4.18447,4.56772 -9.72251,5.98232 -13.92844,2.1293 -4.3416,-3.97732 -3.98894,-8.81136 0.85842,-14.10269 0.33144,-0.3618 0.97946,-0.43358 1.38648,-0.0607 0.40703,0.37287 0.39216,1.02469 0.0607,1.38649 -4.18447,4.56772 -4.45838,8.22622 -1.02128,11.37493 3.21098,2.94156 7.63768,1.92291 11.24213,-2.01167 1.98866,-2.1708 2.50038,-4.36374 2.32645,-6.35302 -0.12871,-1.94785 -0.81119,-3.6544 -1.38425,-4.8448 l -0.43358,-0.97947 c -0.43739,-1.06611 -1.39122,-3.02124 -1.58033,-5.35714 -0.18911,-2.3359 0.29985,-5.04878 2.74424,-7.71706 2.03009,-2.21602 4.35809,-3.57688 6.68261,-4.02595 2.58448,-0.46046 4.9169,0.26221 7.04247,2.20944 4.3416,3.97731 3.94372,8.76992 -0.86221,14.01602 -0.45573,0.49748 -0.88901,0.51645 -1.38648,0.0607 -0.3618,-0.33145 -0.38836,-0.93804 -0.0155,-1.34506 2.69297,-2.93963 3.45707,-5.31727 3.29073,-7.13324 -0.12491,-1.86119 -1.22549,-3.20214 -2.31089,-4.19647 -3.2562,-2.98299 -7.30623,-2.28471 -10.99354,1.74032 -1.98866,2.1708 -2.45515,4.40517 -2.28502,6.3078 0.1284,0.94941 0.33966,1.80838 0.679,2.61832 z"
         style="font-style:normal;font-variant:normal;font-weight:normal;font-stretch:normal;font-size:61.33333206px;line-height:10.25;font-family:'Ostrich Sans Rounded';-inkscape-font-specification:'Ostrich Sans Rounded';letter-spacing:0.25px;fill:#afe9c6;fill-opacity:0.530303;stroke-width:0.5074181"
         id="path4602"
         inkscape:connector-curvature="0" /><path
         d="m 870.60705,668.53976 c -5.95689,3.7769 -10.79667,3.35963 -13.91672,-1.56128 -3.15289,-4.97271 -1.51779,-9.4953 4.4909,-13.30504 l 16.4203,-10.41111 c 3.88492,-2.46319 6.73629,-2.89124 9.05446,-2.32762 2.31817,0.56362 3.86309,2.19849 4.9469,3.90786 1.05096,1.65757 1.8707,3.75223 1.39172,6.08936 -0.47898,2.33712 -2.08233,4.73353 -5.96726,7.19673 z m 15.40218,-12.01687 c 5.23171,-3.31711 6.45108,-6.77727 3.98789,-10.6622 -2.39751,-3.78133 -5.95753,-4.35642 -11.34463,-0.94079 l -16.4203,10.41111 c -5.3353,3.38278 -6.39928,6.74442 -3.93609,10.62935 2.49604,3.93673 6.11293,4.25789 11.29283,0.97363 z"
         style="font-style:normal;font-variant:normal;font-weight:normal;font-stretch:normal;font-size:61.33333206px;line-height:10.25;font-family:'Ostrich Sans Rounded';-inkscape-font-specification:'Ostrich Sans Rounded';letter-spacing:0.25px;fill:#afe9c6;fill-opacity:0.530303;stroke-width:0.5074181"
         id="path4604"
         inkscape:connector-curvature="0" /><path
         d="m 878.75122,617.69111 c 0.64423,-0.20036 1.02813,10e-4 1.2285,0.64562 0.14572,0.46853 -0.13674,1.006 -0.66383,1.16993 l -10.01481,3.11478 c -4.86099,1.51185 -6.71714,5.04378 -5.25993,9.72907 l 1.63935,5.27095 17.56984,-5.46452 c 0.64423,-0.20036 1.02813,0.001 1.2285,0.64562 0.14572,0.46853 -0.13674,1.006 -0.66384,1.16993 l -37.658,11.71228 c -0.46853,0.14572 -1.006,-0.13673 -1.15172,-0.60526 l -1.9308,-6.20801 c -1.94901,-6.26657 0.37959,-10.13814 7.58322,-12.37859 3.57253,-1.11112 6.42659,-1.22801 8.58038,-0.29209 0.96173,0.40743 1.78418,0.98664 2.5038,1.85476 0.17317,-0.88887 0.38277,-1.6606 0.82663,-2.50519 1.11161,-2.20844 3.18103,-3.81553 6.1679,-4.7445 z m -32.22183,25.88667 17.33557,-5.39165 -1.63936,-5.27095 c -1.58471,-5.09526 -4.65988,-6.51538 -10.98502,-4.54816 -6.09087,1.89437 -7.95347,4.786 -6.35055,9.93981 z"
         style="font-style:normal;font-variant:normal;font-weight:normal;font-stretch:normal;font-size:61.33333206px;line-height:10.25;font-family:'Ostrich Sans Rounded';-inkscape-font-specification:'Ostrich Sans Rounded';letter-spacing:0.25px;fill:#afe9c6;fill-opacity:0.530303;stroke-width:0.5074181"
         id="path4606"
         inkscape:connector-curvature="0" /><path
         d="m 836.65236,594.81819 c -0.0131,-0.55184 0.40585,-0.99127 0.89638,-1.00296 0.67447,-0.0161 0.98835,0.28322 1.00442,0.95769 l 0.21176,8.89081 38.44509,-0.91567 c 0.55185,-0.0131 0.99274,0.46717 1.00442,0.95769 0.0161,0.67448 -0.28321,0.98836 -0.95769,1.00442 l -38.44509,0.91567 0.21322,8.95213 c 0.0117,0.49053 -0.40731,0.92996 -0.95915,0.94311 -0.49053,0.0117 -0.92996,-0.40731 -0.94165,-0.89784 z"
         style="font-style:normal;font-variant:normal;font-weight:normal;font-stretch:normal;font-size:61.33333206px;line-height:10.25;font-family:'Ostrich Sans Rounded';-inkscape-font-specification:'Ostrich Sans Rounded';letter-spacing:0.25px;fill:#afe9c6;fill-opacity:0.530303;stroke-width:0.5074181"
         id="path4608"
         inkscape:connector-curvature="0" /><path
         d="m 853.17449,564.20794 c -6.46259,-2.82569 -8.82354,-7.0711 -6.48928,-12.40975 2.35883,-5.39486 7.02243,-6.56887 13.54121,-3.71861 l 17.81425,7.78906 c 4.21473,1.84284 6.16433,3.96714 6.99364,6.20406 0.8293,2.23692 0.33812,4.43199 -0.47273,6.28647 -0.78628,1.79828 -2.06422,3.64935 -4.26951,4.55943 -2.2053,0.91008 -5.0886,0.92125 -9.30333,-0.92159 z m 18.57596,6.04698 c 5.67584,2.48169 9.2262,1.55727 11.06904,-2.65746 1.7937,-4.10234 0.27933,-7.37513 -5.56509,-9.93053 l -17.81426,-7.78907 c -5.78823,-2.53083 -9.17,-1.5327 -11.01284,2.68203 -1.86741,4.27093 -0.11074,7.44884 5.50889,9.90596 z"
         style="font-style:normal;font-variant:normal;font-weight:normal;font-stretch:normal;font-size:61.33333206px;line-height:10.25;font-family:'Ostrich Sans Rounded';-inkscape-font-specification:'Ostrich Sans Rounded';letter-spacing:0.25px;fill:#afe9c6;fill-opacity:0.530303;stroke-width:0.5074181"
         id="path4610"
         inkscape:connector-curvature="0" /><path
         d="m 874.32465,541.64973 7.35809,-9.42868 c 0.41507,-0.53187 0.8455,-0.58497 1.37738,-0.16989 0.38681,0.30187 0.46114,0.90447 0.12154,1.33964 l -7.35809,9.42868 14.79578,11.54655 c 0.43517,0.3396 0.5095,0.9422 0.20762,1.32902 -0.41507,0.53188 -0.8455,0.58497 -1.37737,0.1699 l -31.09048,-24.26284 c -0.38682,-0.30187 -0.46115,-0.90448 -0.12154,-1.33965 l 7.9241,-10.15396 c 0.3396,-0.43517 0.9422,-0.5095 1.32902,-0.20763 0.53188,0.41507 0.58497,0.8455 0.1699,1.37738 l -7.3581,9.42868 z"
         style="font-style:normal;font-variant:normal;font-weight:normal;font-stretch:normal;font-size:61.33333206px;line-height:10.25;font-family:'Ostrich Sans Rounded';-inkscape-font-specification:'Ostrich Sans Rounded';letter-spacing:0.25px;fill:#afe9c6;fill-opacity:0.530303;stroke-width:0.5074181"
         id="path4612"
         inkscape:connector-curvature="0" /><path
         d="m 911.01103,511.6277 -1.15042,0.0667 c -1.31209,0.15453 -3.44658,0.33711 -5.72157,-0.38121 -2.2996,-0.63515 -4.65185,-2.00952 -6.37955,-5.18911 -2.95757,-5.44304 -2.49318,-11.14 2.51872,-13.86331 5.17358,-2.81117 9.6298,-0.90476 13.05591,5.40054 0.23426,0.43113 0.0913,1.06724 -0.39374,1.33079 -0.48502,0.26354 -1.09652,0.0374 -1.33079,-0.39374 -2.95757,-5.44303 -6.32786,-6.89246 -10.42361,-4.66696 -3.82629,2.07909 -4.30347,6.59635 -1.75585,11.28491 1.40558,2.58679 3.31268,3.78422 5.2503,4.26704 1.88373,0.5121 3.71948,0.42205 5.03157,0.26752 l 1.06724,-0.0913 c 1.15042,-0.0667 3.30951,-0.33243 5.57983,0.24882 2.27032,0.58126 4.67646,1.92634 6.40416,5.10594 1.43486,2.64068 1.96416,5.2848 1.63243,7.62894 -0.40556,2.59366 -1.84784,4.564 -4.38074,5.9403 -5.17358,2.81117 -9.57591,0.87548 -12.97273,-5.37593 -0.32211,-0.5928 -0.19907,-1.00868 0.39374,-1.33079 0.43113,-0.23426 1.01335,-0.062 1.27689,0.42302 1.9034,3.50294 3.90302,4.99912 5.67429,5.43272 1.80055,0.4875 3.42665,-0.11686 4.72004,-0.81965 3.88018,-2.10837 4.53774,-6.16522 1.93155,-10.96156 -1.40558,-2.58679 -3.36657,-3.75494 -5.22102,-4.21315 -0.93952,-0.18752 -1.82048,-0.26725 -2.69677,-0.20992 z"
         style="font-style:normal;font-variant:normal;font-weight:normal;font-stretch:normal;font-size:61.33333206px;line-height:10.25;font-family:'Ostrich Sans Rounded';-inkscape-font-specification:'Ostrich Sans Rounded';letter-spacing:0.25px;fill:#afe9c6;fill-opacity:0.530303;stroke-width:0.5074181"
         id="path4614"
         inkscape:connector-curvature="0" /><path
         d="m 922.05517,483.32209 c -0.11286,-0.47751 0.2062,-0.99409 0.7434,-1.12106 0.47751,-0.11286 0.99409,0.2062 1.10695,0.68371 l 6.96929,29.48624 c 0.84647,3.58133 2.20736,5.33944 3.66918,6.19137 1.46183,0.85192 2.99637,0.67829 4.36921,0.35381 1.25346,-0.29626 2.76305,-0.84213 3.68877,-2.25838 0.92573,-1.41624 1.3555,-3.59759 0.50903,-7.17891 l -6.96929,-29.48624 c -0.11286,-0.47751 0.2062,-0.99408 0.68371,-1.10695 0.5372,-0.12697 1.05378,0.1921 1.16664,0.66961 l 6.96929,29.48624 c 0.95933,4.05883 0.52305,6.7459 -0.69027,8.54524 -1.19921,1.85902 -3.07018,2.7424 -4.92054,3.17974 -1.85035,0.43735 -3.85914,0.47098 -5.76375,-0.65444 -1.89049,-1.06572 -3.603,-3.24491 -4.56233,-7.30374 z"
         style="font-style:normal;font-variant:normal;font-weight:normal;font-stretch:normal;font-size:61.33333206px;line-height:10.25;font-family:'Ostrich Sans Rounded';-inkscape-font-specification:'Ostrich Sans Rounded';letter-spacing:0.25px;fill:#afe9c6;fill-opacity:0.530303;stroke-width:0.5074181"
         id="path4616"
         inkscape:connector-curvature="0" /><path
         d="m 969.42233,518.5107 c -0.42904,-0.016 -0.72865,-0.21123 -0.83528,-0.64482 l -12.74324,-35.27395 -1.27871,34.38423 c -0.0251,0.6742 -0.34293,0.96926 -1.01713,0.94419 -0.6742,-0.0251 -0.96926,-0.34293 -0.94418,-1.01713 l 1.46562,-39.41009 c 0.0388,-1.04194 1.51885,-1.2324 1.91141,-0.23579 l 12.68195,35.27167 1.281,-34.44553 c 0.0182,-0.49032 0.46322,-0.90341 1.01484,-0.88289 0.55162,0.0205 0.9647,0.46551 0.94647,0.95583 l -1.46562,39.41009 c -0.0205,0.55162 -0.27708,0.84896 -0.83326,0.95103 z"
         style="font-style:normal;font-variant:normal;font-weight:normal;font-stretch:normal;font-size:61.33333206px;line-height:10.25;font-family:'Ostrich Sans Rounded';-inkscape-font-specification:'Ostrich Sans Rounded';letter-spacing:0.25px;fill:#afe9c6;fill-opacity:0.530303;stroke-width:0.5074181"
         id="path4618"
         inkscape:connector-curvature="0" /><path
         d="m 981.20206,500.40796 c -0.64742,-0.18978 -0.85544,-0.57032 -0.66567,-1.21775 0.18978,-0.64742 0.57032,-0.85545 1.21775,-0.66567 l 12.53652,3.67476 c 0.47085,0.13801 0.76208,0.67078 0.60681,1.20049 -0.15527,0.52971 -0.68803,0.82095 -1.15889,0.68293 z"
         style="font-style:normal;font-variant:normal;font-weight:normal;font-stretch:normal;font-size:61.33333206px;line-height:10.25;font-family:'Ostrich Sans Rounded';-inkscape-font-specification:'Ostrich Sans Rounded';letter-spacing:0.25px;fill:#afe9c6;fill-opacity:0.530303;stroke-width:0.5074181"
         id="path4620"
         inkscape:connector-curvature="0" /><path
         d="m 993.7569,524.9557 c -0.58147,-0.34215 -0.69025,-0.76197 -0.3481,-1.34345 l 20.0002,-33.98965 c 0.2488,-0.42289 0.8366,-0.57519 1.3123,-0.29525 l 5.2332,3.07934 c 5.6562,3.32818 6.3179,8.12968 2.5854,14.47301 l -9.6424,16.38692 c -3.7326,6.34333 -8.2512,8.0966 -13.90735,4.76842 z m 20.7931,-33.52309 -19.03594,32.35097 4.44033,2.61277 c 4.59891,2.70609 8.01671,1.37248 11.25151,-4.12507 l 9.6424,-16.38692 c 3.2349,-5.49755 2.7409,-9.13289 -1.858,-11.83897 z"
         style="font-style:normal;font-variant:normal;font-weight:normal;font-stretch:normal;font-size:61.33333206px;line-height:10.25;font-family:'Ostrich Sans Rounded';-inkscape-font-specification:'Ostrich Sans Rounded';letter-spacing:0.25px;fill:#afe9c6;fill-opacity:0.530303;stroke-width:0.5074181"
         id="path4622"
         inkscape:connector-curvature="0" /><path
         d="m 1024.1741,547.1587 c -0.4821,0.47195 -0.9158,0.46733 -1.3877,-0.0148 -0.3433,-0.35063 -0.3368,-0.95776 0.058,-1.3439 l 7.4947,-7.33672 c 3.6378,-3.56109 3.6803,-7.55083 0.2479,-11.05713 l -3.8615,-3.94459 -13.1486,12.87143 c -0.4821,0.47195 -0.9158,0.46733 -1.3877,-0.0148 -0.3433,-0.35063 -0.3368,-0.95776 0.058,-1.34391 l 28.1819,-27.58775 c 0.3506,-0.34324 0.9577,-0.33677 1.301,0.0139 l 4.5479,4.64585 c 4.5908,4.68967 4.2825,9.19704 -1.1084,14.47433 -2.6736,2.61719 -5.1607,4.02196 -7.5044,4.17047 -1.0417,0.0756 -2.0377,-0.0651 -3.0739,-0.50983 0.2509,0.87011 0.4161,1.65256 0.4059,2.60662 0.017,2.47237 -1.0925,4.84599 -3.3278,7.03413 z m 16.8832,-37.72699 -12.9734,12.69981 3.8615,3.94459 c 3.7327,3.8131 7.1171,3.67567 11.8506,-0.95804 4.5582,-4.4621 4.8983,-7.88484 1.1227,-11.74177 z"
         style="font-style:normal;font-variant:normal;font-weight:normal;font-stretch:normal;font-size:61.33333206px;line-height:10.25;font-family:'Ostrich Sans Rounded';-inkscape-font-specification:'Ostrich Sans Rounded';letter-spacing:0.25px;fill:#afe9c6;fill-opacity:0.530303;stroke-width:0.5074181"
         id="path4624"
         inkscape:connector-curvature="0" /><path
         d="m 1059.4712,528.99654 c 0.4043,-0.27812 1.0013,-0.16777 1.3142,0.28699 0.3129,0.45477 0.2025,1.05182 -0.2017,1.32994 l -32.4902,22.3537 c -0.5559,0.38241 -0.9823,0.30359 -1.3647,-0.25223 -0.3825,-0.55582 -0.3036,-0.98229 0.2522,-1.3647 z"
         style="font-style:normal;font-variant:normal;font-weight:normal;font-stretch:normal;font-size:61.33333206px;line-height:10.25;font-family:'Ostrich Sans Rounded';-inkscape-font-specification:'Ostrich Sans Rounded';letter-spacing:0.25px;fill:#afe9c6;fill-opacity:0.530303;stroke-width:0.5074181"
         id="path4626"
         inkscape:connector-curvature="0" /><path
         d="m 1067.1578,540.44589 c 0.3764,-0.36451 0.9732,-0.22288 1.3622,0.20984 0.3645,0.37648 0.2229,0.97324 -0.2098,1.36223 l -29.1257,22.37449 36.2479,-6.00912 c 0.5795,-0.0516 1.1128,0.2515 1.1398,0.77483 0.027,0.52333 -0.2759,1.05656 -0.7993,1.08365 l -40.0772,6.73922 c -0.4989,0.0833 -0.8462,-0.1 -1.0665,-0.60612 -0.1958,-0.4499 -0.093,-0.829 0.3077,-1.13727 z"
         style="font-style:normal;font-variant:normal;font-weight:normal;font-stretch:normal;font-size:61.33333206px;line-height:10.25;font-family:'Ostrich Sans Rounded';-inkscape-font-specification:'Ostrich Sans Rounded';letter-spacing:0.25px;fill:#afe9c6;fill-opacity:0.530303;stroke-width:0.5074181"
         id="path4628"
         inkscape:connector-curvature="0" /><path
         d="m 1059.5927,578.9632 -17.676,2.47219 1.6566,11.84471 c 0.076,0.54668 -0.2892,1.03134 -0.7752,1.09931 -0.6681,0.0934 -1.0143,-0.16778 -1.1078,-0.83595 l -1.784,-12.75584 c -0.094,-0.66816 0.1677,-1.01435 0.8359,-1.1078 l 39.0572,-5.46261 c 0.4859,-0.068 0.9706,0.29776 1.047,0.84444 l 1.7841,12.75584 c 0.077,0.54668 -0.2893,1.03135 -0.7752,1.09931 -0.6682,0.0935 -1.0144,-0.16778 -1.1078,-0.83595 l -1.6566,-11.84471 -17.6152,2.4637 1.6566,11.84471 c 0.093,0.66816 -0.1678,1.01435 -0.836,1.1078 -0.4859,0.068 -0.9706,-0.29776 -1.047,-0.84444 z"
         style="font-style:normal;font-variant:normal;font-weight:normal;font-stretch:normal;font-size:61.33333206px;line-height:10.25;font-family:'Ostrich Sans Rounded';-inkscape-font-specification:'Ostrich Sans Rounded';letter-spacing:0.25px;fill:#afe9c6;fill-opacity:0.530303;stroke-width:0.5074181"
         id="path4630"
         inkscape:connector-curvature="0" /><path
         d="m 1040.4833,615.85047 c 0.05,-0.42645 0.2679,-0.70977 0.7085,-0.78194 l 36.1675,-9.92766 -34.177,-3.98078 c -0.6701,-0.078 -0.9392,-0.41814 -0.8612,-1.08828 0.078,-0.67013 0.4182,-0.93926 1.0883,-0.86121 l 39.1725,4.56265 c 1.0357,0.12063 1.1091,1.61113 0.085,1.92404 l -36.1603,9.86674 34.2379,3.98788 c 0.4873,0.0568 0.8641,0.53289 0.8003,1.08118 -0.064,0.5483 -0.54,0.92508 -1.0274,0.86831 l -39.1725,-4.56265 c -0.5483,-0.0639 -0.8245,-0.34303 -0.8825,-0.90551 z"
         style="font-style:normal;font-variant:normal;font-weight:normal;font-stretch:normal;font-size:61.33333206px;line-height:10.25;font-family:'Ostrich Sans Rounded';-inkscape-font-specification:'Ostrich Sans Rounded';letter-spacing:0.25px;fill:#afe9c6;fill-opacity:0.530303;stroke-width:0.5074181"
         id="path4632"
         inkscape:connector-curvature="0" /><path
         d="m 1034.4887,634.84603 c 0.3474,-0.57834 0.7682,-0.68331 1.3465,-0.33589 l 33.8066,20.30812 c 0.4206,0.25267 0.5675,0.84179 0.2833,1.31498 l -3.0004,4.99474 c -3.2531,5.41536 -7.808,5.97045 -13.9594,2.27519 -3.0494,-1.83183 -4.9838,-3.85242 -5.7821,-5.97759 -0.336,-0.98892 -0.4618,-1.85151 -0.4087,-2.89283 -0.8418,0.56756 -1.7465,0.88265 -2.6933,1.02941 -2.2511,0.29333 -4.9435,-0.46542 -8.0455,-2.32884 -6.1514,-3.69526 -7.8006,-7.97719 -4.5475,-13.39255 z m 33.3012,21.14934 -15.2471,-9.15918 -2.4951,4.15352 c -2.6215,4.36384 -1.4871,7.47793 3.9283,10.73102 5.4679,3.28468 8.6658,2.84458 11.3188,-1.57183 z m -16.877,-10.13827 -15.2997,-9.19077 -2.4951,4.15353 c -2.653,4.41641 -1.5396,7.44635 3.9283,10.73102 5.4679,3.28467 8.75,2.82358 11.3714,-1.54025 z"
         style="font-style:normal;font-variant:normal;font-weight:normal;font-stretch:normal;font-size:61.33333206px;line-height:10.25;font-family:'Ostrich Sans Rounded';-inkscape-font-specification:'Ostrich Sans Rounded';letter-spacing:0.25px;fill:#afe9c6;fill-opacity:0.530303;stroke-width:0.5074181"
         id="path4634"
         inkscape:connector-curvature="0" /><path
         d="m 1045.3691,673.50737 c 4.9107,5.06302 5.4877,9.88638 1.3052,13.94307 -4.2266,4.09939 -8.9874,3.41945 -13.9408,-1.6876 l -13.5365,-13.95635 c -3.2027,-3.30197 -4.2023,-6.00644 -4.1226,-8.39081 0.08,-2.38437 1.3659,-4.22982 2.8187,-5.63899 1.4089,-1.36646 3.2927,-2.59555 5.6784,-2.6025 2.3857,-0.007 5.0584,1.07485 8.261,4.37683 z m -14.9014,-12.63259 c -4.3129,-4.44666 -7.9488,-4.93592 -11.2508,-1.73327 -3.2139,3.11724 -3.0521,6.71978 1.3889,11.29852 l 13.5366,13.95634 c 4.3983,4.53472 7.9061,4.8919 11.2081,1.68925 3.346,-3.24535 2.924,-6.85186 -1.3462,-11.25449 z"
         style="font-style:normal;font-variant:normal;font-weight:normal;font-stretch:normal;font-size:61.33333206px;line-height:10.25;font-family:'Ostrich Sans Rounded';-inkscape-font-specification:'Ostrich Sans Rounded';letter-spacing:0.25px;fill:#afe9c6;fill-opacity:0.530303;stroke-width:0.5074181"
         id="path4636"
         inkscape:connector-curvature="0" /><path
         d="m 1003.533,707.08202 -6.18545,-33.56358 c -0.0261,-0.46637 0.13949,-0.82248 0.57898,-1.04066 0.38455,-0.19091 0.76833,-0.10752 1.12404,0.19521 l 22.99593,25.21824 -14.4543,-29.11623 c -0.3,-0.6043 -0.1617,-1.01534 0.4426,-1.31534 0.6043,-0.29999 1.0153,-0.16167 1.3153,0.44262 l 17.5362,35.32403 c 0.4636,0.93392 -0.8556,1.86274 -1.5939,1.06519 l -25.37499,-27.80337 6.75159,37.04871 c 0.1889,1.07028 -1.3485,1.55961 -1.8122,0.6257 l -17.5361,-35.32403 c -0.24545,-0.49443 0.003,-1.09716 0.44262,-1.31534 0.6043,-0.29999 1.01534,-0.16167 1.31534,0.44263 z"
         style="font-style:normal;font-variant:normal;font-weight:normal;font-stretch:normal;font-size:61.33333206px;line-height:10.25;font-family:'Ostrich Sans Rounded';-inkscape-font-specification:'Ostrich Sans Rounded';letter-spacing:0.25px;fill:#afe9c6;fill-opacity:0.530303;stroke-width:0.5074181"
         id="path4638"
         inkscape:connector-curvature="0" /><path
         d="m 980.90029,679.53634 c 0.66672,-0.10323 1.0167,0.15291 1.11992,0.81963 l 6.03377,38.97303 c 0.0751,0.48489 -0.28352,0.97486 -0.82902,1.05931 l -5.75807,0.89146 c -6.24296,0.96653 -9.58472,-2.17788 -10.68262,-9.2694 -0.54426,-3.51545 -0.22981,-6.29495 0.89212,-8.2685 0.54473,-0.89117 1.127,-1.53989 1.9611,-2.16554 -0.97485,-0.28352 -1.79603,-0.77703 -2.51474,-1.41052 -1.66619,-1.5419 -2.80641,-4.09619 -3.36006,-7.67225 -1.0979,-7.09152 1.13658,-11.09924 7.37953,-12.06577 z m 5.06399,39.12316 -2.7213,-17.57726 -4.78828,0.74132 c -5.03074,0.77886 -6.6974,3.64358 -5.73087,9.88653 0.97591,6.30357 3.36082,8.47897 8.45216,7.69073 z m -3.01219,-19.45621 -2.73068,-17.63787 -4.78829,0.74132 c -5.09134,0.78824 -6.70678,3.58297 -5.73087,9.88653 0.97592,6.30357 3.43082,8.5302 8.46155,7.75134 z"
         style="font-style:normal;font-variant:normal;font-weight:normal;font-stretch:normal;font-size:61.33333206px;line-height:10.25;font-family:'Ostrich Sans Rounded';-inkscape-font-specification:'Ostrich Sans Rounded';letter-spacing:0.25px;fill:#afe9c6;fill-opacity:0.530303;stroke-width:0.5074181"
         id="path4640"
         inkscape:connector-curvature="0" /></g><g
       style="fill:#afe9c6;fill-opacity:0.06060606;stroke:none"
       id="imagebot_128"
       transform="matrix(1.450094,-0.95668738,-0.95668738,-1.450094,1519.7365,582.42063)"
       sketchjs:uid="3"><path
         inkscape:connector-curvature="0"
         id="imagebot_129"
         d="M 0,0 C 0.503,-0.503 1.134,-0.651 1.674,-0.146 2.827,0.933 3.229,2.395 4.081,3.676 4.593,4.451 5.245,5.124 5.68,5.951 6.131,6.808 6.056,7.969 4.772,7.834 3.959,7.751 3.677,6.827 3.42,6.192 2.841,4.753 1.331,4.711 0.461,3.556 -0.19,2.693 -0.908,0.97 -0.044,0.046 -0.028,0.029 -0.013,0.016 0,0 m -42.121,-10.078 c -1.576,-0.072 0.465,-3.949 1.045,-2.554 0.156,0.377 -0.309,1.146 -0.402,1.517 -0.07,0.283 -0.212,1.056 -0.643,1.037 m 39.856,1.432 c 0.432,-0.134 0.967,-0.06 1.669,0.356 2.192,1.32 1.755,5.138 3.897,6.393 1.65,0.963 3.192,-0.623 2.746,-2.255 -0.424,-1.546 -2.623,-1.872 -2.69,-3.603 -0.109,-2.846 3.209,-2.369 4.901,-3.041 2.014,-0.8 2.28,-2.486 2.482,-4.484 0.167,-1.662 0.95,-3.184 1.992,-4.412 1.116,-1.32 4.131,-2.578 4.155,-4.683 0.013,-1.201 -0.798,-1.419 -1.733,-1.806 -1.237,-0.514 -0.628,-1.595 -1.541,-2.262 -0.461,-0.334 -1.105,-0.657 -1.311,-1.23 -0.274,-0.77 0.552,-1.215 0.429,-1.843 -0.3,-1.528 -3.368,-0.486 -4.226,-0.648 -1.865,-0.348 -2.027,-1.864 -3.182,-2.937 -0.885,-0.822 -3.97,-1.217 -4.21,-2.715 -0.414,-2.549 4.148,-2.203 5.604,-2.506 1.529,-0.315 2.76,-1.187 3.957,-2.125 0.712,-0.554 2.015,-1.065 2.577,-1.583 2.857,-2.633 -3.212,-2.507 -4.923,-1.884 -2.864,1.043 -3.666,3.97 -6.491,4.843 -2.299,0.706 -4.271,-0.669 -6.174,-1.758 -2.053,-1.17 -4.032,-1.162 -6.464,-1.518 -2.342,-0.338 -6.232,-0.085 -7.12,-2.333 -0.284,-0.724 0.274,-1.524 -0.089,-2.279 -0.443,-0.909 -1.607,-0.976 -2.24,-1.693 -0.355,-0.397 -0.642,-1.067 -0.732,-1.566 -0.249,-1.391 -0.592,-2.52 -0.775,-2.126 -5.814,10.026 -5.912,-2.821 -7.405,-4.563 -1.555,-1.814 -2.031,-1.074 -1.768,-3.616 0.102,-0.998 0.133,-2.579 -0.407,-3.459 -0.353,-0.578 -0.951,-0.371 -1.365,0.104 -0.49,0.559 -0.244,1.568 -0.089,2.214 0.276,1.17 0.557,2.211 0.556,3.442 -0.004,2.355 -0.152,3.208 -2.594,4.351 -1.622,0.756 -3.341,1.28 -5.231,1.303 -2.988,0.034 -3.698,-1.755 -4.784,-4.499 -0.995,-2.513 -2.311,-4.79 -3.435,-7.096 -0.659,-1.353 -0.912,-2.987 -1.408,-4.413 -0.169,-0.492 -0.301,-1.146 -0.898,-1.243 -0.607,-0.099 -1.397,0.43 -1.577,1 -0.246,0.76 0.28,1.822 0.686,2.428 0.955,1.42 2.601,2.459 3.056,4.182 0.47,1.768 0.269,3.157 1.136,4.834 0.828,1.608 1.76,3.1 2.799,4.573 1.359,1.926 1.525,2.427 0.758,4.483 -0.351,0.944 -0.754,3.63 -2.015,3.735 -1.509,0.133 -3.013,-2.495 -3.78,-3.488 -0.545,-0.707 -1.082,-1.488 -1.802,-2.027 -0.772,-0.582 -2.007,-0.046 -1.811,1.051 0.147,0.833 0.997,1.41 1.71,1.742 0.795,0.371 1.262,0.657 1.766,1.42 0.875,1.321 1.542,3.405 0.667,4.888 -1.1,1.859 -3.894,0.987 -4.964,2.883 -0.629,1.109 -0.035,1.756 -0.14,2.988 -0.105,1.219 -1.238,2.153 -1.37,3.26 -0.324,2.714 2.466,4.292 0.578,7.102 -0.581,0.864 -1.165,1.06 -1.426,2.122 -0.145,0.596 0.333,1.438 0.179,2.148 -0.303,1.389 -1.665,3.615 -6.028,4.126 -1.493,0.176 -3.51,3.094 -1.131,3.701 1.428,0.36 3.994,-1.342 5.05,-2.381 2.395,-2.357 4.72,-4.027 6.225,-3.938 3.301,0.193 9.099,2.936 11.093,5.58 3.337,4.428 1.774,8.666 1.814,9.893 0.034,0.993 0.612,1.705 0.648,2.748 0.085,2.31 -1.721,4.829 -1.086,7.454 1.291,5.36 4.406,-2.538 3.756,-4.562 -0.533,-1.658 -1.303,-2.494 -1.214,-4.351 0.095,-1.96 0.302,-7.957 2.998,-8.427 2.282,-0.399 1.13,3.818 2.207,4.827 2.864,2.687 3.846,-3.112 5.99,-3.22 1.202,-0.065 1.53,0.827 2.814,0.004 1.374,-0.884 1.562,-2.542 3.077,-3.481 1.455,-0.897 2.915,-1.366 4.639,-1.101 2.509,0.385 4.331,2.028 5.736,4.047 1.107,1.592 1.409,5.132 3.299,5.929 2.143,0.907 2.361,-2.497 3.983,-2.999"
         sketchjs:uid="4"
         style="fill:#afe9c6;fill-opacity:0.06060606;fill-rule:nonzero;stroke:none" /></g><path
       style="fill:#afe9c6;fill-opacity:0.39898993;stroke-width:0.39731875"
       d="m 1041.2277,-112.55066 c -12.2396,4.58295 -27.6494,1.32078 -37.6214,11.14105 12.0276,5.768009 25.8438,10.700659 32.0708,23.579619 11.0307,9.68885 14.4588,23.11549 15.638,37.00228 6.5705,10.68827 -3.2068,22.64159 3.7266,32.8311104 3.6387,7.38201996 5.3099,5.22471 6.258,5.37456 3.7607,6.26325 -0.5448,10.56998 -2.3742,1.60201 -3.025,-12.6924104 -16.0919,-12.7344704 -21.1325,-1.72213 -11.5232,1.24683 -19.0822,12.49228 -16.899,23.7148996 -0.098,10.38897 20.1495,14.26908 16.1034,22.18849 -7.1296,-0.90967 -16.2262,4.63097 -5.9665,9.29003 7.2191,3.02453 8.7175,13.58721 -1.5797,7.89516 -4.5103,-2.50093 -20.8081,-17.16404 -12.1012,-4.07782 3.8693,3.47298 5.2681,22.33041 -1.6875,14.69949 0.3503,-8.78812 -4.4266,-3.81093 -6.7756,-1.17513 4.9249,-5.27965 6.2208,-12.77377 -0.9718,-14.90584 -3.4387,-5.02278 -3.168,2.48297 -7.8391,-2.74268 -8.4899,0.80865 -18.1931,3.69805 -25.3573,6.13331 -3.8737,10.86095 -20.4045,20.55837 -23.8353,4.11006 -1.371,-9.7045 -10.0982,-12.73989 -15.5077,-3.95052 -4.504,3.05133 -17.49422,13.95248 -15.45464,12.86447 12.25546,-7.65892 13.64723,-28.09368 -2.13409,-32.26149 -8.75123,-3.25136 -17.91937,-10.53662 -16.16738,-19.91545 -4.53635,-8.52111 -18.52367,-26.2312296 -25.20295,-10.0078396 -1.25801,6.7049496 5.12549,22.7147396 -6.54889,13.4324496 -10.51212,-8.17904 -10.83682,-22.61656964 -11.51017,-34.70599 -0.67363,-7.41565 -18.23931,-19.73876 -13.35947,-21.2486 6.55219,12.39247 29.72007,-3.354 30.04409,-15.26042 -0.26942,-13.27889 -17.12715,-17.24435 -24.42076,-15.88899 -2.32408,-4.26561 -2.45262,-15.0154 1.35342,-4.78368 11.98221,4.60936 16.27422,-8.88105 5.24439,-13.12278 5.67839,7.91964 20.94699,17.12719 26.6526,4.35057 3.33304,-11.28251 -1.83555,-23.259769 1.63955,-34.831489 2.56327,-6.37583 -1.30503,11.23825 -0.98609,14.685599 -2.82597,10.11489 5.69991,24.64876 14.65666,12.08755 8.58177,-12.29299 6.79167,-28.407989 14.24457,-41.344169 2.15547,-5.89288 11.21443,-19.16722 5.03012,-6.3731 -3.84398,9.73187 -9.00722,18.4086 -10.06978,28.90899 -1.17648,7.215339 1.2647,10.039269 6.09713,2.91686 9.40428,-10.15119 22.24459,-15.70703 35.50809,-18.42355 15.6788,-1.31614 27.9275,11.50797 43.2462,12.79555 12.7525,2.27077 25.3923,-2.16282 36.6114,-7.71516 3.844,-0.74162 8.972,-0.88666 11.3781,2.85273 z m -25.803,35.037949 c -9.6149,3.89679 -1.0315,17.90495 -6.6096,24.66287 0.9667,2.54978 8.951,6.4472 1.4153,5.73019 2.5939,-4.69637 -10.0789,-7.38244 -6.8265,-14.71955 -2.8938,-18.24249 -20.0126,-28.52186 -32.7902,-39.704949 -11.5547,-9.69661 -27.226,-4.68552 -39.58812,0.39922 -19.49504,7.770269 -34.29196,24.929369 -39.67572,45.136309 -9.89314,26.83253 1.45065,57.8994104 23.2305,75.36567 15.62517,12.99822 37.49834,19.4021 57.27874,12.96137 14.7204,-4.16838 29.5921,-11.07807 40.0161,-22.4281296 9.2245,-13.15784 19.1483,-27.6392304 17.9602,-44.5019904 0.1741,-15.30212 -3.6582,-31.49041 -14.4107,-42.901 z m 12.7066,32.0541 c -3.6509,2.54122 0.6229,-3.91274 0,0 z m -0.5633,3.11747 c -1.8622,0.34534 1.0025,-1.37856 0,0 z m -2.2042,2.9237 c -5.4561,1.56872 -13.3176,-5.79734 0,0 z m 3.2727,7.44702 c -5.4117,4.00195 -5.6418,-9.47166 -2.2419,-1.5228 0.3247,0.14094 3.495,0.0643 2.2419,1.5228 z m -14.4272,-13.00615 c 0.048,6.7179 -1.8176,-3.73987 0,0 z m -26.9562,-40.64705 c -2.3261,2.06031 -0.065,-3.1524 0,0 z m 31.1849,83.2908204 c -3.0921,0.0178 1.7232,-2.55304 0,0 z m -12.7141,-76.1013704 c -11.2591,-6.81199 -5.3385,9.10986 -3.0154,14.39652 8.9823,18.23806 10.5764,-11.81981 3.0154,-14.39652 z m 0.8484,17.86093 c -1.92,2.96073 -0.6583,-3.19257 0,0 z m -85.40535,-46.328989 c -5.86977,2.04234 -8.67697,11.266049 -1.82444,3.09798 2.00756,-1.28398 6.94727,-7.99109 1.82444,-3.09798 z M 943.6407,50.310519 c -6.522,5.26474 5.0845,-2.57801 0,0 z m -82.92912,-120.00536 c -6.47607,3.74538 5.04718,2.08631 0,0 z M 937.184,54.851719 c -0.181,2.36 1.7256,-2.71549 0,0 z m -7.75087,-10.47768 c -6.50051,5.60464 9.46737,18.22899 4.92707,5.86819 -1.45241,-2.10448 -3.06826,-4.10687 -4.92707,-5.86819 z m -1.11615,17.43389 c 0.94868,2.82007 3.60526,-4.90719 0,0 z m -74.02111,-89.793 c -11.74198,-2.84244 4.8289,10.87173 2.36589,-0.3745 l -0.85983,-0.25048 z m 181.88323,-79.619909 c -1.9732,0.22795 1.0284,-1.69926 0,0 z m 17.6187,52.431899 c -1.9729,0.22822 1.0279,-1.69934 0,0 z m -34.451,-47.760279 c -1.973,0.22739 1.0286,-1.69902 0,0 z m 33.3471,60.746539 c -1.973,0.22779 1.0281,-1.69911 0,0 z m -46.5703,-61.447479 c -1.5581,1.97431 -0.049,-3.21818 0,0 z m 50.4341,79.742739 c 2.7983,5.50886 1.6973,6.01469 0,0 z m 4.4535,10.1449 c -2.6566,1.76539 1.2399,-2.97826 0,0 z m -0.9526,-1.53267 c -2.0297,-0.06 1.3092,-1.86984 0,0 z m 1.4421,4.05987 c -1.8971,2.1713404 0.6083,-5.07635 0,0 z m -0.6811,3.0067504 c -2.9952,0.85627 2.0248,-2.3672604 0,0 z m -6.4108,2.39123 c -3.3148,2.44707 0.8022,-3.99415 0,0 z m -2.8011,0.21947 c -1.5989,-0.46708 1.2392,-1.29049 0,0 z m -3.621,0.2006 c -1.6708,0.33746 1.0896,-1.54951 0,0 z m -4.8828,1.95532 c -2.4165,0.0434 1.0445,-2.17951 0,0 z M 1053.6,14.367469 c -1.9726,0.22833 1.0277,-1.69924 0,0 z m -12.0047,-6.9283296 c -2.9832,0.31826 1.5661,-2.3519 0,0 z m -2.5848,4.6835696 c -2.9794,2.39308 -0.065,-2.3130096 0,0 z M 895.72083,-135.25803 c -2.97959,2.39274 -0.0649,-2.31297 0,0 z m -3.10129,5.57887 c -2.41703,0.0435 1.04415,-2.17968 0,0 z m -2.74813,6.01472 c -2.4167,0.0433 1.04439,-2.17965 0,0 z m 11.78645,19.12437 c -1.55763,1.97433 -0.0495,-3.21735 0,0 z m -13.21199,19.095079 c -1.97293,0.22795 1.028,-1.69905 0,0 z m -10.69493,0.2578 c -1.97298,0.22809 1.02808,-1.69934 0,0 z m 3.3631,6.33971 c -2.47929,0.53049 1.51376,-2.03401 0,0 z m -18.61011,-23.463049 c -1.97298,0.22809 1.02816,-1.6994 0,0 z M 972.1848,89.792719 c -1.9729,0.22816 1.0282,-1.69925 0,0 z m -1.242,1.74231 c -1.973,0.22798 1.028,-1.6994 0,0 z m -9.7137,-5.56659 c -1.973,0.22803 1.0281,-1.69942 0,0 z m -12.0783,-2.63142 c -1.9729,0.2281 1.0279,-1.69919 0,0 z m -11.7506,-15.35517 c -1.8622,0.34559 1.0022,-1.37872 0,0 z m -3.11322,-4.84757 c -1.97303,0.22821 1.02812,-1.69944 0,0 z m -78.32837,-116.99993 c 2.17224,7.1419 -5.8506,-0.33297 0,0 z m 61.21555,97.2502 c -2.16202,-1.42156 -0.88642,-4.76631 0,0 z m 0.527,2.54195 c 0.81898,6.20545 -3.01896,-4.40275 0,0 z M 849.0973,-59.235451 c 5.22124,8.72167 -5.82602,-0.13983 -0.67665,-0.31717 l 0.59141,0.27716 z m 69.23726,107.82441 c -1.67045,0.33738 1.08913,-1.54944 0,0 z M 886.399,8.4210894 c -1.97287,0.22809 1.02809,-1.69932 0,0 z m 7.1208,15.4956996 c -1.67047,0.33755 1.08929,-1.54958 0,0 z m -6.00326,8.34143 c -1.59832,-0.46743 1.23892,-1.29008 0,0 z m -2.76218,1.53781 c -1.86206,0.34577 1.00226,-1.37874 0,0 z"
       id="path4904"
       inkscape:connector-curvature="0" /><path
       style="opacity:1;fill:none;fill-opacity:1;fill-rule:nonzero;stroke:#afe9c6;stroke-width:0.74768442;stroke-linecap:round;stroke-linejoin:round;stroke-miterlimit:4;stroke-dasharray:none;stroke-dashoffset:0;stroke-opacity:0.52941165;paint-order:normal"
       id="path4639"
       transform="matrix(-1.1902953,-0.66382749,0.66382749,-1.1902953,1971.7643,1836.5197)"
       inkscape:path-effect="#path-effect5386"
       sodipodi:type="arc"
       sodipodi:cx="1063.7472"
       sodipodi:cy="477.29333"
       sodipodi:rx="67.947617"
       sodipodi:ry="67.947617"
       d="m 1129.2001,504.53953 c -4.6444,13.10829 -13.3375,24.48337 -24.8425,32.52888 m 6.6655,-11.3392 c -1.7652,1.54494 -3.6078,2.99884 -5.5205,4.35581 m -2.3005,4.41633 c -4.964,3.59421 -10.3771,6.50763 -16.0976,8.66002 m 5.786,0.3849 c -8.3703,3.65983 -17.4116,5.55405 -26.5613,5.57916 -24.8073,0.0681 -47.7315,-13.54043 -59.541,-35.30789 m 12.2561,14.77568 c -15.7362,-12.54865 -24.98694,-31.32334 -25.3082,-51.37585 m 4.04531,13.51512 c -1.01538,-4.62896 -1.52838,-9.36224 -1.53187,-14.12019 -0.003,-4.00298 0.35477,-8.00666 1.06836,-11.96366 m -1.67916,7.35767 c 0.68726,-6.21803 2.24898,-12.30991 4.63766,-18.10186 m 1.4562,-1.99119 c 0.1083,-0.29406 0.2185,-0.58736 0.3307,-0.87988 m -4.31694,-0.39989 c 10.13784,-26.33013 35.32134,-43.93802 63.43584,-44.23224 2.1467,-0.0225 4.2919,0.057 6.4284,0.23818 m -18.6911,2.63649 c 5.1542,-1.19436 10.4446,-1.78369 15.7616,-1.7527 23.144,0.1349 44.8325,11.9667 57.5518,31.60848 m -16.7643,-16.5665 c 12.7323,10.57993 21.1117,25.32954 23.6571,41.53186 m -3.2515,-10.56768 c 2.0015,6.43652 3.0263,13.11069 3.047,19.80819 0.063,20.36527 -9.1414,39.5528 -24.9682,52.28936 m 17.3074,-13.12757 c -8.6725,16.1653 -23.5549,28.18159 -41.1695,33.38244 m 11.7727,-5.03078 c -4.2888,2.00748 -8.7669,3.5671 -13.3644,4.65627 m 2.6657,-5.72672 c -5.5971,1.43572 -11.3653,2.1568 -17.1644,2.14348 -6.2679,-0.0144 -12.5135,-0.88661 -18.5603,-2.59432 m 6.2286,5.28754 c -29.4975,-5.3136 -51.73075,-29.35025 -54.72714,-58.91191 m 4.03684,18.44853 c -4.04945,-8.85825 -6.14569,-18.53577 -6.13818,-28.36577 0.0211,-27.59924 16.49548,-52.72543 41.85348,-63.82787 m -24.687,18.32174 c 12.9099,-14.60386 31.5392,-22.93789 51.1391,-22.78276 18.3889,0.14554 36.0247,7.75494 48.9204,21.20142 m -24.0986,-19.47756 c 15.5896,5.25391 28.8037,15.91872 37.2316,30.03437 m -11.9594,-1.15998 c 9.5466,11.93219 14.7677,26.7253 14.8778,41.96119 0.085,11.78526 -2.8922,23.36455 -8.6075,33.58301 m 4.1263,-8.4341 c -11.2686,23.45064 -35.1015,38.3215 -61.2552,38.14272 -7.2845,-0.0498 -14.5243,-1.27247 -21.4421,-3.62571 m 29.0959,6.95196 c -1.471,0.0828 -2.9439,0.11926 -4.4164,0.10928 -18.0906,-0.12258 -35.3291,-7.24323 -47.9748,-19.88646 -12.6419,-12.63951 -19.64874,-29.75945 -19.48467,-47.63483 0.003,-0.29723 0.007,-0.59447 0.0141,-0.89168 m 7.19364,29.08748 c -4.6743,-9.43514 -7.10653,-19.85224 -7.10451,-30.44493 0.004,-23.18937 11.62601,-44.93401 30.89721,-58.03506 m -25.3732,19.04349 c 12.6113,-18.44405 33.595,-29.43798 56.0659,-29.43929 17.6177,-0.001 34.592,6.76534 47.3881,18.86887 m -30.1453,-19.13216 c 26.2909,6.89366 45.9384,28.60308 50.1578,55.63822 m -3.5717,-15.13304 c 0.7221,1.55689 1.385,3.14123 1.9871,4.74959 m 1.8822,1.47107 c 3.0744,7.8095 4.6571,16.13458 4.6712,24.54264 0.025,14.98565 -4.9294,29.57954 -14.0698,41.47105 m 10.7862,-35.9857 c -0.6118,6.57041 -2.1612,13.01423 -4.6046,19.1325 m 3.8631,-2.16579 c -6.2241,18.03511 -19.6469,32.48899 -36.9856,39.84975 m 7.7516,-9.28825 c -11.1013,7.15036 -24.0159,10.99578 -37.1912,11.04486 -26.4606,0.0986 -50.3883,-15.0501 -61.3184,-38.83911 m 20.4605,30.29596 c -13.1562,-9.48698 -22.36937,-23.455 -25.97036,-39.28653 m 9.36816,4.12611 c -2.9422,-7.72941 -4.45078,-15.93661 -4.44877,-24.21471 0.002,-8.94326 1.76737,-17.79909 5.19647,-26.05637 m -3.8132,13.24345 c 7.2929,-28.86708 32.2255,-49.57461 61.5732,-50.98537 m -20.9032,2.77657 c 7.8806,-3.11517 16.2835,-4.71153 24.7685,-4.70872 24.1001,0.008 46.4537,12.85785 58.6865,33.74897 m -16.6551,-23.71798 c 16.5142,12.90936 26.0531,32.69088 25.99,53.71123 -0.013,4.25903 -0.4203,8.51287 -1.2168,12.70734 m -4.7387,13.01533 c -8.1813,29.55703 -34.8425,49.93363 -65.1661,49.91126 -0.3572,-2.7e-4 -0.7144,-0.003 -1.0716,-0.009 m 22.7893,-10.14287 c -1.9435,0.62158 -3.9132,1.15794 -5.9034,1.60732 m -0.8592,6.01579 c -5.2819,1.29647 -10.7204,1.947 -16.1957,1.93673 -16.4596,-0.0309 -32.504,-6.02407 -45.1704,-16.89167 -12.669,-10.86979 -21.09746,-25.87333 -23.78817,-42.27465 m 19.08897,31.15432 c -8.2166,-11.51246 -12.64267,-25.36231 -12.61457,-39.58028 0.041,-20.75693 9.55547,-40.39336 25.93437,-53.25278 M 1003.851,441.175 c 1.9558,-3.7342 4.2598,-7.27568 6.882,-10.57787 m 0.7142,10.67052 c 12.686,-17.09352 32.9824,-27.25543 54.6861,-27.39925 4.179,-0.0277 8.3552,0.31715 12.477,1.0302 m -17.4463,-4.34344 c 1.7328,-0.14623 3.4715,-0.22372 5.2121,-0.23239 31.9142,-0.15896 59.8519,22.49654 67.0808,54.19119 m -9.9854,-21.18797 c 4.1097,6.09276 7.2077,12.81646 9.1708,19.90807 m -1.2252,-4.46373 c 2.2394,6.94683 3.3715,14.19827 3.3462,21.48493 -0.01,1.49697 -0.059,2.99299 -0.162,4.48568 m -3.6182,-3.94663 c -0.035,2.96394 -0.2607,5.92508 -0.6767,8.8643 m 0.1895,-1.35961 c -3.0157,25.44059 -19.8152,46.83213 -43.4846,55.49675 m 37.75,-36.16577 c -10.8312,24.682 -35.2048,40.65181 -62.0924,40.72981 -11.9595,0.0347 -23.698,-3.09695 -34.017,-9.07133 m 29.4095,7.22184 c -29.0709,-1.14114 -54.2359,-20.70962 -62.15348,-48.72358 m 8.81268,19.88754 c -7.61792,-11.26665 -11.75504,-24.54812 -11.89248,-38.14822 -0.27193,-26.90732 15.05528,-51.27072 38.82918,-62.27038 0.077,-0.0355 0.1538,-0.0709 0.2308,-0.10617 m -26.7359,19.71732 c 12.724,-17.3122 33.0701,-27.60699 54.7374,-27.63704 10.5674,-0.0146 20.997,2.41929 30.4586,7.11877 m -20.9192,-8.48231 c 32.4423,3.12479 57.994,28.74749 61.46,61.4404 m -1.6655,-25.12001 c 4.707,9.29542 7.1267,19.57384 7.0865,30.01211 -0.036,9.4667 -2.0953,18.84908 -6.0382,27.53182 m -4.5666,2.74875 c -8.6315,17.76468 -24.4589,30.89728 -43.4965,35.99392 m 7.5087,2.40756 c -9.1708,4.43144 -19.1874,6.72185 -29.3193,6.71776 -1.1584,-4.7e-4 -2.3165,-0.0309 -3.4732,-0.0913 m 6.3003,-6.11715 c -0.7592,0.0216 -1.5188,0.0307 -2.2786,0.0271 -17.9938,-0.0845 -35.2912,-7.22041 -48.0846,-19.89588 -12.7919,-12.67393 -20.02496,-29.84155 -20.10962,-47.75454 -0.003,-0.53343 0.001,-1.06685 0.0115,-1.60015 m 12.40463,34.74386 c -4.3296,-9.02295 -6.57706,-18.93939 -6.58834,-29.02013 -0.005,-4.69983 0.47561,-9.39591 1.43424,-14.0126 m -3.35463,6.49594 c 1.23964,-15.82394 8.01973,-30.64147 19.11403,-41.95812 m -5.1626,4.72462 c 7.186,-9.58473 16.7614,-17.08756 27.7635,-21.76383 m -9.2316,0.78379 c 9.7973,-5.31156 20.7863,-8.10875 31.9593,-8.14495 14.8438,-0.0481 29.291,4.77695 41.0609,13.71637 m -12.0976,-7.16452 c 22.7948,8.91277 38.947,29.54882 42.4172,53.79725 m -7.5158,-15.27306 c 3.1158,7.91591 4.7188,16.33762 4.7273,24.828 0.025,25.57292 -14.3427,48.91979 -37.1205,60.34261 m 30.4467,-22.90333 c -4.3152,7.34763 -9.9517,13.81621 -16.6324,19.07658 m 3.4234,-6.86292 c -3.1398,2.81077 -6.5351,5.3289 -10.1418,7.52147 m 3.2106,3.72551 c -11.0518,6.98139 -23.865,10.66311 -36.9543,10.5779 -16.06,-0.10455 -31.6095,-5.8715 -43.9874,-16.35114 m 20.135,11.35827 c -3.3564,-1.35776 -6.598,-2.97438 -9.6949,-4.83524 m 1.473,1.23048 c -8.0022,-4.56203 -14.9872,-10.73507 -20.5193,-18.13508 m 1.5721,0.1499 c -1.5478,-1.78308 -2.9998,-3.64347 -4.3506,-5.57378 m -2.8221,4.53295 c -7.3438,-10.27311 -11.74072,-22.36699 -12.72125,-34.95635 m 1.73172,3.51419 c -0.62223,-3.72859 -0.93074,-7.49858 -0.92225,-11.27153 0.0127,-5.63405 0.73216,-11.2389 2.1426,-16.68718 m -2.37702,6.05293 c 6.1246,-32.07208 34.2036,-55.65435 67.1784,-55.73428 5.2645,-0.0128 10.5162,0.5823 15.6528,1.77488 m -26.8255,-5.23234 c 5.1128,-1.17729 10.343,-1.75693 15.5862,-1.72523 13.2868,0.0803 26.2568,4.08275 37.2995,11.54934 m -8.7333,-2.75065 c 3.8608,1.72212 7.5523,3.79814 11.0267,6.20155 m -10.3133,0.23736 c 13.2363,8.72279 23.1418,21.81131 27.9476,36.99117 m 0.1884,-7.83966 c 4.0336,8.85587 6.131,18.49984 6.1444,28.27398 0.025,18.52732 -7.4275,36.29896 -20.6479,49.2241 m 21.7185,-44.79643 c -4.6908,32.04294 -31.0401,56.55377 -63.3305,58.58753 m 20.0553,-2.97078 c -1.4396,0.62806 -2.8999,1.20702 -4.3785,1.73584 m 0.1741,3.67181 c -1.3211,0.49455 -2.6575,0.94775 -4.0071,1.35896 m 3.1753,-4.91117 c -3.6002,1.14238 -7.2833,1.98195 -11.0122,2.51114 m 2.6211,-0.13347 c -3.525,0.55827 -7.0959,0.8357 -10.6783,0.82932 -11.2601,-0.02 -22.3963,-2.84267 -32.3828,-8.22022 m 4.4514,6.45731 c -25.8841,-9.99575 -43.06895,-35.29403 -43.19771,-63.54077 -0.0562,-12.32929 3.16056,-24.45359 9.32051,-35.0972 m -7.5299,34.74519 c 0.17903,-7.05921 1.44055,-14.05607 3.7425,-20.74281 m 2.6069,1.09304 c 0.09,-0.29864 0.1821,-0.59668 0.2763,-0.8941 m -4.82126,-0.0512 c 0.8725,-2.81844 1.92973,-5.57887 3.16496,-8.26303 m 1.5865,3.6125 c 5.6258,-13.22752 15.3524,-24.25084 27.7397,-31.52169 m -8.3755,-0.43836 c 5.3129,-4.07432 11.2065,-7.32695 17.4809,-9.65289 m -3.1713,-0.002 c 1.8763,-0.78907 3.7858,-1.49331 5.7228,-2.11065 m 1.8033,0.57053 c 5.7719,-1.93064 11.7777,-3.06474 17.8525,-3.37402 m -3.065,6.71576 c 1.9823,-0.17851 3.9725,-0.26903 5.9647,-0.27133 2.3675,-0.003 4.7347,0.11914 7.0919,0.36505 m -5.7547,-3.17552 c 26.369,2.17436 49.2397,19.53145 58.5549,44.67486 m -0.6085,-17.88986 c 0.551,0.7686 1.0858,1.54808 1.6041,2.33797 m -7.2968,3.32826 c 7.3283,11.20094 11.2196,24.28464 11.1445,37.6263 -0.055,9.83097 -2.264,19.5219 -6.4897,28.3986 m 4.9912,-20.96011 c -1.5377,9.37723 -5.0495,18.37257 -10.3106,26.38455 m 5.244,-3.64955 c -12.0852,21.50306 -34.675,34.56546 -59.0948,34.13135 -3.3363,-0.0593 -6.6669,-0.37122 -9.9641,-0.93356 m 24.7841,0.25854 c -3.2829,0.48869 -6.5907,0.73877 -9.8982,0.74858 -1.4026,0.004 -2.804,-0.0349 -4.2023,-0.11709 m -0.5599,2.17376 c -17.7001,-0.70911 -34.454,-8.13111 -46.7827,-20.78923 -12.3277,-12.65703 -19.256,-29.54949 -19.38358,-47.1767 -0.001,-0.15748 -0.002,-0.31496 -0.002,-0.47244 m 9.52247,28.41897 c -3.9919,-8.70807 -6.0816,-18.18501 -6.148,-27.79935 -0.023,-3.26718 0.1886,-6.5335 0.6313,-9.77354 m -3.36879,8.12793 c 0.86911,-17.55222 8.33689,-34.10658 20.91399,-46.26382 12.5754,-12.1556 29.28,-18.96701 46.6637,-19.0621 3.5049,-0.0192 7.0046,0.2352 10.4676,0.7603 m -37.6547,3.62672 c 4.5705,-1.60209 9.3019,-2.69812 14.1121,-3.26963 m 2.4043,1.05985 c 3.368,-0.51381 6.7751,-0.77023 10.1911,-0.76693 17.9417,0.0174 35.2524,7.18687 48.059,19.94773 12.8064,12.76075 20.0602,30.06802 20.1144,48.13316 2e-4,0.0555 3e-4,0.11106 3e-4,0.16659 m -6.0025,-39.06205 c 5.6634,10.19337 8.6303,21.56893 8.6323,33.07417 8e-4,4.73278 -0.5003,9.44205 -1.4944,14.05108 m -2.1291,7.6583 c -7.45,22.16759 -25.7381,39.24568 -48.5995,45.07418 m 11.7611,-4.83527 c -9.5311,4.8707 -20.0175,7.44957 -30.6158,7.54793 -14.2609,0.13236 -28.0841,-4.23116 -39.473,-12.40532 m 14.6763,5.39126 c -0.1448,-0.0573 -0.2895,-0.11508 -0.434,-0.17335 m 1.832,5.52938 c -25.9332,-10.40306 -42.63355,-35.28997 -42.15847,-62.8863 0.0839,-4.87582 0.70686,-9.7348 1.85877,-14.49134 m -1.62607,24.17877 c -0.518,-3.4536 -0.77456,-6.94315 -0.76683,-10.43789 0.0253,-11.42114 2.8721,-22.65455 8.2904,-32.67127 m -2.7456,3.68174 c 10.4754,-25.81843 35.1969,-42.70825 62.5252,-42.5183 8.184,0.0569 16.2782,1.65747 23.8728,4.72711 m -27.8259,-4.0353 c 1.5184,-0.10143 3.0403,-0.1517 4.5631,-0.15071 17.3726,0.0113 34.1254,6.68519 46.6873,18.63303 12.5586,11.94465 19.9566,28.24056 20.5441,45.44982 m -9.3893,-30.71228 c 0.2199,0.41536 0.4357,0.83298 0.6472,1.2528 m 1.7575,1.29197 c 4.9531,9.72044 7.5753,20.43303 7.6455,31.26869 0.1366,21.10435 -9.4005,40.86058 -25.7425,53.52953 m -93.7367,-100.39397 18.9916,-13.37538 m 88.8436,26.95043 8.36,21.67237 m -37.9456,-48.6228 18.9916,13.37538 m -3.7265,101.17484 -19.9241,11.94204 m -93.40567,-55.98522 1.13979,-23.2009 m 69.16048,-53.9734 22.7826,4.53173 m 3.4454,1.42714 19.3141,12.90527" /></g></svg>