<?xml version="1.0" encoding="UTF-8" standalone="no"?>
<!-- Generator: Adobe Illustrator 16.0.0, SVG Export Plug-In . SVG Version: 6.00 Build 0)  -->

<svg
   xmlns:osb="http://www.openswatchbook.org/uri/2009/osb"
   xmlns:dc="http://purl.org/dc/elements/1.1/"
   xmlns:cc="http://creativecommons.org/ns#"
   xmlns:rdf="http://www.w3.org/1999/02/22-rdf-syntax-ns#"
   xmlns:svg="http://www.w3.org/2000/svg"
   xmlns="http://www.w3.org/2000/svg"
   xmlns:xlink="http://www.w3.org/1999/xlink"
   xmlns:sodipodi="http://sodipodi.sourceforge.net/DTD/sodipodi-0.dtd"
   xmlns:inkscape="http://www.inkscape.org/namespaces/inkscape"
   version="1.1"
   id="root"
   x="0px"
   y="0px"
   width="316"
   height="316"
   viewBox="0 0 316 316"
   enable-background="new 0 0 1920 1200"
   xml:space="preserve"
   sodipodi:docname="bluepillConceptLogo.svg"
   inkscape:version="0.92.1 r15371"
   inkscape:export-filename="/home/ticho/images/wallpapers/skyPng.png"
   inkscape:export-xdpi="96"
   inkscape:export-ydpi="96"><metadata
     id="metadata5557"><rdf:RDF><cc:Work
         rdf:about=""><dc:format>image/svg+xml</dc:format><dc:type
           rdf:resource="http://purl.org/dc/dcmitype/StillImage" /><dc:title></dc:title></cc:Work></rdf:RDF></metadata><defs
     id="defs5555"><linearGradient
       id="linearGradient8457"
       osb:paint="solid"><stop
         style="stop-color:#ffffff;stop-opacity:1;"
         offset="0"
         id="stop8455" /></linearGradient><filter
       inkscape:label="Eroded Metal"
       inkscape:menu="Materials"
       inkscape:menu-tooltip="Eroded metal texture with ridges, grooves, holes and bumps"
       style="color-interpolation-filters:sRGB"
       id="filter4516"><feGaussianBlur
         result="result0"
         in="SourceGraphic"
         stdDeviation="1"
         id="feGaussianBlur4492" /><feTurbulence
         type="turbulence"
         baseFrequency="0.057"
         seed="4"
         numOctaves="4"
         result="result1"
         id="feTurbulence4494" /><feDisplacementMap
         xChannelSelector="R"
         in2="result1"
         result="result91"
         id="feDisplacementMap4496"
         scale="0"
         yChannelSelector="A" /><feComposite
         result="result2"
         operator="out"
         in="result0"
         in2="result91"
         id="feComposite4498" /><feComposite
         k1="0.1"
         k3="1.2"
         in2="result2"
         in="SourceAlpha"
         operator="arithmetic"
         result="result5"
         id="feComposite4500"
         k2="0"
         k4="0" /><feBlend
         result="fbSourceGraphic"
         mode="multiply"
         in2="result5"
         id="feBlend4502" /><feGaussianBlur
         stdDeviation="3"
         in="fbSourceGraphic"
         result="result0"
         id="feGaussianBlur4504" /><feSpecularLighting
         in="result0"
         result="result1"
         lighting-color="#fee65d"
         surfaceScale="3"
         specularConstant="0.40000001"
         specularExponent="15"
         id="feSpecularLighting4508"><fePointLight
           x="-5000"
           y="-10000"
           z="20000"
           id="fePointLight4506" /></feSpecularLighting><feComposite
         in2="fbSourceGraphic"
         in="result1"
         result="result2"
         operator="in"
         id="feComposite4510" /><feComposite
         k1="-1"
         in="fbSourceGraphic"
         result="result4"
         operator="arithmetic"
         k2="2.5"
         k3="3.5"
         in2="result2"
         id="feComposite4512"
         k4="0" /><feBlend
         mode="multiply"
         in2="result4"
         id="feBlend4514" /></filter><filter
       inkscape:label="Age"
       inkscape:menu="Image Effects"
       inkscape:menu-tooltip="Imitate aged photograph"
       style="color-interpolation-filters:sRGB"
       id="filter4550"><feColorMatrix
         type="saturate"
         in="SourceGraphic"
         values="0"
         id="feColorMatrix4538" /><feColorMatrix
         values="3 0 0 0 -0.3 0 3 0 0 -0.3 0 0 3 0 -0.3 0 0 0 1 0"
         result="result0"
         id="feColorMatrix4540" /><feTurbulence
         baseFrequency="0.111"
         numOctaves="2"
         type="fractalNoise"
         id="feTurbulence4542" /><feColorMatrix
         values="0 0 0 0 0 0 0 0 0 0 0 0 0 0 0 0 0 0 255 -200"
         id="feColorMatrix4544" /><feGaussianBlur
         stdDeviation="1"
         id="feGaussianBlur4546" /><feComposite
         in2="result0"
         operator="atop"
         id="feComposite4548" /></filter><filter
       inkscape:label="Film Grain"
       inkscape:menu="Image Effects"
       inkscape:menu-tooltip="Adds a small scale graininess"
       style="color-interpolation-filters:sRGB"
       id="filter4590"><feTurbulence
         type="turbulence"
         numOctaves="10"
         baseFrequency="0.56100000000000005"
         seed="0"
         result="result0"
         id="feTurbulence4580" /><feColorMatrix
         result="result4"
         values="0"
         type="saturate"
         id="feColorMatrix4582" /><feComposite
         in="SourceGraphic"
         in2="result4"
         operator="arithmetic"
         k1="0.15"
         k2="0.5"
         k3="0.5"
         result="result2"
         id="feComposite4584"
         k4="0" /><feBlend
         result="result5"
         mode="normal"
         in="result2"
         in2="SourceGraphic"
         id="feBlend4586" /><feComposite
         in="result5"
         in2="SourceGraphic"
         operator="in"
         result="result3"
         id="feComposite4588" /></filter><linearGradient
       id="linearGradient7542"
       inkscape:collect="always"><stop
         id="stop7544"
         offset="0"
         style="stop-color:#a7e0ee;stop-opacity:1;" /><stop
         id="stop7546"
         offset="1"
         style="stop-color:#a7e0ee;stop-opacity:0;" /></linearGradient><linearGradient
       id="linearGradient7175"
       inkscape:collect="always"><stop
         id="stop7177"
         offset="0"
         style="stop-color:#92fff9;stop-opacity:1;" /><stop
         id="stop7179"
         offset="1"
         style="stop-color:#92fff9;stop-opacity:0;" /></linearGradient><linearGradient
       osb:paint="solid"
       id="linearGradient7163"><stop
         id="stop7165"
         offset="0"
         style="stop-color:#92fff9;stop-opacity:1;" /></linearGradient><linearGradient
       gradientUnits="userSpaceOnUse"
       y2="540"
       x2="1909.7681"
       y1="540"
       x1="10.231934"
       id="linearGradient7181"
       xlink:href="#linearGradient7175"
       inkscape:collect="always" /><linearGradient
       gradientUnits="userSpaceOnUse"
       y2="540"
       x2="1188.0228"
       y1="540"
       x1="731.97723"
       id="linearGradient7548"
       xlink:href="#linearGradient7542"
       inkscape:collect="always" /><filter
       id="filter7665"
       inkscape:label="Drop Shadow"
       style="color-interpolation-filters:sRGB"><feFlood
         id="feFlood7667"
         result="flood"
         flood-color="rgb(0,0,14)"
         flood-opacity="0.541176" /><feComposite
         id="feComposite7669"
         result="composite1"
         operator="in"
         in2="SourceGraphic"
         in="flood" /><feGaussianBlur
         id="feGaussianBlur7671"
         result="blur"
         stdDeviation="5.4"
         in="composite1" /><feOffset
         id="feOffset7673"
         result="offset"
         dy="1.38778e-16"
         dx="8.32667e-17" /><feComposite
         id="feComposite7675"
         result="composite2"
         operator="over"
         in2="offset"
         in="SourceGraphic" /></filter><filter
       inkscape:label="Film Grain"
       inkscape:menu="Image Effects"
       inkscape:menu-tooltip="Adds a small scale graininess"
       style="color-interpolation-filters:sRGB"
       id="filter4577"><feTurbulence
         type="fractalNoise"
         numOctaves="1"
         baseFrequency="0.74199999999999999"
         seed="609"
         result="result0"
         id="feTurbulence4567" /><feColorMatrix
         result="result4"
         values="0"
         type="saturate"
         id="feColorMatrix4569" /><feComposite
         in="SourceGraphic"
         in2="result4"
         operator="arithmetic"
         k1="0.09"
         k2="0.5"
         k3="0.5"
         result="result2"
         id="feComposite4571"
         k4="0" /><feBlend
         result="result5"
         mode="normal"
         in="result2"
         in2="SourceGraphic"
         id="feBlend4573" /><feComposite
         in="result5"
         in2="SourceGraphic"
         operator="in"
         result="result3"
         id="feComposite4575" /></filter><filter
       inkscape:label="Film Grain"
       inkscape:menu="Image Effects"
       inkscape:menu-tooltip="Adds a small scale graininess"
       style="color-interpolation-filters:sRGB"
       id="filter4577-7"><feTurbulence
         type="fractalNoise"
         numOctaves="1"
         baseFrequency="0.74199999999999999"
         seed="609"
         result="result0"
         id="feTurbulence4567-9" /><feColorMatrix
         result="result4"
         values="0"
         type="saturate"
         id="feColorMatrix4569-7" /><feComposite
         k4="0"
         in="SourceGraphic"
         in2="result4"
         operator="arithmetic"
         k1="-1.31"
         k2="0.5"
         k3="0.5"
         result="result2"
         id="feComposite4571-4" /><feBlend
         result="result5"
         mode="normal"
         in="result2"
         in2="SourceGraphic"
         id="feBlend4573-9" /><feComposite
         in="result5"
         in2="SourceGraphic"
         operator="in"
         result="result3"
         id="feComposite4575-1" /></filter><circle
       style="opacity:1;fill:none;fill-opacity:0.86031745;stroke:#afe9c6;stroke-width:0.17539023;stroke-linecap:butt;stroke-linejoin:round;stroke-miterlimit:4;stroke-dasharray:none;stroke-dashoffset:15.55857372;stroke-opacity:0.24126988;paint-order:markers fill stroke"
       id="path4613"
       cx="449.45615"
       cy="-1039.0328"
       r="81.775696"
       transform="rotate(98.613442)" /><circle
       style="opacity:1;fill:none;fill-opacity:0.86031745;stroke:#afe9c6;stroke-width:0.17539023;stroke-linecap:butt;stroke-linejoin:round;stroke-miterlimit:4;stroke-dasharray:none;stroke-dashoffset:15.55857372;stroke-opacity:0.24126988;paint-order:markers fill stroke"
       id="path4613-6"
       cx="449.45615"
       cy="-1039.0328"
       r="81.775696"
       transform="rotate(98.613442)" /></defs><sodipodi:namedview
     pagecolor="#312d31"
     bordercolor="#b4bd0f"
     borderopacity="1"
     objecttolerance="10"
     gridtolerance="10"
     guidetolerance="10"
     inkscape:pageopacity="1"
     inkscape:pageshadow="2"
     inkscape:window-width="1908"
     inkscape:window-height="1090"
     id="namedview5553"
     showgrid="false"
     showguides="true"
     inkscape:zoom="1.4142136"
     inkscape:cx="131.37571"
     inkscape:cy="83.121449"
     inkscape:window-x="6"
     inkscape:window-y="46"
     inkscape:window-maximized="1"
     inkscape:current-layer="layer1"
     inkscape:showpageshadow="false"
     borderlayer="true"
     inkscape:pagecheckerboard="false"
     fit-margin-top="12"
     fit-margin-left="12"
     fit-margin-right="12"
     fit-margin-bottom="12"><inkscape:grid
       type="xygrid"
       id="grid6792"
       originx="-801.56235"
       originy="-442.37422" /></sodipodi:namedview><g
     inkscape:groupmode="layer"
     id="layer1"
     inkscape:label="fonts"
     style="display:inline"
     transform="translate(-801.56236,-441.62577)"><text
       xml:space="preserve"
       style="font-style:normal;font-weight:normal;font-size:20.29672241px;line-height:1.25;font-family:sans-serif;letter-spacing:22.09000015px;word-spacing:0px;display:inline;fill:#000000;fill-opacity:1;stroke:none;stroke-width:0.5074181"
       id="text4557"
       x="-813.36243"
       y="-452.39755"
       transform="translate(-335.40628,2.309532)"><textPath
         xlink:href="#path4613"
         id="textPath4615"
         style="font-style:normal;font-variant:normal;font-weight:normal;font-stretch:normal;font-size:97.42427826px;font-family:'Ostrich Sans Rounded';-inkscape-font-specification:'Ostrich Sans Rounded';letter-spacing:29.66000938px;fill:#afe9c6;fill-opacity:0.15873018;stroke-width:0.5074181">BLUE<tspan
   style="letter-spacing:22.81999397px"
   id="tspan4891">P</tspan>IL<tspan
   style="letter-spacing:22.10000038px"
   id="tspan5084">L</tspan><tspan
   dy="1.6038319"
   id="tspan4581"
   style="font-style:normal;font-variant:normal;font-weight:normal;font-stretch:normal;font-family:'Ostrich Sans Rounded';-inkscape-font-specification:'Ostrich Sans Rounded';letter-spacing:29.66000938px;fill:#afe9c6;fill-opacity:0.05882353;stroke-width:0.5074181">X</tspan></textPath></text>
<circle
       style="display:inline;opacity:1;fill:none;fill-opacity:0.86031745;stroke:#afe9c6;stroke-width:0.17539023;stroke-linecap:butt;stroke-linejoin:round;stroke-miterlimit:4;stroke-dasharray:none;stroke-dashoffset:15.55857372;stroke-opacity:0.24126988;paint-order:markers fill stroke"
       id="circle5248"
       cx="500.04813"
       cy="-707.26166"
       r="81.775696"
       transform="rotate(98.613442)" /><path
       inkscape:connector-curvature="0"
       id="path4647"
       style="font-style:normal;font-variant:normal;font-weight:normal;font-stretch:normal;font-size:97.42427826px;line-height:1.25;font-family:'Ostrich Sans Rounded';-inkscape-font-specification:'Ostrich Sans Rounded';letter-spacing:29.66000938px;word-spacing:0px;fill:#afe9c6;fill-opacity:0.15873018;stroke:none;stroke-width:0.5074181"
       d="m 946.76059,683.10871 c 1.00678,0.36724 1.29748,0.9918 0.93023,1.99858 l -21.46717,58.85072 c -0.26709,0.7322 -1.14147,1.13918 -1.96519,0.8387 l -8.6949,-3.17166 c -9.4271,-3.43875 -11.66749,-10.3745 -7.76133,-21.08295 1.93638,-5.30846 4.50367,-8.93494 7.57694,-10.8213 1.4408,-0.82258 2.74805,-1.27906 4.38801,-1.51047 -1.13917,-1.14147 -1.90362,-2.45735 -2.41824,-3.88951 -1.13688,-3.42211 -0.7662,-7.84985 1.20357,-13.24984 3.90615,-10.70846 10.08609,-14.57269 19.51318,-11.13394 z m -22.93157,58.31655 9.68193,-26.54232 -7.2305,-2.63749 c -7.59659,-2.77103 -12.11066,-0.0621 -15.54941,9.365 -3.47214,9.51863 -1.82063,14.3729 5.86748,17.17732 z m 10.71689,-29.3796 9.71531,-26.63384 -7.23049,-2.63749 c -7.68812,-2.80442 -12.07728,-0.15363 -15.54942,9.365 -3.47214,9.51862 -1.76249,14.4978 5.83411,17.26884 z" /><path
       inkscape:connector-curvature="0"
       id="path4649"
       style="font-style:normal;font-variant:normal;font-weight:normal;font-stretch:normal;font-size:97.42427826px;line-height:1.25;font-family:'Ostrich Sans Rounded';-inkscape-font-specification:'Ostrich Sans Rounded';letter-spacing:29.66000938px;word-spacing:0px;fill:#afe9c6;fill-opacity:0.15873018;stroke:none;stroke-width:0.5074181"
       d="m 895.46506,650.5027 c 0.49735,0.94927 0.29194,1.60682 -0.65733,2.10417 l -55.48909,29.07246 c -0.69038,0.36172 -1.61096,0.0741 -2.01788,-0.70254 -0.36171,-0.69038 -0.0741,-1.61096 0.61625,-1.97267 l 54.19463,-28.39425 -9.54011,-18.20871 c -0.40692,-0.77667 -0.11934,-1.69725 0.57104,-2.05896 0.94927,-0.49735 1.60683,-0.29193 2.10418,0.65733 z" /><path
       inkscape:connector-curvature="0"
       id="path4651"
       style="font-style:normal;font-variant:normal;font-weight:normal;font-stretch:normal;font-size:97.42427826px;line-height:1.25;font-family:'Ostrich Sans Rounded';-inkscape-font-specification:'Ostrich Sans Rounded';letter-spacing:29.66000938px;word-spacing:0px;fill:#afe9c6;fill-opacity:0.15873018;stroke:none;stroke-width:0.5074181"
       d="m 816.98577,579.18524 c -0.75261,-0.20254 -1.23393,-1.03831 -1.00606,-1.885 0.20254,-0.75262 1.03831,-1.23393 1.79092,-1.03139 l 46.47406,12.5071 c 5.64462,1.51908 9.12893,0.94342 11.42276,-0.45708 2.29382,-1.4005 3.209,-3.67647 3.79132,-5.84024 0.53167,-1.97562 0.90771,-4.49758 -0.37339,-6.86016 -1.28111,-2.36258 -4.00588,-4.60923 -9.6505,-6.12831 l -46.47406,-12.5071 c -0.75261,-0.20254 -1.23393,-1.03831 -1.03138,-1.79092 0.22786,-0.8467 1.06362,-1.32801 1.81624,-1.12547 l 46.47406,12.5071 c 6.39724,1.72162 9.82399,4.35897 11.42357,7.41261 1.69366,3.07895 1.5167,6.36072 0.73184,9.2771 -0.78485,2.91639 -2.25357,5.74963 -5.26376,7.56268 -2.91612,1.83838 -7.25432,2.5878 -13.65156,0.86618 z" /><path
       inkscape:connector-curvature="0"
       id="path4653"
       style="font-style:normal;font-variant:normal;font-weight:normal;font-stretch:normal;font-size:97.42427826px;line-height:1.25;font-family:'Ostrich Sans Rounded';-inkscape-font-specification:'Ostrich Sans Rounded';letter-spacing:29.66000938px;word-spacing:0px;fill:#afe9c6;fill-opacity:0.15873018;stroke:none;stroke-width:0.5074181"
       d="m 893.43239,511.15554 14.86548,24.14056 16.17666,-9.96141 c 0.74662,-0.45976 1.68491,-0.23664 2.09358,0.42701 0.56193,0.91253 0.40256,1.58274 -0.50997,2.14467 l -17.42102,10.72766 c -0.91253,0.56193 -1.58273,0.40256 -2.14466,-0.50997 l -32.84709,-53.3415 c -0.40867,-0.66366 -0.18556,-1.60195 0.56105,-2.0617 l 17.42102,-10.72767 c 0.74662,-0.45976 1.68491,-0.23664 2.09358,0.42701 0.56193,0.91253 0.40256,1.58274 -0.50997,2.14467 l -16.17666,9.9614 14.8144,24.0576 16.17666,-9.96141 c 0.91253,-0.56192 1.58273,-0.40256 2.14466,0.50997 0.40867,0.66366 0.18556,1.60195 -0.56106,2.06171 z" /><path
       inkscape:connector-curvature="0"
       id="path4655"
       style="font-style:normal;font-weight:normal;font-size:medium;line-height:1.25;font-family:sans-serif;letter-spacing:22.81999397px;word-spacing:0px;fill:#afe9c6;fill-opacity:0.15686275;stroke:none;stroke-width:0.5074181"
       d="m 975.87214,455.51174 c 0.15436,-0.76396 0.95788,-1.29736 1.81733,-1.12371 l 10.12242,2.04524 c 10.31341,2.08382 13.79741,8.45315 11.50129,19.817 -2.29606,11.36385 -7.97959,15.88089 -18.293,13.79707 l -8.59451,-1.73651 -5.90416,29.22132 c -0.21224,1.05044 -0.78618,1.43144 -1.83662,1.2192 -1.05044,-0.21224 -1.43144,-0.78618 -1.2192,-1.83662 z m 2.74711,2.14534 -5.59544,27.69341 8.5945,1.73652 c 8.30803,1.67864 12.63241,-1.52274 14.63905,-11.45417 2.00664,-9.93143 -0.64008,-14.54132 -9.0436,-16.23924 z" /><path
       inkscape:connector-curvature="0"
       id="path4657"
       style="font-style:normal;font-variant:normal;font-weight:normal;font-stretch:normal;font-size:97.42427826px;line-height:1.25;font-family:'Ostrich Sans Rounded';-inkscape-font-specification:'Ostrich Sans Rounded';letter-spacing:29.66000938px;word-spacing:0px;fill:#afe9c6;fill-opacity:0.15873018;stroke:none;stroke-width:0.5074181"
       d="m 1058.616,491.99892 c 0.5283,-0.57307 1.4919,-0.61229 2.1366,-0.018 0.6447,0.59428 0.6839,1.55793 0.1557,2.131 l -42.458,46.06047 c -0.7263,0.78797 -1.4147,0.81598 -2.2026,0.0896 -0.788,-0.72634 -0.816,-1.41466 -0.09,-2.20263 z" /><path
       inkscape:connector-curvature="0"
       id="path4659"
       style="font-style:normal;font-variant:normal;font-weight:normal;font-stretch:normal;font-size:97.42427826px;line-height:1.25;font-family:'Ostrich Sans Rounded';-inkscape-font-specification:'Ostrich Sans Rounded';letter-spacing:29.66000938px;word-spacing:0px;fill:#afe9c6;fill-opacity:0.15873018;stroke:none;stroke-width:0.5074181"
       d="m 1039.1729,571.36084 c -0.2401,-1.04442 0.1255,-1.6283 1.1699,-1.86841 l 61.0513,-14.03523 c 0.7596,-0.17462 1.577,0.33722 1.7735,1.19175 0.1746,0.75958 -0.3373,1.577 -1.0968,1.75163 l -59.6271,13.70781 4.6056,20.03394 c 0.1965,0.85453 -0.3153,1.67195 -1.0749,1.84658 -1.0444,0.2401 -1.6283,-0.1255 -1.8684,-1.16992 z" /><path
       inkscape:connector-curvature="0"
       id="path4661"
       style="font-style:normal;font-weight:normal;font-size:medium;line-height:1.25;font-family:sans-serif;letter-spacing:22.10000038px;word-spacing:0px;fill:#afe9c6;fill-opacity:0.15686275;stroke:none;stroke-width:0.5074181"
       d="m 1040.2339,629.16242 c 0.5025,-0.94653 1.1612,-1.14835 2.1077,-0.64581 l 55.3292,29.37558 c 0.6884,0.36548 0.971,1.28762 0.5598,2.06205 -0.3655,0.68839 -1.2876,0.97094 -1.976,0.60545 l -54.0385,-28.6903 -9.6396,18.15625 c -0.4111,0.77444 -1.3333,1.05698 -2.0216,0.6915 -0.9466,-0.50254 -1.1484,-1.16121 -0.6459,-2.10774 z" /><path
       inkscape:connector-curvature="0"
       id="path4663"
       style="font-style:normal;font-variant:normal;font-weight:normal;font-stretch:normal;font-size:medium;line-height:1.25;font-family:'Ostrich Sans Rounded';-inkscape-font-specification:'Ostrich Sans Rounded';letter-spacing:29.66000938px;word-spacing:0px;fill:#afe9c6;fill-opacity:0.05882353;stroke:none;stroke-width:0.5074181"
       d="m 1006.8778,705.60249 -25.31102,-22.56207 c -0.66444,-0.56377 -0.65034,-1.52318 -0.0866,-2.18762 0.0513,-0.12786 0.23054,-0.20437 0.49934,-0.31913 0.62719,-0.26779 1.18996,-0.19026 1.68828,0.23257 l 23.4073,20.83248 1.143,-31.31435 c 0.039,-0.65236 0.3725,-1.11243 0.91,-1.34196 0.2688,-0.11477 0.5376,-0.22953 0.6655,-0.17819 0.9977,0.10371 1.4446,0.65439 1.5201,1.57555 l -1.2999,33.92379 25.3623,22.43421 c 0.5749,0.60203 0.6886,1.61279 0.087,2.18763 -0.6151,0.79229 -1.3571,0.79128 -2.1494,0.17616 l -23.4073,-20.83249 -1.1429,31.31435 c -0.052,0.86982 -0.8336,1.52116 -1.6138,1.43055 -0.8316,0.0372 -1.5725,-0.70573 -1.5202,-1.57554 z" /><circle
       style="display:inline;opacity:1;fill:none;fill-opacity:0.86031745;stroke:#afe9c6;stroke-width:0.17539023;stroke-linecap:butt;stroke-linejoin:round;stroke-miterlimit:4;stroke-dasharray:none;stroke-dashoffset:15.55857372;stroke-opacity:0.24126988;paint-order:markers fill stroke"
       id="circle5248-2"
       cx="450.48312"
       cy="-1040.9832"
       r="81.775696"
       transform="rotate(98.613442)" /></g></svg>