<?xml version="1.0" encoding="UTF-8" standalone="no"?>
<!-- Generator: Adobe Illustrator 16.0.0, SVG Export Plug-In . SVG Version: 6.00 Build 0)  -->

<svg
   xmlns:osb="http://www.openswatchbook.org/uri/2009/osb"
   xmlns:dc="http://purl.org/dc/elements/1.1/"
   xmlns:cc="http://creativecommons.org/ns#"
   xmlns:rdf="http://www.w3.org/1999/02/22-rdf-syntax-ns#"
   xmlns:svg="http://www.w3.org/2000/svg"
   xmlns="http://www.w3.org/2000/svg"
   xmlns:xlink="http://www.w3.org/1999/xlink"
   xmlns:sodipodi="http://sodipodi.sourceforge.net/DTD/sodipodi-0.dtd"
   xmlns:inkscape="http://www.inkscape.org/namespaces/inkscape"
   version="1.1"
   id="root"
   x="0px"
   y="0px"
   width="1920px"
   height="1200px"
   viewBox="0 0 1920 1200"
   enable-background="new 0 0 1920 1200"
   xml:space="preserve"
   sodipodi:docname="stretchbangGrainWaveC.svg"
   inkscape:version="0.92.1 r15371"
   inkscape:export-filename="/home/ticho/images/wallpapers/skyPng.png"
   inkscape:export-xdpi="96"
   inkscape:export-ydpi="96"><metadata
     id="metadata5557"><rdf:RDF><cc:Work
         rdf:about=""><dc:format>image/svg+xml</dc:format><dc:type
           rdf:resource="http://purl.org/dc/dcmitype/StillImage" /><dc:title></dc:title></cc:Work></rdf:RDF></metadata><defs
     id="defs5555"><linearGradient
       id="linearGradient8457"
       osb:paint="solid"><stop
         style="stop-color:#ffffff;stop-opacity:1;"
         offset="0"
         id="stop8455" /></linearGradient><filter
       inkscape:label="Eroded Metal"
       inkscape:menu="Materials"
       inkscape:menu-tooltip="Eroded metal texture with ridges, grooves, holes and bumps"
       style="color-interpolation-filters:sRGB;"
       id="filter4516"><feGaussianBlur
         result="result0"
         in="SourceGraphic"
         stdDeviation="1"
         id="feGaussianBlur4492" /><feTurbulence
         type="turbulence"
         baseFrequency="0.057"
         seed="4"
         numOctaves="4"
         result="result1"
         id="feTurbulence4494" /><feDisplacementMap
         xChannelSelector="R"
         in2="result1"
         result="result91"
         id="feDisplacementMap4496" /><feComposite
         result="result2"
         operator="out"
         in="result0"
         in2="result91"
         id="feComposite4498" /><feComposite
         k1="0.1"
         k3="1.2"
         in2="result2"
         in="SourceAlpha"
         operator="arithmetic"
         result="result5"
         id="feComposite4500" /><feBlend
         result="fbSourceGraphic"
         mode="multiply"
         in2="result5"
         id="feBlend4502" /><feGaussianBlur
         stdDeviation="3"
         in="fbSourceGraphic"
         result="result0"
         id="feGaussianBlur4504" /><feSpecularLighting
         in="result0"
         result="result1"
         lighting-color="rgb(254,230,93)"
         surfaceScale="3"
         specularConstant="0.4"
         specularExponent="15"
         id="feSpecularLighting4508"><fePointLight
           x="-5000"
           y="-10000"
           z="20000"
           id="fePointLight4506" /></feSpecularLighting><feComposite
         in2="fbSourceGraphic"
         in="result1"
         result="result2"
         operator="in"
         id="feComposite4510" /><feComposite
         k1="-1"
         in="fbSourceGraphic"
         result="result4"
         operator="arithmetic"
         k2="2.5"
         k3="3.5"
         in2="result2"
         id="feComposite4512" /><feBlend
         mode="multiply"
         in2="result4"
         id="feBlend4514" /></filter><filter
       inkscape:label="Age"
       inkscape:menu="Image Effects"
       inkscape:menu-tooltip="Imitate aged photograph"
       style="color-interpolation-filters:sRGB;"
       id="filter4550"><feColorMatrix
         type="saturate"
         in="SourceGraphic"
         values="0"
         id="feColorMatrix4538" /><feColorMatrix
         values="3 0 0 0 -0.3 0 3 0 0 -0.3 0 0 3 0 -0.3 0 0 0 1 0"
         result="result0"
         id="feColorMatrix4540" /><feTurbulence
         baseFrequency="0.111"
         numOctaves="2"
         type="fractalNoise"
         id="feTurbulence4542" /><feColorMatrix
         values="0 0 0 0 0 0 0 0 0 0 0 0 0 0 0 0 0 0 255 -200"
         id="feColorMatrix4544" /><feGaussianBlur
         stdDeviation="1"
         id="feGaussianBlur4546" /><feComposite
         in2="result0"
         operator="atop"
         id="feComposite4548" /></filter><filter
       inkscape:label="Film Grain"
       inkscape:menu="Image Effects"
       inkscape:menu-tooltip="Adds a small scale graininess"
       style="color-interpolation-filters:sRGB;"
       id="filter4590"><feTurbulence
         type="turbulence"
         numOctaves="10"
         baseFrequency="0.56100000000000005"
         seed="0"
         result="result0"
         id="feTurbulence4580" /><feColorMatrix
         result="result4"
         values="0"
         type="saturate"
         id="feColorMatrix4582" /><feComposite
         in="SourceGraphic"
         in2="result4"
         operator="arithmetic"
         k1="0.15000000000001065"
         k2="0.5"
         k3="0.5"
         result="result2"
         id="feComposite4584" /><feBlend
         result="result5"
         mode="normal"
         in="result2"
         in2="SourceGraphic"
         id="feBlend4586" /><feComposite
         in="result5"
         in2="SourceGraphic"
         operator="in"
         result="result3"
         id="feComposite4588" /></filter><linearGradient
       id="linearGradient7542"
       inkscape:collect="always"><stop
         id="stop7544"
         offset="0"
         style="stop-color:#a7e0ee;stop-opacity:1;" /><stop
         id="stop7546"
         offset="1"
         style="stop-color:#a7e0ee;stop-opacity:0;" /></linearGradient><linearGradient
       id="linearGradient7175"
       inkscape:collect="always"><stop
         id="stop7177"
         offset="0"
         style="stop-color:#92fff9;stop-opacity:1;" /><stop
         id="stop7179"
         offset="1"
         style="stop-color:#92fff9;stop-opacity:0;" /></linearGradient><linearGradient
       osb:paint="solid"
       id="linearGradient7163"><stop
         id="stop7165"
         offset="0"
         style="stop-color:#92fff9;stop-opacity:1;" /></linearGradient><linearGradient
       gradientUnits="userSpaceOnUse"
       y2="540"
       x2="1909.7681"
       y1="540"
       x1="10.231934"
       id="linearGradient7181"
       xlink:href="#linearGradient7175"
       inkscape:collect="always" /><linearGradient
       gradientUnits="userSpaceOnUse"
       y2="540"
       x2="1188.0228"
       y1="540"
       x1="731.97723"
       id="linearGradient7548"
       xlink:href="#linearGradient7542"
       inkscape:collect="always" /><filter
       id="filter7665"
       inkscape:label="Drop Shadow"
       style="color-interpolation-filters:sRGB"><feFlood
         id="feFlood7667"
         result="flood"
         flood-color="rgb(0,0,14)"
         flood-opacity="0.541176" /><feComposite
         id="feComposite7669"
         result="composite1"
         operator="in"
         in2="SourceGraphic"
         in="flood" /><feGaussianBlur
         id="feGaussianBlur7671"
         result="blur"
         stdDeviation="5.4"
         in="composite1" /><feOffset
         id="feOffset7673"
         result="offset"
         dy="1.38778e-16"
         dx="8.32667e-17" /><feComposite
         id="feComposite7675"
         result="composite2"
         operator="over"
         in2="offset"
         in="SourceGraphic" /></filter><filter
       inkscape:label="Film Grain"
       inkscape:menu="Image Effects"
       inkscape:menu-tooltip="Adds a small scale graininess"
       style="color-interpolation-filters:sRGB;"
       id="filter4577"><feTurbulence
         type="fractalNoise"
         numOctaves="1"
         baseFrequency="0.74199999999999999"
         seed="609"
         result="result0"
         id="feTurbulence4567" /><feColorMatrix
         result="result4"
         values="0"
         type="saturate"
         id="feColorMatrix4569" /><feComposite
         in="SourceGraphic"
         in2="result4"
         operator="arithmetic"
         k1="0.090000000000000246"
         k2="0.5"
         k3="0.5"
         result="result2"
         id="feComposite4571" /><feBlend
         result="result5"
         mode="normal"
         in="result2"
         in2="SourceGraphic"
         id="feBlend4573" /><feComposite
         in="result5"
         in2="SourceGraphic"
         operator="in"
         result="result3"
         id="feComposite4575" /></filter><filter
       inkscape:label="Film Grain"
       inkscape:menu="Image Effects"
       inkscape:menu-tooltip="Adds a small scale graininess"
       style="color-interpolation-filters:sRGB"
       id="filter4577-7"><feTurbulence
         type="fractalNoise"
         numOctaves="1"
         baseFrequency="0.74199999999999999"
         seed="609"
         result="result0"
         id="feTurbulence4567-9" /><feColorMatrix
         result="result4"
         values="0"
         type="saturate"
         id="feColorMatrix4569-7" /><feComposite
         k4="0"
         in="SourceGraphic"
         in2="result4"
         operator="arithmetic"
         k1="-1.31"
         k2="0.5"
         k3="0.5"
         result="result2"
         id="feComposite4571-4" /><feBlend
         result="result5"
         mode="normal"
         in="result2"
         in2="SourceGraphic"
         id="feBlend4573-9" /><feComposite
         in="result5"
         in2="SourceGraphic"
         operator="in"
         result="result3"
         id="feComposite4575-1" /></filter></defs><sodipodi:namedview
     pagecolor="#ffffff"
     bordercolor="#b4bd0f"
     borderopacity="1"
     objecttolerance="10"
     gridtolerance="10"
     guidetolerance="10"
     inkscape:pageopacity="0"
     inkscape:pageshadow="2"
     inkscape:window-width="1920"
     inkscape:window-height="1077"
     id="namedview5553"
     showgrid="false"
     showguides="true"
     inkscape:zoom="1.4142136"
     inkscape:cx="937.27816"
     inkscape:cy="651.21918"
     inkscape:window-x="0"
     inkscape:window-y="46"
     inkscape:window-maximized="1"
     inkscape:current-layer="layer2"
     inkscape:showpageshadow="false"
     borderlayer="true"><inkscape:grid
       type="xygrid"
       id="grid6792" /></sodipodi:namedview><rect
     style="display:inline;opacity:1;fill:#15344b;fill-opacity:1;fill-rule:nonzero;stroke:none;stroke-width:6.4609189;stroke-linecap:butt;stroke-linejoin:miter;stroke-miterlimit:0;stroke-dasharray:12.92183756, 6.4609188, 3.23045939, 6.4609188;stroke-dashoffset:0;stroke-opacity:1;paint-order:normal"
     id="rect8713-7"
     width="1986.4392"
     height="1258.74"
     x="-1969.2197"
     y="-1245.37"
     transform="scale(-1)"
     inkscape:label="back rect" /><rect
     style="display:inline;opacity:0.61627909;fill:#15344b;fill-opacity:1;fill-rule:nonzero;stroke:none;stroke-width:6.24815035;stroke-linecap:butt;stroke-linejoin:miter;stroke-miterlimit:0;stroke-dasharray:12.49630089, 6.24815046, 3.12407522, 6.24815046;stroke-dashoffset:0;stroke-opacity:1;paint-order:normal;filter:url(#filter4577)"
     id="rect8713"
     width="1927.0422"
     height="1213.4851"
     x="-1928.9159"
     y="-1207.4669"
     transform="matrix(-1.0220682,0,0,-1.0212836,-29.848714,-19.229199)"
     inkscape:label="grain rect" /><g
     inkscape:groupmode="layer"
     id="layer4"
     inkscape:label="back" /><g
     inkscape:groupmode="layer"
     id="layer2"
     inkscape:label="stuff"><path
       style="opacity:0.82558139;fill:#550000;fill-opacity:1;filter:url(#filter4577)"
       d="m 1078.4585,802.5 c 2e-4,-23.65 0.131,-33.1821 0.2906,-21.1823 0.1597,11.9997 0.1595,31.3497 -4e-4,43 -0.1598,11.6502 -0.2905,1.8323 -0.2902,-21.8177 z m 170.7821,-71.91667 c -0.1323,-61.55416 -0.5479,-111.60933 -0.9236,-111.23371 -0.3756,0.37563 -0.9695,44.43813 -1.3199,97.91667 l -0.6369,97.23371 -0.4217,-77.5 -0.4217,-77.5 -0.5168,86 -0.5168,86 -0.2416,-102.75 C 1244.0825,661.07775 1243.6586,626 1243,626 c -0.6581,0 -1.083,32.91183 -1.2427,96.25 l -0.2428,96.25 -0.5014,-66.5 -0.5014,-66.5 -0.5153,76 -0.5153,76 -0.2405,-99.75 C 1239.0822,672.07704 1238.6584,638 1238,638 c -0.6576,0 -1.0831,31.41183 -1.2427,91.75 l -0.2428,91.75 -0.5014,-66.5 -0.5014,-66.5 -0.5153,76 -0.5153,76 -0.3741,-109 c -0.2058,-59.95 -0.7247,-106.75 -1.153,-104 -0.4283,2.75 -0.9261,39.65 -1.1061,82 l -0.3273,77 L 1231,717 l -0.5205,-69.5 -0.4151,78 -0.4151,78 -0.6748,-98.26682 c -0.3711,-54.04676 -0.9672,-98.55926 -1.3247,-98.91667 -0.3574,-0.35741 -0.755,34.18766 -0.8837,76.76682 C 1226.5613,750.8842 1226.4662,755.159 1226,717.5 l -0.5323,-43 -0.3965,38.5 -0.3966,38.5 -0.7905,-56.97148 c -0.4347,-31.33431 -0.9645,-58.33431 -1.1772,-60 -0.2128,-1.66569 -0.4588,17.42398 -0.5469,42.42148 -0.1174,33.3394 -0.4562,45.15383 -1.2715,44.33851 -1.098,-1.09798 -2.7209,-35.55692 -2.8354,-60.20518 -0.029,-6.27916 -0.3906,-11.07957 -0.8031,-10.66756 -0.4125,0.41201 -0.993,24.67451 -1.2901,53.91667 l -0.54,53.16756 -0.4014,-46.5 c -0.2222,-25.74866 -0.6767,-42.26048 -1.0185,-37 l -0.6172,9.5 -0.1914,-12.10331 c -0.1053,-6.65682 -0.5289,-14.98182 -0.9414,-18.5 -0.4125,-3.51818 -0.9789,31.17831 -1.2586,77.10331 l -0.5086,83.5 -0.4613,-86 C 1209.7533,677.49707 1209.3257,650.49927 1209,663 l -0.5602,21.5 -0.2352,-19 c -0.1294,-10.45 -0.6714,-19.675 -1.2046,-20.5 -0.6312,-0.97675 -1.0583,27.27891 -1.2243,81 l -0.255,82.5 -0.5137,-69 c -0.442,-59.37096 -0.585,-64.39481 -1.0245,-36 l -0.5108,33 -0.3932,-50 c -0.2253,-28.64735 -0.7,-47.01063 -1.1116,-43 -0.3952,3.85 -0.882,40.3 -1.0819,81 l -0.3634,74 -0.5216,-66 c -0.4598,-58.17948 -0.5698,-61.73426 -0.9285,-30 l -0.407,36 -0.7086,-41.29301 c -0.3897,-22.71115 -0.9892,-41.57365 -1.3322,-41.91666 -0.343,-0.34302 -0.7321,39.83884 -0.8647,89.293 L 1195.5181,834.5 1195.0052,755 c -0.4921,-76.29051 -0.5333,-77.68331 -1.0196,-34.5 l -0.5067,45 -0.3391,-61 c -0.1866,-33.55 -0.6994,-62.125 -1.1398,-63.5 -0.4403,-1.375 -0.9531,33.95 -1.1395,78.5 l -0.3389,81 -0.5162,-66 -0.5163,-66 -0.5053,44 c -0.5025,43.7512 -0.5067,43.63 -0.7446,-21.41667 -0.1315,-35.97916 -0.5767,-65.07921 -0.9892,-64.66677 -0.4125,0.41244 -1.0003,41.77494 -1.3063,91.91667 l -0.5562,91.16677 -0.4323,-79.5 -0.4323,-79.5 -0.5229,62 -0.5229,62 -0.3569,-72 c -0.1962,-39.6 -0.7003,-73.35 -1.1202,-75 -0.4198,-1.65 -0.9252,35.925 -1.1229,83.5 l -0.3595,86.5 -0.5143,-82 -0.5142,-82 -0.5012,72 -0.5013,72 -0.2433,-72.91667 c -0.1338,-40.10416 -0.5808,-72.57949 -0.9933,-72.16739 -0.4125,0.4121 -0.9855,26.9246 -1.2734,58.91667 l -0.5234,58.16739 -0.4672,-59.5 -0.4671,-59.5 -0.5189,76 -0.5189,76 -0.2405,-74.41667 c -0.1323,-40.92916 -0.5781,-74.07952 -0.9906,-73.66745 -0.4125,0.41206 -0.9871,26.92456 -1.277,58.91666 L 1170.4461,751.5 1169.9824,693 1169.5188,634.5 1169,711 l -0.5187,76.5 -0.2407,-76.41667 c -0.1323,-42.02916 -0.5781,-76.07956 -0.9906,-75.66755 -0.4125,0.41202 -0.9908,25.79952 -1.2851,56.41667 l -0.5352,55.66755 -0.4557,-57 -0.4557,-57 -0.5183,78.5 -0.5183,78.5 -0.2562,-74.5 c -0.1669,-48.55646 -0.5937,-73.97765 -1.2255,-73 -0.5995,0.92767 -1.0673,31.83336 -1.2262,81 l -0.2567,79.5 L 1160,719 l -0.517,-84.5 -0.4549,77.5 -0.455,77.5 -0.5365,-77.16728 c -0.2951,-42.44201 -0.8741,-77.50451 -1.2866,-77.91667 -0.4125,-0.41216 -0.8583,34.53812 -0.9907,77.66728 L 1155.5185,790.5 1155,713 l -0.5185,-77.5 -0.4042,72 -0.4042,72 -0.7937,-69.98792 c -0.4366,-38.49335 -0.953,-72.46835 -1.1475,-75.5 -0.1946,-3.03164 -0.547,28.46292 -0.7831,69.98792 l -0.4294,75.5 -0.5194,-74 -0.5194,-74 -0.4025,65.5 -0.4025,65.5 -0.7917,-54 c -1.1469,-78.22104 -1.4251,-78.80044 -1.9209,-4 l -0.4441,67 -0.5189,-76 -0.5189,-76 -0.4039,80.5 -0.404,80.5 -0.7916,-68.3528 c -0.4353,-37.59404 -0.9501,-71.11904 -1.1439,-74.5 -0.1938,-3.38096 -0.5473,26.0278 -0.7855,65.3528 L 1140.519,774.5 1140,699 c -0.4798,-69.79895 -0.5512,-72.25304 -0.9457,-32.5 -0.4602,46.36488 -0.5061,45.94003 -2.1593,-20 -0.2069,-8.25 -0.6096,19.2 -0.895,61 l -0.5189,76 -0.4806,-79 -0.4806,-79 -0.5199,72 -0.5199,72 -0.24,-68.91667 c -0.1321,-37.90416 -0.4937,-68.66307 -0.8036,-68.35313 -0.31,0.30995 -0.9108,33.12245 -1.3351,72.91667 l -0.7716,72.35313 -0.401,-78.5 -0.401,-78.5 -0.5278,50.5 -0.5278,50.5 -0.4203,-38.5 -0.4203,-38.5 -0.6845,23 c -0.3765,12.65 -0.8428,28.175 -1.0363,34.5 -0.2802,9.15853 -0.4656,7.02067 -0.9108,-10.5 l -0.559,-22 -0.4572,34.5 -0.4572,34.5 -0.5266,-53 -0.5266,-53 -0.4624,40.5 -0.4625,40.5 L 1121,686 l -0.5485,-27.5 -0.3441,39.5 c -0.1892,21.725 -0.6875,40.85 -1.1074,42.5 -0.4198,1.65 -0.9223,-17.7 -1.1165,-43 l -0.3532,-46 -0.5303,46 -0.5303,46 -0.4734,-58 -0.4734,-58 -0.5229,62 c -0.4981,59.05654 -0.5384,60.12473 -0.8491,22.5 -0.1793,-21.725 -0.6766,-41.75 -1.1049,-44.5 -0.4424,-2.84046 -0.9402,19.40277 -1.1526,51.5 l -0.3738,56.5 -0.5196,-73 -0.5196,-73 -0.4384,86.5 -0.4384,86.5 -0.5518,-74.16702 c -0.3035,-40.79185 -0.8893,-74.50435 -1.3018,-74.91666 -0.4125,-0.41231 -0.8584,30.71285 -0.991,69.16701 L 1106.5181,792.5 1106,713 l -0.5181,-79.5 -0.4796,68.5 -0.4796,68.5 L 1104,708 c -0.2875,-34.375 -0.6301,-51.8493 -0.7614,-38.83179 -0.1312,13.01752 -0.5761,24.49252 -0.9886,25.5 -0.4125,1.00749 -0.9883,-8.06821 -1.2795,-20.16821 -0.503,-20.89855 -0.5523,-20.07246 -0.9848,16.5 l -0.4554,38.5 -0.5303,-46 -0.5303,-46 -0.4631,33 -0.4631,33 -0.5435,-31 c -0.445,-25.38268 -0.6194,-18.49692 -0.9622,38 -0.3645,60.0889 -0.505,65.1902 -1.0875,39.5 -0.368,-16.225 -0.8405,-45.925 -1.05,-66 -0.2993,-28.6711 -0.4924,-20.52046 -0.9003,38 l -0.5192,74.5 -0.4798,-75 -0.4797,-75 -0.5213,67 -0.5213,67 -0.2393,-66.80902 C 1090.0809,669.46654 1089.662,647.09089 1089,647.5 c -0.6485,0.40079 -1.0839,26.52066 -1.2388,74.30902 l -0.2388,73.69098 -0.5175,-63.5 -0.5174,-63.5 -0.5037,48 -0.5037,48 -0.4186,-68 c -0.2984,-48.46256 -0.6188,-62.82832 -1.1153,-50 -0.3831,9.9 -0.8517,33.975 -1.0413,53.5 -0.3341,34.41121 -0.3619,34.84059 -0.9049,14 -0.5175,-19.86113 -0.5953,-18.41283 -1.0207,19 -0.4122,36.2468 -0.515,32.4661 -0.9793,-36 l -0.5187,-76.5 -0.4733,69.5 c -0.3399,49.91305 -0.6157,62.03159 -0.9786,43 l -0.5053,-26.5 -0.5326,33 -0.5326,33 -0.3614,-49 c -0.1988,-26.95 -0.6682,-61.15 -1.0432,-76 -0.4774,-18.90406 -0.8097,4.33429 -1.1084,77.5 l -0.4267,104.5 -0.5148,-74.5 -0.5148,-74.5 -0.5037,54 -0.5036,54 -0.3562,-74.5 c -0.2049,-42.878 -0.7073,-72.80217 -1.1835,-70.5 -0.455,2.2 -0.953,33.925 -1.1066,70.5 -0.1789,42.6092 -0.475,58.237 -0.8242,43.5 l -0.545,-23 -0.5074,18.5 c -0.2791,10.175 -0.7183,-14.125 -0.976,-54 l -0.4686,-72.5 -0.5148,98 -0.5148,98 -0.4801,-71 -0.4801,-71 -0.525,56.5 -0.525,56.5 -0.3372,-77.5 c -0.1854,-42.625 -0.6974,-76.375 -1.1378,-75 -0.4403,1.375 -0.9518,42.775 -1.1365,92 -0.31,82.5829 -0.3763,85.5584 -0.8585,38.5 l -0.5226,-51 -0.5012,47.5 c -0.4307,40.813 -0.5689,33.7741 -0.9816,-50 L 1056.5192,620.5 1056,695 c -0.3268,46.8838 -0.6962,65.4182 -0.9967,50 -0.3829,-19.65055 -0.5815,-13.71245 -1.0033,30 -0.5099,52.8479 -0.5366,51.7717 -0.8812,-35.5 -0.1955,-49.5 -0.6989,-91.35 -1.1188,-93 -0.4198,-1.65 -0.924,40.2 -1.1202,93 l -0.3569,96 -0.5229,-62 -0.5229,-62 -0.4801,51.5 c -0.4763,51.1015 -0.484,50.8423 -0.997,-33.5 l -0.5169,-85 -0.4781,69.5 -0.478,69.5 -0.527,-52 -0.527,-52 -0.4269,58.5 -0.4268,58.5 -0.5596,-55.16677 c -0.3078,-30.34173 -0.8972,-55.50423 -1.3097,-55.91667 -0.4125,-0.41244 -0.854,7.76261 -0.9812,18.16677 -0.1563,12.78478 -0.4055,7.0851 -0.7688,-17.58333 -0.5307,-36.0369 -0.5435,-35.71971 -1.0045,25 l -0.4669,61.5 -0.5286,-49 c -0.4545,-42.13552 -0.5942,-45.56776 -0.997,-24.5 -0.4627,24.19923 -0.475,24.00895 -1.003,-15.5 l -0.5345,-40 -0.4465,47 c -0.2456,25.85 -0.5484,41.825 -0.6729,35.5 -0.6156,-31.26708 -2.6629,-85.96075 -3.3502,-89.5 -0.6012,-3.09573 -0.8183,-1.6263 -0.9605,6.5 -0.3813,21.79983 -1.6082,18.96751 -1.8632,-4.30162 -0.1435,-13.09089 -0.691,-24.93269 -1.2166,-26.3151 -0.5256,-1.38241 -0.9625,-4.17168 -0.9709,-6.19838 -0.01,-2.5261 -0.2935,-3.24562 -0.8998,-2.28802 -0.7142,1.12792 -1.1426,0.98351 -2.2252,-0.75 -1.8886,-3.024 -2.8406,-2.67135 -2.978,1.10312 l -0.1183,3.25 -0.7634,-3 c -0.7492,-2.94444 -0.7682,-2.92592 -1.0236,1 l -0.2602,4 -0.7162,-4 c -0.6548,-3.65729 -0.7369,-3.74297 -0.9578,-1 -0.2395,2.97386 -0.2485,2.97822 -1.0422,0.5 l -0.8006,-2.5 -0.1857,2.5 c -0.1783,2.40205 -0.2226,2.38246 -1.129,-0.5 -0.5188,-1.65 -0.6372,-5.025 -0.263,-7.5 0.5903,-3.90459 0.7724,-4.16922 1.3766,-2 l 0.6964,2.5 0.5165,-2.5 c 0.49,-2.37211 0.5307,-2.34653 0.7945,0.5 0.2574,2.77686 0.3314,2.70248 0.9943,-1 l 0.7162,-4 0.2602,4 c 0.2554,3.92592 0.2744,3.94444 1.0236,1 l 0.7634,-3 0.1183,3.25 c 0.1374,3.77447 1.0894,4.12712 2.978,1.10312 1.0826,-1.73351 1.511,-1.87792 2.2252,-0.75 0.5927,0.93609 0.8895,-0.0268 0.8998,-2.91886 0.01,-2.37366 0.4449,-5.11847 0.97,-6.09959 0.5251,-0.98112 1.0725,-12.53903 1.2165,-25.68426 0.2559,-23.35468 1.4739,-26.21736 1.8723,-4.40041 0.4615,25.27195 2.5147,-12.65014 4.3043,-79.5 0.1325,-4.95 0.4382,10.8 0.6793,35 l 0.4384,44 0.5345,-40 c 0.528,-39.50895 0.5403,-39.69923 1.003,-15.5 0.4028,21.06776 0.5425,17.63552 0.997,-24.5 l 0.5286,-49 0.4669,61.5 c 0.461,60.71971 0.4738,61.0369 1.0045,25 0.3633,-24.66843 0.6125,-30.36811 0.7688,-17.58333 0.1272,10.40416 0.5687,18.57921 0.9812,18.16677 0.4125,-0.41244 1.0019,-25.57494 1.3097,-55.91667 l 0.5596,-55.16677 0.4268,58.5 0.4269,58.5 0.527,-52 0.527,-52 0.4776,69 0.4776,69 0.5178,-81 c 0.5027,-78.63885 0.5317,-79.61537 0.9974,-33.5 l 0.4797,47.5 0.5229,-62 0.5229,-62 0.3382,96 c 0.1861,52.8 0.6986,94.875 1.1389,93.5 0.4404,-1.375 0.9522,-43 1.1374,-92.5 0.3247,-86.78263 0.3555,-88.05171 0.8626,-35.5 0.4218,43.71245 0.6204,49.65055 1.0033,30 0.3005,-15.41816 0.6699,3.1162 0.9967,50 l 0.5192,74.5 0.4804,-97.5 c 0.4127,-83.77408 0.5509,-90.81301 0.9816,-50 l 0.5012,47.5 0.5226,-51 c 0.4822,-47.05838 0.5485,-44.08285 0.8585,38.5 0.1847,49.225 0.6962,90.625 1.1365,92 0.4404,1.375 0.9524,-32.375 1.1378,-75 l 0.3372,-77.5 0.525,56.5 0.525,56.5 0.4801,-71 0.4801,-71 0.5148,97.5 0.5149,97.5 0.4685,-72 c 0.2577,-39.6 0.6969,-63.675 0.976,-53.5 l 0.5074,18.5 0.545,-23 c 0.3492,-14.737 0.6453,0.89085 0.8242,43.5 0.1536,36.575 0.6516,68.3 1.1066,70.5 0.4762,2.30216 0.9785,-27.62222 1.1835,-70.5 l 0.356,-74.5 0.5037,53.5 0.5037,53.5 0.5149,-74 0.515,-74 0.4265,104.5 c 0.2987,73.16443 0.6311,96.40373 1.1084,77.5 0.375,-14.85 0.8444,-49.05 1.0432,-76 l 0.3614,-49 0.5411,33 0.5412,33 0.4691,-26.5 c 0.329,-18.58453 0.6246,-5.74056 0.9897,43 l 0.5206,69.5 0.3751,-75 c 0.2063,-41.25 0.6643,-82.2 1.0177,-91 0.3534,-8.8 0.5826,8.525 0.5094,38.5 -0.083,33.85121 0.1074,46.54359 0.5021,33.5 0.6266,-20.71193 0.64,-20.51302 0.977,14.5 0.188,19.525 0.6572,43.375 1.0428,53 0.4974,12.41511 0.8223,-2.11315 1.1183,-50 l 0.4171,-67.5 0.5037,48 0.5037,48 0.5174,-63.5 0.5175,-63.5 0.2388,73.69098 c 0.1549,47.78836 0.5903,73.90823 1.2388,74.30902 0.662,0.40911 1.0809,-21.96654 1.2394,-66.19098 l 0.2393,-66.80902 0.5213,67 0.5213,67 0.4797,-75 0.4796,-75 0.5194,74 c 0.4052,57.73836 0.6031,66.08893 0.9003,38 0.2096,-19.8 0.682,-49.275 1.05,-65.5 0.5845,-25.77868 0.7217,-20.85898 1.0872,39 0.3406,55.77245 0.5194,62.83299 0.9625,38 l 0.5442,-30.5 0.4627,33 0.4628,33 0.5303,-46 0.5303,-46 0.4554,38.5 c 0.4325,36.57246 0.4818,37.39855 0.9848,16.5 0.2912,-12.1 0.867,-21.1757 1.2795,-20.16821 0.4125,1.00748 0.8574,12.48248 0.9886,25.5 C 1103.3699,543.8493 1103.7125,526.375 1104,492 l 0.5227,-62.5 0.4796,68.5 0.4796,68.5 0.5181,-79.5 0.5181,-79.5 0.2409,69.91667 c 0.1326,38.45416 0.5785,69.57932 0.991,69.16701 0.4125,-0.41231 0.9983,-34.12481 1.3018,-74.91666 l 0.5518,-74.16702 0.4384,86.5 0.4384,86.5 0.5196,-73 0.5196,-73 0.3738,56.5 c 0.2124,32.09723 0.7102,54.34046 1.1526,51.5 0.4283,-2.75 0.9256,-22.775 1.1049,-44.5 0.3107,-37.62473 0.351,-36.55654 0.8491,22.5 l 0.5229,62 0.4734,-58 0.4734,-58 0.5303,46 0.5303,46 0.3532,-46 c 0.1942,-25.3 0.6967,-44.65 1.1165,-43 0.4199,1.65 0.918,20.55 1.1071,42 l 0.3436,39 0.5493,-27 0.5493,-27 0.4621,40.5 0.462,40.5 0.5266,-53 0.5266,-53 0.4572,34.5 0.4572,34.5 0.559,-22 c 0.4452,-17.52067 0.6306,-19.65853 0.9108,-10.5 0.1935,6.325 0.6598,21.85 1.0363,34.5 0.6208,20.8604 0.7238,18.34871 1.1073,-27 l 0.4227,-50 0.5229,62 0.5229,62 0.4035,-78.5 0.4034,-78.5 0.7716,72.35313 c 0.4243,39.79422 1.0251,72.60672 1.3351,72.91667 0.3099,0.30994 0.6715,-30.44897 0.8036,-68.35313 l 0.24,-68.91667 0.5199,72 0.5199,72 0.4806,-79 0.4806,-79 0.5189,76 c 0.2854,41.8 0.689,69.25 0.897,61 1.7109,-67.87601 1.6922,-67.69824 2.1563,-20.5 0.3991,40.58724 0.4625,38.44453 0.9467,-32 l 0.519,-75.5 0.4296,71 c 0.2363,39.05 0.5894,68.49772 0.7847,65.43937 0.1954,-3.05835 0.7118,-36.35835 1.1475,-74 l 0.7924,-68.43937 0.4039,80 0.4039,80 0.519,-75.5 0.519,-75.5 0.4461,67 c 0.4949,74.31627 0.7554,73.70469 1.9166,-4.5 l 0.7944,-53.5 0.4023,65.5 0.4024,65.5 0.5192,-74.5 0.5192,-74.5 0.4295,76 c 0.2362,41.8 0.5886,73.51956 0.7832,70.48792 0.1945,-3.03165 0.7109,-37.00665 1.1475,-75.5 l 0.7937,-69.98792 0.4042,72 0.4042,72 0.5185,-77.5 0.5185,-77.5 0.2408,77.91667 c 0.1324,42.85416 0.5782,77.57945 0.9907,77.16729 0.4125,-0.41215 0.9904,-35.24965 1.2843,-77.41666 l 0.5343,-76.6673 0.4572,77.5 0.4572,77.5 0.517,-84.5 0.5171,-84.5 0.2567,79.5 c 0.1589,49.16664 0.6267,80.07233 1.2262,81 0.6318,0.97765 1.0586,-24.44354 1.2255,-73 l 0.2562,-74.5 0.5183,78.5 0.5183,78.5 0.465,-80 0.465,-80 0.5258,78.66724 c 0.2893,43.26699 0.8634,79.00449 1.2759,79.41667 0.4125,0.41218 0.8583,-33.63808 0.9906,-75.66724 L 1168.4813,412.5 1169,489 l 0.5188,76.5 0.4636,-58.5 0.4637,-58.5 0.5269,58.16746 c 0.2899,31.9921 0.8645,58.5046 1.277,58.91666 0.4125,0.41207 0.8583,-32.73829 0.9906,-73.66745 l 0.2405,-74.41667 0.5189,76 0.5189,76 0.4707,-59.5 0.4706,-59.5 0.5199,57.66731 c 0.286,31.71702 0.8574,58.00452 1.2699,58.41667 0.4125,0.41214 0.8595,-31.83815 0.9933,-71.66731 l 0.2433,-72.41667 0.5013,72 0.5012,72 0.5142,-82 0.5143,-82 0.3409,86 c 0.1875,47.3 0.7012,84.875 1.1415,83.5 0.4404,-1.375 0.9528,-34.9 1.1389,-74.5 l 0.3382,-72 0.5229,62 0.5229,62 0.4325,-80 0.4325,-80 0.5561,91.66678 c 0.3058,50.41673 0.8935,92.00423 1.306,92.41667 0.4125,0.41243 0.8577,-28.68762 0.9892,-64.66678 0.2379,-65.04669 0.2421,-65.16782 0.7446,-21.41667 l 0.5053,44 0.5163,-66 0.5162,-66 0.3575,81 c 0.1967,44.55 0.7011,79.65 1.1209,78 0.4199,-1.65 0.9244,-30.225 1.1211,-63.5 l 0.3578,-60.5 0.5067,45 c 0.4863,43.18331 0.5275,41.79051 1.0196,-34.5 l 0.5129,-79.5 0.2409,89.91667 c 0.1326,49.45416 0.5217,89.63602 0.8647,89.293 0.343,-0.34301 0.9425,-19.20551 1.3322,-41.91666 l 0.7086,-41.29301 0.407,36 c 0.3587,31.73426 0.4687,28.17948 0.9285,-30 l 0.5216,-66 0.3634,74 c 0.1999,40.7 0.6867,77.15 1.0819,81 0.4116,4.01063 0.8863,-14.35265 1.1116,-43 l 0.3932,-50 0.5108,33 c 0.4395,28.39481 0.5825,23.37096 1.0245,-36 l 0.5137,-69 0.2397,81.80902 c 0.1588,54.22424 0.5768,81.60062 1.2396,81.19098 0.5976,-0.36934 1.0885,-8.34031 1.2199,-19.80902 L 1208.4398,515.5 1209,537 c 0.3257,12.50073 0.7533,-14.49707 1.0215,-64.5 l 0.4613,-86 0.5086,83.5 c 0.2797,45.925 0.8461,80.62149 1.2586,77.10331 0.4125,-3.51818 0.8372,-12.06818 0.9437,-19 l 0.1936,-12.60331 0.6127,10 c 0.3453,5.6363 0.7873,-10.2912 1.0129,-36.5 l 0.4002,-46.5 0.5435,53.16751 c 0.2989,29.24213 0.8809,53.50463 1.2934,53.91666 0.4125,0.41204 0.7739,-4.38834 0.8031,-10.6675 0.1145,-24.64826 1.7374,-59.1072 2.8354,-60.20518 0.8153,-0.81532 1.1541,10.99911 1.2715,44.33851 0.088,24.9975 0.3341,44.08717 0.5469,42.42148 0.2127,-1.66569 0.7425,-28.66569 1.1772,-60 l 0.7905,-56.97148 0.3966,38.5 0.3965,38.5 0.5323,-43 c 0.4684,-37.83743 0.5604,-33.7654 0.7661,33.91667 0.1287,42.30416 0.5288,76.62172 0.8893,76.26124 0.3605,-0.36049 0.9563,-44.64799 1.3239,-98.41667 l 0.6685,-97.76124 0.4158,77.5 0.4157,77.5 0.5207,-69 0.5207,-69 0.3273,77 c 0.18,42.35 0.6777,79.25 1.106,82 0.4283,2.75 0.9472,-44.275 1.153,-104.5 l 0.3743,-109.5 0.5151,76.5 0.5151,76.5 0.5015,-66.5 0.5015,-66.5 0.2428,91.75 c 0.1596,60.33817 0.5851,91.75 1.2427,91.75 0.6584,0 1.0822,-34.07704 1.2406,-99.75 l 0.2405,-99.75 0.5153,76 0.5153,76 0.5014,-67 0.5013,-67 0.2428,96.75 c 0.1598,63.67147 0.5847,96.75 1.2428,96.75 0.6586,0 1.0825,-35.07771 1.2416,-102.75 l 0.2415,-102.75 0.5169,85.5 0.5169,85.5 0.4216,-77 0.4217,-77 0.6369,97.23371 c 0.3504,53.47854 0.9443,97.54104 1.3199,97.91667 0.3757,0.37562 0.7913,-49.67955 0.9236,-111.23371 L 1249.4813,357.5 1250,434 l 0.5188,76.5 0.4257,-76 0.4257,-76 0.6003,94.70212 c 0.3302,52.08617 0.922,95.02367 1.315,95.41667 0.393,0.393 0.8214,-28.04796 0.952,-63.20212 L 1254.475,421.5 1255,478 l 0.525,56.5 0.4004,-66.5 0.4003,-66.5 0.8042,61.5 c 1.2303,94.08964 1.3893,98.1353 1.8471,47 0.2579,-28.80411 0.6605,-42.77683 1.023,-35.5 l 0.5977,12 0.2715,-16 c 0.1492,-8.8 0.6581,-16.9 1.1308,-18 0.4974,-1.1574 0.9593,20.32883 1.0964,51 l 0.2369,53 0.7226,-43.80591 c 0.3974,-24.09325 0.9974,-44.08075 1.3333,-44.41667 0.336,-0.33591 0.7164,11.72675 0.8455,26.80591 0.196,22.89872 0.3221,19.91879 0.7653,-18.08333 l 0.5306,-45.5 0.4471,62.5 c 0.4794,67.01856 0.658,66.59513 1.8978,-4.5 l 0.8021,-46 0.4023,49.5 c 0.3888,47.84343 0.4196,46.80597 0.9201,-31 l 0.5179,-80.5 0.403,93 0.403,93 0.7916,-49.95673 c 0.4353,-27.4762 0.97,-51.1012 1.1882,-52.5 0.2182,-1.3988 0.5726,19.50673 0.7876,46.45673 0.3692,46.26444 0.42,44.45004 0.9087,-32.5 l 0.5177,-81.5 0.4195,84 0.4195,84 1.0716,-52.5 1.0717,-52.5 0.4961,37.5 c 0.4521,34.16921 0.5418,31.19371 1.0101,-33.5 l 0.5139,-71 0.42,77 c 0.3969,72.78626 1.0014,79.06985 2.1644,22.5 0.2536,-12.33552 0.5179,-6.13815 0.8955,21 l 0.5358,38.5 0.4445,-44.5 c 0.2444,-24.475 0.5892,-39.775 0.7661,-34 0.1769,5.775 0.6857,23.325 1.1306,39 l 0.809,28.5 0.342,-24.5 c 0.3498,-25.05834 0.4872,-24.91181 1.8753,2 0.6149,11.92257 0.8891,1.65189 1.188,-44.5 l 0.3886,-60 0.5201,71 c 0.3963,54.09249 0.6091,62.90345 0.8937,37 0.4856,-44.20139 1.8248,-36.19518 2.2581,13.5 0.2763,31.69796 0.4076,27.13368 0.8482,-29.5 l 0.5213,-67 0.3981,61.5 0.3982,61.5 0.7959,-34.5 c 1.224,-53.04923 1.45,-53.8719 1.9232,-7 l 0.4391,43.5 0.5242,-58.5 0.5242,-58.5 0.4165,61.5 c 0.4134,61.05052 1.2262,62.17545 2.1676,3 0.3039,-19.09956 0.4386,-16.30364 0.8917,18.5 l 0.5337,41 0.4407,-41 c 0.4637,-43.13793 0.6083,-42.45418 1.9036,9 l 0.8056,32 0.3885,-41 0.3884,-41 L 1312,524 c 0.4228,27.03731 0.6107,30.60642 0.8687,16.5 0.5929,-32.42483 1.8259,-31.03555 2.2187,2.5 l 0.3691,31.5 0.5435,-31 c 0.299,-17.05 0.6463,-25.10905 0.7718,-17.90899 0.1255,7.20005 0.5657,20.02505 0.9782,28.5 l 0.75,15.40899 0.5235,-28.5 0.5235,-28.5 0.3959,38.5 0.396,38.5 1.1611,-28.5 1.1611,-28.5 0.3874,27 0.3874,27 0.5641,-20 0.5641,-20 0.4042,21.5 c 0.3156,16.78382 0.5419,19.63546 1.0317,13 l 0.6274,-8.5 0.1863,9.30902 c 0.1182,5.90761 0.5517,9.08319 1.1863,8.69098 0.5854,-0.36178 1.0291,0.75398 1.0703,2.69098 0.059,2.75722 0.2136,2.97551 0.9297,1.30902 0.7459,-1.73568 0.8792,-1.60352 1.0087,1 0.082,1.65 0.3841,2.41365 0.6713,1.697 0.3906,-0.97506 0.8661,-0.84922 1.8892,0.5 1.302,1.71703 1.3694,1.70764 1.4143,-0.197 0.037,-1.5655 0.2411,-1.6936 0.9399,-0.58965 0.4911,0.77569 1.7217,1.47141 2.7347,1.54604 1.0131,0.0746 1.9544,0.45248 2.0919,0.83966 0.6506,1.83185 0.05,2.40696 -2.25,2.15449 -1.753,-0.19243 -2.521,0.22213 -2.5703,1.38752 -0.055,1.31127 -0.2438,1.23994 -0.8926,-0.33806 -0.7796,-1.89583 -0.8613,-1.90448 -1.5689,-0.16615 -0.5865,1.44066 -0.9278,1.54786 -1.592,0.5 -0.5751,-0.90717 -0.873,-0.37419 -0.9312,1.66615 -0.074,2.58517 -0.2044,2.72345 -0.945,1 -0.7161,-1.66649 -0.8711,-1.4482 -0.9297,1.30902 -0.041,1.937 -0.4849,3.05276 -1.0703,2.69098 -0.6346,-0.39221 -1.0681,2.78337 -1.1863,8.69098 L 1326.6274,627.5 1326,619 c -0.4958,-6.71731 -0.7122,-4.09571 -1.0317,12.5 l -0.4042,21 -0.5641,-20 -0.5641,-20 -0.3874,27.5 -0.3874,27.5 -1.1611,-28.5 -1.1611,-28.5 -0.396,38.5 -0.3959,38.5 -0.5235,-28.5 -0.5235,-28.5 -0.75,15.40899 c -0.4125,8.47495 -0.8527,21.29995 -0.9782,28.5 C 1316.6463,681.60905 1316.299,673.55 1316,656.5 l -0.5435,-31 -0.3691,31 c -0.3917,32.91109 -1.6209,34.29625 -2.2185,2.5 -0.2539,-13.51207 -0.4519,-9.75202 -0.8689,16.5 l -0.54,34 -0.3882,-40.5 -0.3882,-40.5 -0.8056,32 c -1.2953,51.45418 -1.4399,52.13793 -1.9036,9 l -0.4407,-41 -0.5337,41 c -0.4531,34.80364 -0.5878,37.59956 -0.8917,18.5 -0.9414,-59.17545 -1.7542,-58.05052 -2.1676,3 l -0.4165,61.5 L 1303,694 l -0.5242,-58.5 -0.4391,43.5 c -0.4732,46.8719 -0.6992,46.04923 -1.9232,-7 l -0.7959,-34.5 -0.3982,61.5 -0.3981,61.5 -0.5213,-67 c -0.4351,-55.9201 -0.5731,-60.79856 -0.8348,-29.5 -0.4111,49.18443 -1.7993,57.09975 -2.28,13 -0.2712,-24.88953 -0.4987,-15.25095 -0.8852,37.5 l -0.5201,71 -0.3886,-60 c -0.2984,-46.07672 -0.5736,-56.40315 -1.186,-44.5 -1.3464,26.17029 -1.5333,26.31922 -1.8821,1.5 l -0.3372,-24 -0.809,28.5 c -0.4449,15.675 -0.9537,33.225 -1.1306,39 -0.1769,5.775 -0.5217,-9.525 -0.7661,-34 L 1286.5358,647.5 1286,686 c -0.3776,27.13815 -0.6419,33.33552 -0.8955,21 -1.163,-56.56985 -1.7675,-50.28626 -2.1644,22.5 l -0.42,77 -0.5139,-71 c -0.4683,-64.69371 -0.558,-67.66921 -1.0101,-33.5 l -0.4961,37.5 -1.0717,-52.5 -1.0716,-52.5 -0.4195,84 -0.4195,84 L 1277,721 c -0.4887,-76.95004 -0.5395,-78.76444 -0.9087,-32.5 -0.215,26.95 -0.5694,47.85553 -0.7876,46.45673 -0.2182,-1.3988 -0.7529,-25.0238 -1.1882,-52.5 l -0.7916,-49.95673 -0.4031,93 -0.403,93 -0.5178,-81 c -0.5019,-78.52253 -0.5301,-79.4707 -0.9201,-31 l -0.4023,50 -0.8021,-46 c -1.2398,-71.09511 -1.4184,-71.51848 -1.898,-4.5 l -0.4472,62.5 -0.5303,-46 c -0.4469,-38.76096 -0.5673,-41.60674 -0.7652,-18.08333 -0.1291,15.35416 -0.5096,27.64182 -0.8456,27.30591 -0.3359,-0.33592 -0.9359,-20.32342 -1.3333,-44.41667 l -0.7226,-43.80591 -0.2369,53 c -0.1371,30.67117 -0.599,52.1574 -1.0964,51 -0.4727,-1.1 -0.9816,-9.2 -1.1308,-18 l -0.2715,-16 -0.5977,12 c -0.3625,7.27683 -0.7651,-6.69589 -1.023,-35.5 -0.4578,-51.1353 -0.6168,-47.08964 -1.8471,47 l -0.8042,61.5 -0.4003,-66.5 -0.4004,-66.5 -0.525,56.5 -0.525,56.5 -0.2375,-63.91667 c -0.1306,-35.15416 -0.559,-63.59512 -0.952,-63.20212 -0.393,0.393 -0.9848,43.3305 -1.315,95.41667 l -0.6003,94.70212 -0.4257,-76 -0.4257,-76 -0.5188,76.5 -0.5187,76.5 z M 1256.3974,827 c 0,-7.975 0.1553,-11.2375 0.3451,-7.25 0.1898,3.9875 0.1898,10.5125 0,14.5 -0.1898,3.9875 -0.3451,0.725 -0.3451,-7.25 z m -200.9498,-23.5 c -4e-4,-18.15 0.1347,-25.7161 0.3003,-16.8135 0.1656,8.9026 0.1659,23.7526 7e-4,33 -0.1652,9.2474 -0.3007,1.9635 -0.301,-16.1865 z m -252.43716,-49 c -0.4382,-71.69199 -0.51992,-74.68425 -1.01049,-37 l -0.53374,41 -0.47264,-66 -0.47263,-66 -0.52099,68 -0.52099,68 -0.46265,-50 c -0.40728,-44.01483 -0.52894,-47.06727 -1.01636,-25.5 -0.48435,21.43149 -0.60419,18.36299 -0.95684,-24.5 -0.33233,-40.39292 -0.52476,-45.75039 -1.0955,-30.5 -0.38079,10.175 -0.83361,32.675 -1.00626,50 l -0.31391,31.5 -0.67823,-24 c -0.37302,-13.2 -0.81806,-37.275 -0.98898,-53.5 -0.42834,-40.6615 -1.57571,-20.12127 -2.01094,36 l -0.32185,41.5 -0.68178,-27 c -0.37498,-14.85 -0.79291,-37.125 -0.92874,-49.5 -0.29296,-26.69027 -1.77545,-24.25949 -2.13458,3.5 l -0.23287,18 -0.68917,-12 c -0.37905,-6.6 -0.78674,-17.625 -0.90598,-24.5 -0.18789,-10.83262 -0.38068,-12.13003 -1.44531,-9.72639 -1.63903,3.70047 -2.60906,2.44334 -2.60906,-3.38126 0,-4.9546 -1.7382,-7.60948 -2.66405,-4.06901 -0.33725,1.28962 -1.18522,1.89827 -2.33595,1.67666 -1.17684,-0.22664 -2.0145,0.40984 -2.40323,1.82605 -0.46808,1.70531 -0.78913,1.87536 -1.48926,0.78885 -0.72048,-1.11809 -1.09925,-0.99885 -1.96484,0.61852 -0.58977,1.10199 -0.75064,2.35948 -0.35749,2.79443 0.39315,0.43494 -0.0727,0.50823 -1.03518,0.16286 -1.21915,-0.43746 -1.77395,-0.10661 -1.82895,1.09067 -0.0623,1.35701 -0.18421,1.40301 -0.57923,0.21862 -1.40843,-4.22294 -1.71368,-4.35113 -2.38128,-1 l -0.69726,3.5 -0.23132,-4 c -0.20515,-3.54753 -0.32189,-3.7172 -1.03196,-1.5 l -0.80064,2.5 -0.13512,-2.5 -0.13511,-2.5 -1.42913,2.5 -1.42913,2.5 -0.0507,-3.5 c -0.0382,-2.63522 -0.29026,-3.12938 -1.02012,-2 -0.53316,0.825 -0.98316,1.05 -1,0.5 -0.0168,-0.55 -0.46684,-0.325 -1,0.5 -0.77208,1.19471 -0.9868,0.99118 -1.05497,-1 -0.0786,-2.29514 -0.15603,-2.33611 -0.94503,-0.5 -0.73979,1.72159 -0.87007,1.58239 -0.93588,-1 l -0.0764,-3 -1.41224,2.70702 c -0.77673,1.48886 -1.62176,3.51386 -1.87784,4.5 -0.29992,1.15498 -0.50687,0.81444 -0.5816,-0.95702 -0.0638,-1.5125 -0.51352,-2.75 -0.99937,-2.75 -0.48585,0 -1.16084,-1.0125 -1.49997,-2.25 -0.47269,-1.72485 -0.82084,-1.93333 -1.49163,-0.89324 -0.65009,1.00798 -1.0617,1.05472 -1.60118,0.18183 -0.39938,-0.64622 -1.31839,-0.94767 -2.04224,-0.66991 -0.72385,0.27777 -1.55717,-0.1232 -1.85182,-0.89104 -0.29465,-0.76785 -2.01939,-1.82385 -3.83276,-2.34667 l -3.29703,-0.95059 3.28138,-0.0902 c 1.92259,-0.0528 3.51883,-0.70895 3.85479,-1.58445 0.31537,-0.82184 0.99596,-1.2331 1.51242,-0.91391 0.51646,0.31919 1.59431,0.0365 2.39521,-0.62818 1.10463,-0.91676 1.4562,-0.9233 1.4562,-0.0271 0,0.64981 0.45,0.90335 1,0.56343 0.55,-0.33992 1,-1.51803 1,-2.61803 0,-1.1 0.45,-1.72189 1,-1.38197 0.56802,0.35105 1.05011,-0.59542 1.116,-2.19098 0.0732,-1.77166 0.28795,-2.14688 0.5816,-1.01604 0.25608,0.98614 1.10111,3.01114 1.87784,4.5 l 1.41224,2.70702 0.0764,-3 c 0.0658,-2.58239 0.19609,-2.72159 0.93588,-1 0.79267,1.84463 0.87102,1.80579 1.00866,-0.5 0.0821,-1.375 0.37714,-1.9347 0.6557,-1.24377 0.27855,0.69093 0.91803,1.00187 1.42105,0.69098 0.50302,-0.31088 0.97383,0.0238 1.04623,0.74377 0.0724,0.71996 0.44653,-0.26598 0.83138,-2.19098 l 0.69975,-3.5 1.10523,2.5 1.10523,2.5 0.16306,-2.5 0.16307,-2.5 0.80059,2.50003 c 0.68153,2.12806 0.83658,1.83052 1.04223,-2 l 0.24158,-4.5 0.62925,4 0.62926,4 1.14989,-3 c 0.68831,-1.79576 1.18159,-2.29753 1.22884,-1.25 0.0434,0.9625 0.55551,1.75 1.13797,1.75 0.58246,0 0.73531,-0.5625 0.33967,-1.25 -0.39564,-0.6875 -0.45969,-1.025 -0.14235,-0.75 0.31735,0.275 0.65887,0.95 0.75894,1.5 0.10007,0.55 0.63594,1.84829 1.19082,2.8851 0.82075,1.53359 1.1753,1.62682 1.90141,0.5 0.70013,-1.08651 1.02118,-0.91646 1.48926,0.78885 0.38873,1.41621 1.22639,2.05269 2.40323,1.82605 1.17684,-0.22664 2.0145,0.40984 2.40323,1.82605 0.90774,3.30707 2.56245,0.16017 2.58146,-4.90938 0.0195,-5.18619 1.05065,-6.24329 2.62437,-2.69028 1.06463,2.40364 1.25742,1.10623 1.44531,-9.72639 0.11924,-6.875 0.52693,-17.9 0.90598,-24.5 l 0.68917,-12 0.23287,18 c 0.35916,27.7617 1.84128,30.18979 2.13642,3.5 0.13685,-12.375 0.55439,-34.875 0.92788,-50 l 0.67906,-27.5 0.32271,42 c 0.43427,56.51822 1.58165,77.33492 2.01182,36.5 0.17092,-16.225 0.61596,-40.3 0.98898,-53.5 l 0.67823,-24 0.31391,31.5 c 0.17265,17.325 0.62547,39.825 1.00626,50 0.57074,15.25039 0.76317,9.89292 1.0955,-30.5 0.35265,-42.86299 0.47249,-45.93149 0.95684,-24.5 0.48742,21.56727 0.60908,18.51483 1.01636,-25.5 l 0.46265,-50 0.52099,68 0.52099,68 0.47263,-66 0.47264,-66 0.53374,41 c 0.49057,37.68425 0.57229,34.69199 1.01049,-37 l 0.47674,-78 0.51277,114 0.51277,114 0.47764,-82 c 0.4415,-75.79345 0.51791,-78.7075 1.00959,-38.5 l 0.53194,43.5 0.47702,-66 0.47702,-66 0.51402,103.5 0.51402,103.5 0.47729,-80 c 0.33678,-56.44856 0.62669,-71.31541 0.98477,-50.5 l 0.50748,29.5 0.52419,-43.5 c 0.47287,-39.24084 0.56586,-35.42229 0.94978,39 0.38131,73.91548 0.49531,78.64997 1.09558,45.5 0.3685,-20.35 0.78862,-39.25 0.93361,-42 l 0.26361,-5 0.80071,4.5 c 0.44039,2.475 0.89039,18.675 1,36 0.1233,19.48781 0.50464,29.78397 1,27 0.44039,-2.475 0.91353,-18.225 1.05142,-35 0.13789,-16.775 0.52112,-27.35 0.85162,-23.5 0.44457,5.17888 0.74989,6.21952 1.17358,4 0.31497,-1.65 0.74285,6.675 0.95083,18.5 0.33873,19.25789 0.4583,17.17221 1.14659,-20 2.32404,-125.51332 2.28216,-125.04688 2.78349,-31 0.42468,79.6664 0.503,82.86595 0.99143,40.5 0.33557,-29.10739 0.70403,-40.30793 1.00335,-30.5 0.26016,8.525 0.70865,-11.5 0.99665,-44.5 l 0.52363,-60 0.45339,87 c 0.49166,94.34229 0.56614,93.49295 2.8063,-32 l 0.78544,-44 0.33062,63.5 c 0.19259,36.99069 0.67602,61.83012 1.15799,59.5 0.45505,-2.2 0.94001,-15.25 1.07768,-29 0.13767,-13.75 0.41042,-22.17442 0.6061,-18.72094 0.19569,3.45348 0.67148,6.08253 1.05732,5.84232 0.38584,-0.24021 0.58273,3.68422 0.43752,8.72094 -0.1452,5.03672 0.12147,22.65768 0.5926,39.15768 l 0.85661,30 0.29727,-46.5 c 0.3878,-60.66052 1.7778,-49.66819 2.78195,22 l 0.73558,52.5 0.75271,-70.45271 c 0.50411,-47.1844 1.10164,-70.79859 1.80924,-71.5 0.7401,-0.73362 0.852,-0.51013 0.37362,0.74621 -0.37561,0.98642 -0.29318,34.06142 0.18319,73.5 l 0.86613,71.7065 0.64337,-57.5 c 0.58054,-51.88358 1.62047,-96.08207 2.27612,-96.73771 0.13666,-0.13666 0.34445,32.24128 0.46174,71.95098 0.1173,39.7097 0.42041,72.40659 0.67357,72.65976 0.25317,0.25317 0.55811,-17.9522 0.67764,-40.45636 0.11953,-22.50417 0.45064,-35.06667 0.73579,-27.91667 0.50988,12.78532 0.52744,12.64495 1.06276,-8.5 0.41642,-16.44841 0.63447,-9.39969 0.92803,30 l 0.38371,51.5 0.84272,-54.5 c 0.46349,-29.975 1.22609,-59 1.69467,-64.5 l 0.85195,-10 0.28376,16.5 c 0.15606,9.075 0.58373,30 0.95036,46.5 l 0.6666,30 0.42752,-50 0.42751,-50 0.52729,51.5 0.52729,51.5 0.47548,-64 0.47548,-64 0.52175,65.5 0.52175,65.5 0.47801,-68 0.47801,-68 0.52223,64 0.52223,64 0.47868,-67.5 0.47868,-67.5 0.52041,70 c 0.28623,38.5 0.67282,58.3 0.8591,44 0.57251,-43.94888 1.83073,-40.29259 2.23682,6.5 l 0.37752,43.5 0.52656,-53 0.52656,-53 0.46906,56 0.46905,56 0.53533,-39 0.53533,-39 0.4213,38 c 0.23172,20.9 0.67465,33.95 0.98428,29 0.53808,-8.60201 0.60425,-8.20403 1.49636,9 0.5697,10.98648 1.20472,16.83108 1.62974,15 0.46236,-1.9919 0.78891,0.19231 0.97178,6.5 0.24017,8.28411 0.36319,8.86006 0.96121,4.5 l 0.68579,-5 0.17242,6 c 0.12314,4.28516 0.44947,5.57129 1.14179,4.5 0.78387,-1.21296 0.9723,-1.06944 0.98469,0.75 0.0118,1.72925 0.59392,2.25 2.51531,2.25 1.375,0 2.5,0.45 2.5,1 0,0.55 -1.125,1 -2.5,1 -1.9051,0 -2.51673,0.53541 -2.57029,2.25 -0.0671,2.1469 -0.10966,2.15836 -0.92971,0.25 -0.61604,-1.43359 -0.92383,-0.15917 -1.08682,4.5 l -0.22739,6.5 -0.68579,-5 c -0.59802,-4.36006 -0.72104,-3.78411 -0.96121,4.5 -0.18287,6.30769 -0.50942,8.4919 -0.97178,6.5 -0.42502,-1.83108 -1.06004,4.01352 -1.62974,15 -0.89211,17.20403 -0.95828,17.60201 -1.49636,9 -0.30963,-4.95 -0.75256,8.1 -0.98428,29 l -0.4213,38 -0.53533,-39 -0.53533,-39 -0.46905,56 -0.46906,56 -0.52656,-53 -0.52656,-53 -0.37752,43.5 c -0.40609,46.79259 -1.66431,50.44888 -2.23682,6.5 -0.18628,-14.3 -0.57287,5.5 -0.8591,44 l -0.52041,70 -0.47868,-67.5 -0.47868,-67.5 -0.52223,64 -0.52223,64 -0.47809,-68.5 -0.47809,-68.5 -0.52159,66 -0.52159,66 -0.47556,-64 -0.47556,-64 -0.52729,51.5 -0.52729,51.5 -0.42751,-50 -0.42752,-50 -0.6666,30 c -0.36663,16.5 -0.7943,37.425 -0.95036,46.5 l -0.28376,16.5 -0.85195,-10 c -0.46858,-5.5 -1.23118,-34.525 -1.69467,-64.5 l -0.84272,-54.5 -0.38371,51.5 c -0.29356,39.39969 -0.51161,46.44841 -0.92803,30 -0.53532,-21.14495 -0.55288,-21.28532 -1.06276,-8.5 -0.28515,7.15 -0.61626,-5.4125 -0.73579,-27.91667 -0.11953,-22.50416 -0.42447,-40.70953 -0.67764,-40.45636 -0.25316,0.25317 -0.55627,32.95006 -0.67357,72.65976 -0.11729,39.7097 -0.3225,72.09007 -0.45601,71.95637 -0.65802,-0.659 -1.70926,-45.18387 -2.28412,-96.7431 l -0.6411,-57.5 -0.86613,71.7065 c -0.47637,39.43858 -0.5588,72.5136 -0.18319,73.5 0.4386,1.1519 0.3421,1.4357 -0.26972,0.7935 -1.02546,-1.0764 -2.00888,-45.86032 -2.3167,-105.5 l -0.18838,-36.5 -0.81597,52.5 c -1.11714,71.87846 -2.47666,82.3277 -2.86233,22 l -0.29727,-46.5 -0.85661,30 c -0.47113,16.5 -0.7378,34.12096 -0.5926,39.15768 0.14521,5.03672 -0.0517,8.96115 -0.43752,8.72094 -0.38584,-0.24021 -0.86163,2.38884 -1.05732,5.84232 -0.19568,3.45348 -0.46843,-4.97094 -0.6061,-18.72094 -0.35342,-35.29866 -1.83829,-39.75242 -2.16707,-6.5 -0.37379,37.80383 -1.8832,24.97571 -2.82394,-24 -0.68476,-35.64898 -0.77215,-32.05743 -1.18006,48.5 l -0.44053,87 -0.52345,-60.5 c -0.30669,-35.44729 -0.71966,-52.83926 -0.99729,-42 -0.33289,12.99685 -0.63117,4.07282 -1.00271,-30 -0.50417,-46.23517 -0.55068,-44.46066 -0.99612,38 -0.3733,69.1069 -0.57148,78.9596 -0.98557,49 -0.28507,-20.625 -0.79009,-36.6 -1.12227,-35.5 -0.33218,1.1 -0.68179,-17.54961 -0.77691,-41.44357 -0.0951,-23.89397 -0.38584,-43.65647 -0.64604,-43.91667 -0.2602,-0.2602 -0.54051,9.16441 -0.62292,20.94357 -0.0824,11.77917 -0.40754,20.06667 -0.72251,18.41667 -0.42369,-2.21952 -0.72901,-1.17888 -1.17358,4 -0.3305,3.85 -0.71373,-6.725 -0.85162,-23.5 -0.13789,-16.775 -0.61103,-32.525 -1.05142,-35 -0.49536,-2.78397 -0.8767,7.51219 -1,27 -0.10961,17.325 -0.55961,33.525 -1,36 l -0.80071,4.5 -0.26361,-5 c -0.14499,-2.75 -0.56511,-21.65 -0.93361,-42 -0.60027,-33.14997 -0.71427,-28.41548 -1.09558,45.5 -0.38389,74.4166 -0.47694,78.2378 -0.94966,39 l -0.52406,-43.5 -0.50786,29 c -0.35558,20.3047 -0.65089,5.16294 -0.98489,-50.5 l -0.47704,-79.5 -0.51402,103.5 -0.51402,103.5 -0.47702,-66 -0.47702,-66 -0.53194,43.5 c -0.49168,40.2075 -0.56809,37.2935 -1.00959,-38.5 l -0.47764,-82 -0.51277,114 -0.51277,114 z M 1068.1579,823 c 0,-1.375 0.227,-1.9375 0.5044,-1.25 0.2774,0.6875 0.2774,1.8125 0,2.5 -0.2774,0.6875 -0.5044,0.125 -0.5044,-1.25 z M 832.4525,779.5 c 3.1e-4,-20.35 0.13365,-28.53307 0.29631,-18.1846 0.16266,10.3485 0.16241,26.9985 -5.6e-4,37 -0.16297,10.0015 -0.29606,1.5346 -0.29575,-18.8154 z m 281.9936,4 c 4e-4,-17.6 0.1365,-24.6592 0.3024,-15.687 0.1659,8.9721 0.1656,23.3721 -7e-4,32 -0.1663,8.6278 -0.3021,1.287 -0.3017,-16.313 z m 139.969,13.5 c 0,-10.175 0.1485,-14.3375 0.33,-9.25 0.1815,5.0875 0.1815,13.4125 0,18.5 -0.1815,5.0875 -0.33,0.925 -0.33,-9.25 z m -192.095,8 c 0,-3.575 0.1815,-5.0375 0.4033,-3.25 0.2218,1.7875 0.2218,4.7125 0,6.5 -0.2218,1.7875 -0.4033,0.325 -0.4033,-3.25 z m 5.0499,-4 c 0,-5.775 0.1652,-8.1375 0.3672,-5.25 0.202,2.8875 0.202,7.6125 0,10.5 -0.202,2.8875 -0.3672,0.525 -0.3672,-5.25 z m 52.0588,-17.5 c 7e-4,-12.65 0.144,-17.6871 0.3185,-11.1936 0.1744,6.4936 0.1738,16.8436 -10e-4,23 -0.1752,6.1565 -0.3179,0.8436 -0.3172,-11.8064 z m 147.988,4 c 10e-4,-10.45 0.1492,-14.5891 0.3293,-9.1981 0.1802,5.3911 0.1794,13.9411 0,19 -0.1811,5.059 -0.3285,0.6481 -0.3275,-9.8019 z m -430.98806,-6 c 7e-4,-12.65 0.14401,-17.6871 0.31847,-11.1936 0.17445,6.4936 0.17388,16.8436 -10e-4,23 -0.17516,6.1565 -0.31789,0.8436 -0.31719,-11.8064 z m 244.96866,6.5 c 0,-7.975 0.1553,-11.2375 0.3451,-7.25 0.1898,3.9875 0.1898,10.5125 0,14.5 -0.1898,3.9875 -0.3451,0.725 -0.3451,-7.25 z m 134.0301,-8 c 0,-12.375 0.1436,-17.4375 0.319,-11.25 0.1755,6.1875 0.1755,16.3125 0,22.5 -0.1754,6.1875 -0.319,1.125 -0.319,-11.25 z m -90.5749,11.4998 c -0.1939,-4.6751 -0.084,-11.3126 0.2449,-14.75 0.4194,-4.3867 0.643,-1.8528 0.75,8.5002 0.1663,16.0803 -0.4313,19.8344 -0.9949,6.2498 z M 1116.4387,771 c 0,-15.125 0.139,-21.3125 0.3089,-13.75 0.1699,7.5625 0.1699,19.9375 0,27.5 -0.1699,7.5625 -0.3089,1.375 -0.3089,-13.75 z m 22.0175,-13 c 0,-22.275 0.1317,-31.3875 0.2926,-20.25 0.1609,11.1375 0.1609,29.3625 0,40.5 -0.1609,11.1375 -0.2926,2.025 -0.2926,-20.25 z m 87.957,20.5 c 10e-4,-9.9 0.1507,-13.8147 0.3325,-8.6994 0.1819,5.1153 0.181,13.2153 0,18 -0.1829,4.7847 -0.3317,0.5994 -0.3306,-9.3006 z m -55.9871,-5 c 8e-4,-12.1 0.1452,-16.9126 0.3209,-10.6946 0.1758,6.218 0.1751,16.118 -10e-4,22 -0.1765,5.882 -0.3202,0.7946 -0.3195,-11.3054 z m -69.6923,10.75 c -0.3036,-5.3625 -0.2171,-15.15 0.1923,-21.75 0.7014,-11.30623 0.7539,-10.74254 0.9092,9.75 0.091,11.9625 0,21.75 -0.1923,21.75 -0.1964,0 -0.6055,-4.3875 -0.9092,-9.75 z M 1175.4275,772 c 0,-12.375 0.1436,-17.4375 0.319,-11.25 0.1755,6.1875 0.1755,16.3125 0,22.5 -0.1754,6.1875 -0.319,1.125 -0.319,-11.25 z m -9.9987,-1.5 c 7e-4,-12.65 0.144,-17.68711 0.3185,-11.1936 0.1744,6.4936 0.1738,16.8436 -10e-4,23 -0.1752,6.1565 -0.3179,0.8436 -0.3172,-11.8064 z m -89.1087,10.5 c 0,-3.575 0.1815,-5.0375 0.4033,-3.25 0.2218,1.7875 0.2218,4.7125 0,6.5 -0.2218,1.7875 -0.4033,0.325 -0.4033,-3.25 z m 148.0798,-8.5 c 0,-8.25 0.1563,-11.4919 0.3442,-7.2043 0.1879,4.2876 0.1868,11.0376 0,15 -0.1893,3.9624 -0.343,0.4543 -0.3416,-7.7957 z M 820.41503,764 c 0,-10.175 0.1485,-14.3375 0.32999,-9.25 0.18149,5.0875 0.18149,13.4125 0,18.5 -0.18149,5.0875 -0.32999,0.925 -0.32999,-9.25 z m 466.97347,2.5 c 0,-7.15 0.1611,-9.9438 0.354,-6.2084 0.1929,3.7354 0.1915,9.5854 0,13 -0.1947,3.4146 -0.3525,0.3584 -0.3508,-6.7916 z m -492.40111,0.2956 c -0.26809,-3.6874 -0.12553,-6.3405 0.31681,-5.8957 0.44234,0.4447 0.66169,3.4617 0.48744,6.7044 L 795.47483,773.5 Z M 858.29961,768 c 0,-3.025 0.18747,-4.2625 0.41659,-2.75 0.22913,1.5125 0.22913,3.9875 0,5.5 -0.22912,1.5125 -0.41659,0.275 -0.41659,-2.75 z m 226.89539,-0.5 c 0.02,-1.65 0.2445,-2.2039 0.498,-1.231 0.2535,0.973 0.2369,2.323 -0.037,3 -0.2739,0.6771 -0.4814,-0.119 -0.461,-1.769 z M 799.23195,766 c 0,-1.925 0.2058,-2.7125 0.45733,-1.75 0.25152,0.9625 0.25152,2.5375 0,3.5 -0.25153,0.9625 -0.45733,0.175 -0.45733,-1.75 z m 57,0 c 0,-1.925 0.2058,-2.7125 0.45733,-1.75 0.25152,0.9625 0.25152,2.5375 0,3.5 -0.25153,0.9625 -0.45733,0.175 -0.45733,-1.75 z m -41,-5 c 0,-1.925 0.2058,-2.7125 0.45733,-1.75 0.25152,0.9625 0.25152,2.5375 0,3.5 -0.25153,0.9625 -0.45733,0.175 -0.45733,-1.75 z m 54.08807,-5 c 0,-3.575 0.1815,-5.0375 0.40333,-3.25 0.22182,1.7875 0.22182,4.7125 0,6.5 -0.22183,1.7875 -0.40333,0.325 -0.40333,-3.25 z m 350.00808,-1.5 c 0,-3.85 0.1852,-5.30246 0.4017,-3.2277 0.2165,2.07477 0.2128,5.2248 -0.01,7 -0.2209,1.7752 -0.398,0.078 -0.3936,-3.7723 z m 46.0081,-0.5 c 0,-4.125 0.1765,-5.8125 0.3923,-3.75 0.2157,2.0625 0.2157,5.4375 0,7.5 -0.2158,2.0625 -0.3923,0.375 -0.3923,-3.75 z m -452.1413,0.5 c 0.0204,-1.65 0.2445,-2.20394 0.49804,-1.23097 0.25354,0.97297 0.23687,2.32297 -0.0371,2.99997 -0.27393,0.6771 -0.48137,-0.119 -0.46099,-1.769 z M 797.41122,739 c 0,-9.625 0.14998,-13.5625 0.3333,-8.75 0.18331,4.8125 0.18331,12.6875 0,17.5 -0.18332,4.8125 -0.3333,0.875 -0.3333,-8.75 z m 300.02348,-10 c 0,-14.025 0.1406,-19.7625 0.3125,-12.75 0.1719,7.0125 0.1719,18.4875 0,25.5 -0.1719,7.0125 -0.3125,1.275 -0.3125,-12.75 z m 23.7603,21.5 c 0.02,-1.65 0.2445,-2.20394 0.498,-1.23097 0.2535,0.97297 0.2369,2.32297 -0.037,3 -0.2739,0.67703 -0.4814,-0.11903 -0.461,-1.76903 z m -79.8065,-14 c 0,-7.15 0.1611,-9.94379 0.354,-6.20841 0.1929,3.73537 0.1915,9.58537 0,13 -0.1947,3.41462 -0.3525,0.35841 -0.3508,-6.79159 z m 86.9897,-3.5 c 0,-6.325 0.1623,-8.9125 0.3608,-5.75 0.1984,3.1625 0.1984,8.3375 0,11.5 -0.1985,3.1625 -0.3608,0.575 -0.3608,-5.75 z m 180,-11 c 0,-6.325 0.1623,-8.9125 0.3608,-5.75 0.1984,3.1625 0.1984,8.3375 0,11.5 -0.1985,3.1625 -0.3608,0.575 -0.3608,-5.75 z m 5.7008,-13.58333 c 0.048,-1.16495 0.2849,-1.4019 0.6041,-0.60417 0.2889,0.72187 0.2534,1.58438 -0.079,1.91667 -0.3323,0.33229 -0.5686,-0.25834 -0.5252,-1.3125 z M 1030.195,673.5 c 0.02,-1.65 0.2445,-2.20394 0.498,-1.23097 0.2535,0.97297 0.2369,2.32297 -0.037,3 -0.2739,0.67703 -0.4814,-0.11903 -0.461,-1.76903 z M 668.10156,648 c -0.2355,-10.0034 -0.62615,-14.25883 -1.10161,-12 -0.53616,2.54717 -0.80476,0.77764 -0.98667,-6.5 -0.25002,-10.00231 -1.43996,-9.71095 -2.04204,0.5 -0.26394,4.47646 -0.26923,4.46862 -1.00978,-1.5 -0.40944,-3.3 -0.86087,-8.7 -1.00317,-12 l -0.25873,-6 -0.69961,4.5 -0.69961,4.5 -0.31023,-5 c -0.24712,-3.98275 -0.39258,-4.33492 -0.71497,-1.73102 -0.23462,1.89498 -0.8341,3.00363 -1.42626,2.63765 -0.63242,-0.39086 -0.93591,0.64939 -0.79675,2.73102 0.12362,1.84929 -0.0542,4.03735 -0.39509,4.86235 -0.34093,0.825 -0.76164,5.325 -0.93493,10 l -0.31507,8.5 -0.20354,-9.75 c -0.11195,-5.3625 -0.61142,-9.75 -1.10993,-9.75 -0.49851,0 -0.68062,-0.86331 -0.40469,-1.91848 0.27593,-1.05516 0.0225,-2.74266 -0.56321,-3.75 -0.80564,-1.38562 -1.12235,0.96826 -1.30085,9.66848 l -0.23594,11.5 -0.58893,-13.5 -0.58893,-13.5 -0.35315,20 -0.35316,20 -0.82436,-15.5 c -1.23443,-23.21026 -1.28995,-23.605 -2.39082,-17 l -0.9167,5.5 -1.14169,-9 c -0.62792,-4.95 -1.20682,-7.73594 -1.28644,-6.19098 -0.0819,1.59017 -0.57865,2.54085 -1.14475,2.19098 -0.59926,-0.37036 -1.06737,1.10875 -1.1681,3.69098 l -0.16811,4.30902 -0.40458,-3.95676 c -0.24844,-2.42962 -1.14846,-4.47779 -2.3319,-5.30671 -1.06002,-0.74247 -1.9342,-2.33692 -1.94262,-3.54323 -0.0125,-1.78274 -0.19677,-1.91251 -0.98469,-0.6933 -0.8219,1.2718 -0.9717,1.22479 -0.98469,-0.30902 -0.008,-0.99496 -0.46531,-1.5309 -1.01531,-1.19098 -0.55,0.33992 -1,0.0864 -1,-0.56343 0,-0.88585 -0.34211,-0.89753 -1.36732,-0.0467 -1.04001,0.86313 -1.66778,0.77275 -2.62245,-0.37756 C 627.31987,601.68055 625.26172,601 623.43652,601 c -1.82519,0 -3.59665,-0.45 -3.93657,-1 -0.3678,-0.59512 0.82295,-1 2.94098,-1 2.17798,0 4.3051,-0.74608 5.4817,-1.92268 1.75605,-1.75605 1.98281,-1.77772 2.61643,-0.25 0.48394,1.16683 0.83557,1.29277 1.16273,0.41645 0.25794,-0.69093 0.88055,-1.00187 1.38357,-0.69098 0.50302,0.31088 0.92148,-0.24881 0.9299,-1.24377 0.013,-1.53381 0.16279,-1.58082 0.98469,-0.30902 0.78809,1.21948 0.97224,1.09025 0.98469,-0.69098 0.008,-1.20504 0.46016,-2.46592 1.00386,-2.80194 0.55203,-0.34118 0.74271,0.0297 0.43182,0.83983 -0.30619,0.79793 -0.0156,1.78523 0.6458,2.19399 0.86879,0.53694 1.07669,-0.11416 0.74912,-2.34604 -0.24937,-1.69908 -0.0848,-2.86144 0.36565,-2.58303 0.45048,0.27841 0.89471,-1.43285 0.98716,-3.80281 l 0.16811,-4.30902 0.39226,3.75 c 0.21574,2.0625 0.7838,3.75 1.26234,3.75 0.47855,0 1.0444,1.0125 1.25746,2.25 0.21305,1.2375 0.78227,-1.575 1.26492,-6.25 l 0.87756,-8.5 1.03225,5.5 c 1.22389,6.52112 1.19628,6.71211 2.4574,-17 l 0.82436,-15.5 0.35316,20 0.35315,20 0.58893,-13.5 0.58893,-13.5 0.23594,11.5 c 0.1785,8.70022 0.49521,11.0541 1.30085,9.66848 0.5857,-1.00734 0.83914,-2.69484 0.56321,-3.75 -0.27593,-1.05517 -0.0938,-1.91848 0.40469,-1.91848 0.49851,0 0.98749,-4.3875 1.08663,-9.75 0.0991,-5.3625 0.31693,-7.5 0.48399,-4.75 0.94622,15.57626 1.60714,21.45031 2.36103,20.98438 0.46485,-0.28729 1.02731,0.94869 1.24992,2.74664 0.32239,2.6039 0.46785,2.25173 0.71497,-1.73102 l 0.31023,-5 0.62749,4.5 c 0.50189,3.59929 0.80838,1.99804 1.53125,-8 l 0.90377,-12.5 0.80691,7.40503 c 0.4438,4.07276 1.03715,7.63526 1.31855,7.91666 0.2814,0.2814 0.58729,-4.17586 0.67974,-9.90502 0.10457,-6.47965 0.38737,-8.90486 0.74824,-6.41667 0.33602,2.31686 0.80797,-2.52218 1.1216,-11.5 0.49355,-14.12795 0.57282,-13.06571 0.89559,12 0.35387,27.48151 0.35492,27.49294 1.56647,17 l 1.21237,-10.5 0.30225,12.5 0.30226,12.5 0.82559,-12 c 0.45407,-6.6 1.21254,-17.4 1.68549,-24 l 0.8599,-12 0.17138,20.5 c 0.0943,11.275 0.6076,21.175 1.14076,22 0.68235,1.05586 1.01406,-0.57265 1.12028,-5.5 0.083,-3.85 0.46102,-12.4 0.84007,-19 l 0.68917,-12 0.28377,12 c 0.53639,22.68212 1.73969,25.82248 2.10745,5.5 l 0.33478,-18.5 0.56224,18.16855 c 0.30923,9.9927 0.89974,18.5052 1.31224,18.91666 0.4125,0.41147 0.83976,-5.06438 0.94947,-12.16854 L 685.39888,564.5 685.94942,576 c 0.43257,9.03588 0.70888,10.64291 1.28952,7.5 0.40645,-2.2 0.82899,-7.825 0.93897,-12.5 l 0.19998,-8.5 0.62206,9 0.62206,9 0.37235,-10.5 0.37235,-10.5 0.58093,8 c 0.32537,4.4807 0.81454,6.90022 1.11197,5.5 0.29207,-1.375 0.91074,2.9 1.37483,9.5 0.46408,6.6 1.07365,11.325 1.35459,10.5 0.28095,-0.825 0.89481,-1.75247 1.36416,-2.06105 0.46934,-0.30858 1.05957,-3.23358 1.31162,-6.5 0.57901,-7.50368 0.51774,-7.30656 1.53514,-4.93895 0.47269,1.1 0.92933,5.825 1.01476,10.5 l 0.15533,8.5 1.37259,-5.5 c 0.75492,-3.025 1.45907,-7.075 1.56478,-9 0.18704,-3.40588 0.20369,-3.41932 0.61932,-0.5 0.23491,1.65 0.84249,3.4275 1.35017,3.95 0.50768,0.5225 0.92305,2.2475 0.92305,3.83333 0,1.88323 0.43357,2.72515 1.25,2.42728 0.6875,-0.25082 2.15,0.31022 3.25,1.24678 2.61544,2.22682 9.14299,4.04261 14.53269,4.04261 5.44501,0 4.23018,1.45369 -1.3663,1.63492 -4.74308,0.15361 -11.91388,2.60754 -12.4668,4.2663 -0.20372,0.61118 -0.78198,0.85688 -1.285,0.54599 -0.50302,-0.31088 -0.91459,-0.10281 -0.91459,0.46239 0,0.5652 -0.675,0.76861 -1.5,0.45203 -1.12134,-0.4303 -1.5,0.15823 -1.5,2.33138 0,1.59885 -0.41537,3.33449 -0.92305,3.85699 -0.50768,0.5225 -1.11526,2.3 -1.35017,3.95 -0.36436,2.55924 -0.45196,2.41232 -0.59624,-1 -0.093,-2.2 -0.7952,-6.25 -1.56041,-9 l -1.3913,-5 -0.1597,8.5 c -0.0878,4.675 -0.54644,9.4 -1.01913,10.5 -1.0174,2.36761 -0.95613,2.56473 -1.53514,-4.93895 -0.25205,-3.26642 -0.84228,-6.19142 -1.31162,-6.5 -0.46935,-0.30858 -1.08321,-1.23605 -1.36416,-2.06105 -0.28094,-0.825 -0.89051,3.9 -1.35459,10.5 -0.46409,6.6 -1.07355,10.875 -1.35435,9.5 -0.35833,-1.75461 -0.69595,-0.86014 -1.13235,3 -0.62039,5.48759 -0.62258,5.48195 -0.9711,-2.5 l -0.3493,-8 -0.62739,8.5 -0.62739,8.5 -0.19731,-8 c -0.10852,-4.4 -0.52986,-9.8 -0.93631,-12 -0.58064,-3.14291 -0.85695,-1.53588 -1.28952,7.5 l -0.55054,11.5 -0.19946,-12.91667 c -0.10971,-7.10416 -0.53697,-12.58008 -0.94947,-12.16869 -0.4125,0.41138 -1.00086,9.82388 -1.30747,20.91667 L 682.38502,651.5 682.04546,631 c -0.36368,-21.95671 -1.55698,-19.97939 -2.11222,3.5 l -0.28377,12 -0.68917,-12 c -0.37905,-6.6 -0.75708,-15.15 -0.84007,-19 -0.10622,-4.92735 -0.43793,-6.55586 -1.12028,-5.5 -0.53316,0.825 -1.04756,10.725 -1.14313,22 l -0.17375,20.5 -0.87039,-12.5 c -0.47871,-6.875 -1.2344,-17.45 -1.67931,-23.5 l -0.80891,-11 -0.30607,12 -0.30607,12 -1.20407,-10.5 -1.20407,-10.5 -0.41887,27.5 c -0.34249,22.48556 -0.4854,24.67368 -0.78375,12 z m -29.10161,-41.2 c 0,-1.61542 -0.29571,-1.90429 -1.11287,-1.08713 -0.61207,0.61207 -0.81052,1.60207 -0.44098,2.2 1.03439,1.67368 1.55385,1.30164 1.55385,-1.11287 z m 40.28601,44.7 c 0.008,-2.75 0.20172,-3.75631 0.43157,-2.23625 0.22986,1.52006 0.22371,3.77006 -0.0136,5 -0.23736,1.22994 -0.42542,-0.0138 -0.41792,-2.76375 z M 690.15784,638 c 0,-1.375 0.22698,-1.9375 0.50439,-1.25 0.27741,0.6875 0.27741,1.8125 0,2.5 -0.27741,0.6875 -0.50439,0.125 -0.50439,-1.25 z m 259.63364,-13.27663 c 0.37394,-8.51734 0.28503,-9.07027 -1.1615,-7.22337 -1.53934,1.96542 -1.5687,1.95677 -1.69791,-0.5 l -0.13148,-2.5 -0.80064,2.5 c -0.62361,1.94723 -0.86323,1.17335 -1.0837,-3.5 l -0.28306,-6 -0.63324,8 c -0.58685,7.41395 -0.64667,7.58136 -0.81662,2.28518 -0.1469,-4.57799 -0.58123,-5.92774 -2.18338,-6.78518 -1.89428,-1.01379 -2.00933,-0.73813 -2.17659,5.21482 l -0.17658,6.28518 -0.64683,-7 -0.64683,-7 -0.17658,5.69098 c -0.0971,3.13004 -0.52237,5.90469 -0.94499,6.16589 -0.42263,0.26119 -0.59664,-1.32627 -0.3867,-3.52768 0.43604,-4.57233 -1.4092,-7.62545 -2.25061,-3.72383 -0.28403,1.31705 -0.70674,3.29464 -0.93935,4.39464 -0.25932,1.22627 -0.53087,0.64597 -0.70194,-1.5 -0.23092,-2.89697 -0.39512,-2.55238 -0.953,2 l -0.67401,5.5 -0.17831,-7 c -0.1257,-4.9349 -0.46428,-6.55748 -1.14768,-5.5 -0.74558,1.15371 -0.97644,0.80742 -1,-1.5 -0.0237,-2.32312 -0.2528,-2.66156 -1.01531,-1.5 -0.87528,1.33333 -1.0941,1.33333 -1.96938,0 -0.73906,-1.12584 -1.01802,-0.50224 -1.11831,2.5 -0.12925,3.86891 -0.15865,3.90168 -0.897,1 -0.72397,-2.84515 -0.77475,-2.87096 -0.98377,-0.5 -0.20486,2.32364 -0.29395,2.27073 -1.26298,-0.75 -0.57341,-1.7875 -1.65247,-3.25 -2.39791,-3.25 -0.74544,0 -1.35534,-0.62686 -1.35534,-1.39301 0,-2.10067 -2.80078,-2.7766 -3.32135,-0.80156 -0.39483,1.49798 -0.4601,1.48471 -0.56265,-0.11445 -0.0638,-0.99496 -0.566,-1.5309 -1.116,-1.19098 -0.55,0.33992 -1.00689,-0.19602 -1.01531,-1.19098 -0.013,-1.53706 -0.16335,-1.58352 -1,-0.30902 -0.61757,0.94075 -1.26432,1.12717 -1.73469,0.5 -0.4125,-0.55 -2.1,-1.0702 -3.75,-1.15601 -5.81043,-0.30216 -8.65703,-0.78906 -9.13504,-1.56249 -0.42687,-0.69068 1.69104,-0.94994 9.88504,-1.21007 1.2375,-0.0393 2.5875,-0.52143 3,-1.07143 0.47037,-0.62717 1.11712,-0.44075 1.73469,0.5 0.83665,1.2745 0.98699,1.22804 1,-0.30902 0.008,-0.99496 0.43125,-1.55195 0.93963,-1.23775 0.50837,0.31419 1.13117,-0.22175 1.384,-1.19099 0.42205,-1.618 0.46917,-1.62157 0.57568,-0.0436 0.13965,2.06906 3.116,1.28045 3.116,-0.82561 0,-0.76615 0.47172,-1.39301 1.04827,-1.39301 0.57655,0 1.68394,-1.4625 2.46086,-3.25 1.34307,-3.09007 1.42033,-3.12698 1.57004,-0.75 0.1473,2.33869 0.20672,2.30643 0.92083,-0.5 0.73835,-2.90168 0.76775,-2.86891 0.897,1 0.10029,3.00224 0.37925,3.62584 1.11831,2.5 0.87528,-1.33333 1.0941,-1.33333 1.96938,0 0.79583,1.21232 0.98762,1.05716 1,-0.80902 0.009,-1.28185 0.46016,-2.03408 1.01531,-1.69098 0.62381,0.38553 1.06132,-1.94347 1.163,-6.19098 l 0.16299,-6.80904 0.67401,5.5 c 0.55788,4.55238 0.72208,4.89697 0.953,2 0.17107,-2.14597 0.44262,-2.72627 0.70194,-1.5 0.23261,1.1 0.65532,3.07759 0.93935,4.39464 0.84141,3.90162 2.68665,0.8485 2.25061,-3.72383 -0.20994,-2.20141 -0.0359,-3.78887 0.3867,-3.52768 0.42262,0.2612 0.84786,3.03585 0.94499,6.16589 l 0.17658,5.69098 0.64683,-7 0.64683,-7 0.17658,6.28518 c 0.16726,5.95295 0.28231,6.22861 2.17659,5.21482 1.60286,-0.85782 2.03577,-2.20516 2.18016,-6.78518 0.17772,-5.63751 0.18881,-5.61336 0.81984,1.78518 0.63126,7.40119 0.64337,7.42754 0.91952,2 0.22395,-4.40145 0.43976,-5.00066 1.08048,-3 l 0.80064,2.5 0.13148,-2.5 c 0.12921,-2.45677 0.15857,-2.46542 1.69791,-0.5 1.44653,1.8469 1.53544,1.29397 1.1615,-7.22337 -0.22272,-5.07285 -0.15442,-8.97375 0.15177,-8.66866 0.30618,0.30508 0.7817,5.67883 1.0567,11.94165 0.42766,9.73954 0.71474,11.25355 1.98428,10.46486 0.95314,-0.59213 1.44602,-2.38126 1.37736,-4.99975 -0.10638,-4.05695 -0.1,-4.06422 1.26572,-1.43188 0.75495,1.45517 1.37953,4.28183 1.38795,6.28146 0.0286,6.77946 1.94312,1.06522 2.13237,-6.36431 l 0.17831,-7 0.6281,5.5 c 0.52614,4.60716 0.71885,5.013 1.18721,2.5 0.4463,-2.39525 0.5892,-2.03059 0.7089,1.80902 0.1645,5.28061 2.1498,5.7103 2.1498,0.4653 0,-3.73617 0.9675,-3.15716 1.437,0.86004 0.1842,1.5761 0.4455,3.76564 0.5806,4.86564 0.1533,1.24811 0.5227,0.6842 0.9824,-1.5 0.6728,-3.19647 0.7481,-3.25846 0.8684,-0.71482 0.1164,2.46306 0.3629,2.66139 2.1316,1.71482 1.5963,-0.85431 2,-0.76049 2,0.46482 0,0.84435 0.45,1.53518 1,1.53518 0.55,0 1,-0.70156 1,-1.55902 0,-0.85746 0.45,-1.2809 1,-0.94098 0.55,0.33992 1,1.71648 1,3.05902 0,1.34254 0.45,2.44098 1,2.44098 0.55,0 1.0069,-0.5625 1.0153,-1.25 0.011,-0.89349 0.2674,-0.85193 0.8991,0.14572 0.4861,0.76764 1.5751,1.13042 2.4201,0.80617 0.8449,-0.32424 1.6779,-0.16907 1.8509,0.34484 0.173,0.5139 2.6771,1.49511 5.5646,2.18047 2.8875,0.68536 5.25,1.64209 5.25,2.12608 0,0.48399 -0.8995,0.64474 -1.999,0.35723 -1.0995,-0.28751 -2.2584,-0.10306 -2.5754,0.40989 -0.317,0.51295 -1.105,0.87189 -1.751,0.79763 -2.096,-0.24091 -5.6671,1.28507 -5.1114,2.18421 0.2974,0.48117 -0.2031,0.58943 -1.1122,0.24059 -0.9364,-0.35934 -2.0359,-0.0293 -2.5366,0.76145 -0.6317,0.99765 -0.8881,1.03921 -0.8991,0.14572 -0.01,-0.6875 -0.4653,-1.25 -1.0153,-1.25 -0.55,0 -1,1.09844 -1,2.44098 0,3.26163 -1.5962,4.09849 -2.4753,1.29777 l -0.7028,-2.23875 -0.6838,2.40574 c -0.6478,2.27906 -0.7747,2.31479 -2.4109,0.67857 -1.6363,-1.63622 -1.7341,-1.55228 -1.8588,1.59426 l -0.1317,3.32143 -0.6475,-3.5 -0.6476,-3.5 -0.7312,3.42693 c -0.6941,3.25334 -0.805,3.32932 -2.189,1.5 -1.3442,-1.77676 -1.4719,-1.53727 -1.6394,3.07307 -0.1428,3.93166 -0.3011,4.35899 -0.7407,2 -0.46836,-2.513 -0.66107,-2.10716 -1.18721,2.5 l -0.6281,5.5 -0.17831,-7 c -0.19712,-7.73873 -2.08213,-12.96477 -2.16417,-6 -0.0259,2.2 -0.61781,4.75043 -1.31531,5.66761 -1.10067,1.44733 -1.2682,1.20725 -1.2682,-1.81737 0,-1.96348 -0.63306,-3.87832 -1.45,-4.38591 -1.22458,-0.76085 -1.52773,0.86931 -1.95,10.48605 -0.275,6.26282 -0.75052,11.63657 -1.0567,11.94165 -0.30619,0.30509 -0.37449,-3.59581 -0.15177,-8.66866 z M 961.19495,623.5 c 0.02,-1.65 0.2445,-2.20394 0.498,-1.23097 0.2535,0.97297 0.2369,2.32297 -0.037,3 -0.2739,0.67703 -0.4814,-0.11903 -0.461,-1.76903 z m -180.00005,-2 c 0.0204,-1.65 0.2445,-2.20394 0.49804,-1.23097 0.25354,0.97297 0.23687,2.32297 -0.0371,3 -0.27393,0.67703 -0.48137,-0.11903 -0.46099,-1.76903 z m 165.96294,0.5 c 0,-1.375 0.22698,-1.9375 0.50439,-1.25 0.27741,0.6875 0.27741,1.8125 0,2.5 -0.27741,0.6875 -0.50439,0.125 -0.50439,-1.25 z M 761.0789,615.41667 c 0.048,-1.16495 0.28494,-1.4019 0.60416,-0.60417 0.28887,0.72187 0.25335,1.58438 -0.0789,1.91667 -0.33229,0.33229 -0.56864,-0.25834 -0.52522,-1.3125 z m 203.00005,0 c 0.048,-1.16495 0.2849,-1.4019 0.6041,-0.60417 0.2889,0.72187 0.2534,1.58438 -0.079,1.91667 -0.3323,0.33229 -0.5686,-0.25834 -0.5252,-1.3125 z m -330.00005,-7 c 0.048,-1.16495 0.28494,-1.4019 0.60416,-0.60417 0.28887,0.72187 0.25335,1.58438 -0.0789,1.91667 -0.3323,0.33229 -0.56864,-0.25834 -0.52522,-1.3125 z m 361.36725,-7.5038 c -0.3696,-0.59793 -0.1711,-1.58793 0.4409,-2.2 0.8172,-0.81716 1.1129,-0.52829 1.1129,1.08713 0,2.41451 -0.5195,2.78655 -1.5538,1.11287 z M 510.99995,600 c 0,-0.55 0.45,-1 1,-1 0.55,0 1,0.45 1,1 0,0.55 -0.45,1 -1,1 -0.55,0 -1,-0.45 -1,-1 z m 19,0 c 0,-0.55 0.47656,-1 1.05902,-1 0.58246,0 0.7809,0.45 0.44098,1 -0.33992,0.55 -0.81648,1 -1.05902,1 -0.24254,0 -0.44098,-0.45 -0.44098,-1 z m 3,0 c 0,-0.55 0.45,-1 1,-1 0.55,0 1,0.45 1,1 0,0.55 -0.45,1 -1,1 -0.55,0 -1,-0.45 -1,-1 z m 40.5,0 c -0.33992,-0.55 -0.14148,-1 0.44098,-1 0.58246,0 1.05902,0.45 1.05902,1 0,0.55 -0.19844,1 -0.44098,1 -0.24254,0 -0.7191,-0.45 -1.05902,-1 z M 1001,599.9379 c 0,-0.51582 0.9,-0.93785 2,-0.93785 1.1,0 2,0.35424 2,0.7872 0,0.43295 -0.9,0.85499 -2,0.93785 -1.1,0.0829 -2,-0.27138 -2,-0.7872 z M 1343,600 c 0,-0.55 0.675,-1 1.5,-1 0.825,0 1.5,0.45 1.5,1 0,0.55 -0.675,1 -1.5,1 -0.825,0 -1.5,-0.45 -1.5,-1 z m 5,0 c 0,-0.55 0.9,-1 2,-1 1.1,0 2,0.45 2,1 0,0.55 -0.9,1 -2,1 -1.1,0 -2,-0.45 -2,-1 z m 5,0 c 0,-0.55 0.7016,-1 1.559,-1 0.8575,0 1.2809,0.45 0.941,1 -0.3399,0.55 -1.0415,1 -1.559,1 -0.5176,0 -0.941,-0.45 -0.941,-1 z m 4,-0.16667 c 0,-0.45833 0.675,-0.83333 1.5,-0.83333 0.825,0 1.5,0.375 1.5,0.83333 0,0.45834 -0.675,0.83334 -1.5,0.83334 -0.825,0 -1.5,-0.375 -1.5,-0.83334 z M 1373.5,600 c -0.3399,-0.55 -0.1415,-1 0.441,-1 0.5824,0 1.059,0.45 1.059,1 0,0.55 -0.1984,1 -0.441,1 -0.2425,0 -0.7191,-0.45 -1.059,-1 z m 16.5,0 c 0,-0.55 0.45,-1 1,-1 0.55,0 1,0.45 1,1 0,0.55 -0.45,1 -1,1 -0.55,0 -1,-0.45 -1,-1 z m 17.5,0 c -0.3399,-0.55 -0.1415,-1 0.441,-1 0.5824,0 1.059,0.45 1.059,1 0,0.55 -0.1984,1 -0.441,1 -0.2425,0 -0.7191,-0.45 -1.059,-1 z m -773.4211,-8.58333 c 0.048,-1.16495 0.28494,-1.4019 0.60416,-0.60417 0.28887,0.72187 0.25335,1.58437 -0.0789,1.91667 -0.3323,0.33229 -0.56864,-0.25834 -0.52522,-1.3125 z m 127,-7 c 0.048,-1.16495 0.28494,-1.4019 0.60416,-0.60417 0.28887,0.72187 0.25335,1.58437 -0.0789,1.91667 -0.33229,0.33229 -0.56864,-0.25834 -0.52522,-1.3125 z M 781.1949,578.5 c 0.0204,-1.65 0.2445,-2.20394 0.49804,-1.23097 0.25354,0.97297 0.23687,2.32297 -0.0371,3 -0.27393,0.67703 -0.48137,-0.11903 -0.46099,-1.76903 z m 165.884,-1.08333 c 0.048,-1.16495 0.28494,-1.4019 0.60416,-0.60417 0.28887,0.72187 0.25335,1.58437 -0.0789,1.91667 -0.33229,0.33229 -0.56864,-0.25834 -0.52522,-1.3125 z M 961.23195,576 c 0,-1.925 0.2058,-2.7125 0.4573,-1.75 0.2516,0.9625 0.2516,2.5375 0,3.5 -0.2515,0.9625 -0.4573,0.175 -0.4573,-1.75 z M 679.29961,548 c 0,-3.025 0.18747,-4.2625 0.41659,-2.75 0.22913,1.5125 0.22913,3.9875 0,5.5 -0.22912,1.5125 -0.41659,0.275 -0.41659,-2.75 z m 2.85823,2 c 0,-1.375 0.22698,-1.9375 0.50439,-1.25 0.27741,0.6875 0.27741,1.8125 0,2.5 -0.27741,0.6875 -0.50439,0.125 -0.50439,-1.25 z M 1030.195,526.5 c 0.02,-1.65 0.2445,-2.20394 0.498,-1.23097 0.2535,0.97297 0.2369,2.32297 -0.037,3 -0.2739,0.67703 -0.4814,-0.11903 -0.461,-1.76903 z m 67.2397,-55.5 c 0,-14.025 0.1406,-19.7625 0.3125,-12.75 0.1719,7.0125 0.1719,18.4875 0,25.5 -0.1719,7.0125 -0.3125,1.275 -0.3125,-12.75 z m 216.6443,20.41667 c 0.048,-1.16495 0.2849,-1.4019 0.6041,-0.60417 0.2889,0.72187 0.2534,1.58437 -0.079,1.91667 -0.3323,0.33229 -0.5686,-0.25834 -0.5252,-1.3125 z M 1308.3818,477.5 c 0,-6.6 0.1638,-9.16987 0.3596,-5.71081 0.1958,3.45905 0.1942,8.85905 0,12 -0.1978,3.14094 -0.358,0.31081 -0.356,-6.28919 z m -169.9251,-36 c -3e-4,-22.55 0.1311,-31.91764 0.2919,-20.81697 0.1608,11.10067 0.161,29.55067 5e-4,41 -0.1606,11.44934 -0.2922,2.36697 -0.2924,-20.18303 z m -341.04757,19 c -10e-4,-9.35 0.14916,-13.30959 0.33401,-8.7991 0.18486,4.51049 0.1858,12.16049 0.002,17 -0.1837,4.8395 -0.33495,1.1491 -0.3361,-8.2009 z m 243.98257,2.5 c 0,-7.425 0.1574,-10.4625 0.3499,-6.75 0.1924,3.7125 0.1924,9.7875 0,13.5 -0.1925,3.7125 -0.3499,0.675 -0.3499,-6.75 z m -6.1967,2.5 c 0.02,-1.65 0.2445,-2.20394 0.498,-1.23097 0.2535,0.97297 0.2369,2.32297 -0.037,3 -0.2739,0.67703 -0.4814,-0.11903 -0.461,-1.76903 z M 826.15784,459 c 0,-1.375 0.22698,-1.9375 0.50439,-1.25 0.27741,0.6875 0.27741,1.8125 0,2.5 -0.27741,0.6875 -0.50439,0.125 -0.50439,-1.25 z m 290.28086,-30 c 0,-15.125 0.139,-21.3125 0.3089,-13.75 0.1699,7.5625 0.1699,19.9375 0,27.5 -0.1699,7.5625 -0.3089,1.375 -0.3089,-13.75 z m -296.02367,7 c 0,-10.175 0.1485,-14.3375 0.32999,-9.25 0.18149,5.0875 0.18149,13.4125 0,18.5 -0.18149,5.0875 -0.32999,0.925 -0.32999,-9.25 z m 444.92117,10 c 0,-4.125 0.1765,-5.8125 0.3923,-3.75 0.2157,2.0625 0.2157,5.4375 0,7.5 -0.2158,2.0625 -0.3923,0.375 -0.3923,-3.75 z m -144.1412,3.5 c 0.02,-1.65 0.2445,-2.20394 0.498,-1.23097 0.2535,0.97297 0.2369,2.32297 -0.037,3 -0.2739,0.67703 -0.4814,-0.11903 -0.461,-1.76903 z m 98.1331,-4 c 0,-3.85 0.1852,-5.30246 0.4017,-3.2277 0.2165,2.07477 0.2128,5.22477 -0.01,7 -0.221,1.77524 -0.3981,0.0777 -0.3937,-3.7723 z M 869.32002,444 c 0,-3.575 0.1815,-5.0375 0.40333,-3.25 0.22182,1.7875 0.22182,4.7125 0,6.5 -0.22183,1.7875 -0.40333,0.325 -0.40333,-3.25 z m 306.10748,-16 c 0,-12.375 0.1436,-17.4375 0.319,-11.25 0.1755,6.1875 0.1755,16.3125 0,22.5 -0.1754,6.1875 -0.319,1.125 -0.319,-11.25 z m -74.6382,6.25 c -0.2876,-8.1125 -0.2037,-17.9 0.1866,-21.75 0.4991,-4.92511 0.7561,-0.55302 0.8668,14.75 0.087,11.9625 0,21.75 -0.1866,21.75 -0.1891,0 -0.5792,-6.6375 -0.8668,-14.75 z M 813.1949,445.5 c 0.0204,-1.65 0.2445,-2.20394 0.49804,-1.23097 0.25354,0.97297 0.23687,2.32297 -0.0371,3 -0.27388,0.67703 -0.48132,-0.11903 -0.46094,-1.76903 z m 301.2512,-29 c 4e-4,-17.6 0.1365,-24.65916 0.3024,-15.68702 0.1659,8.97213 0.1656,23.37213 -7e-4,32 -0.1663,8.62786 -0.3021,1.28702 -0.3017,-16.31298 z m 55.98,10 c 8e-4,-12.1 0.1452,-16.91256 0.3209,-10.69458 0.1758,6.21799 0.1751,16.11799 -10e-4,22 -0.1768,5.88202 -0.3206,0.79458 -0.3199,-11.30542 z m 117.0091,19.19178 c -0.2761,-0.71952 -0.372,-6.68201 -0.2131,-13.25 l 0.2888,-11.94178 0.4946,13.25175 c 0.272,7.28846 0.3679,13.25096 0.2131,13.25 -0.1547,-9.6e-4 -0.5073,-0.59045 -0.7834,-1.30997 z M 815.23195,439 c 0,-1.925 0.2058,-2.7125 0.45733,-1.75 0.25152,0.9625 0.25152,2.5375 0,3.5 -0.25153,0.9625 -0.45733,0.175 -0.45733,-1.75 z m 400.19555,-19 c 0,-12.375 0.1436,-17.4375 0.319,-11.25 0.1755,6.1875 0.1755,16.3125 0,22.5 -0.1754,6.1875 -0.319,1.125 -0.319,-11.25 z m 8.9724,7.5 c 0,-8.25 0.1563,-11.49193 0.3442,-7.20429 0.1879,4.28763 0.1868,11.03763 0,15 -0.1888,3.96236 -0.3426,0.45429 -0.3412,-7.79571 z m -387.97116,-9 c 7e-4,-12.65 0.14401,-17.68711 0.31847,-11.19358 0.17445,6.49353 0.17388,16.84353 -10e-4,23 -0.17544,6.15647 -0.31817,0.84358 -0.31747,-11.80642 z m 242.02976,-21 c 2e-4,-23.65 0.131,-33.18206 0.2906,-21.18235 0.1597,11.99971 0.1595,31.34971 -4e-4,43 -0.1598,11.65029 -0.2905,1.83235 -0.2902,-21.81765 z M 795.32002,433 c 0,-3.575 0.1815,-5.0375 0.40333,-3.25 0.22182,1.7875 0.22182,4.7125 0,6.5 -0.22183,1.7875 -0.40333,0.325 -0.40333,-3.25 z m 324.10878,-16.5 c 7e-4,-12.65 0.144,-17.68711 0.3185,-11.19358 0.1744,6.49353 0.1738,16.84353 -10e-4,23 -0.1755,6.15647 -0.3182,0.84358 -0.3175,-11.80642 z m 106.9844,5 c 10e-4,-9.9 0.1507,-13.81474 0.3325,-8.69942 0.1819,5.11532 0.181,13.21532 0,18 -0.1828,4.78468 -0.3316,0.59942 -0.3305,-9.30058 z M 799.23195,434 c 0,-1.925 0.2058,-2.7125 0.45733,-1.75 0.25152,0.9625 0.25152,2.5375 0,3.5 -0.25153,0.9625 -0.45733,0.175 -0.45733,-1.75 z m 57,0 c 0,-1.925 0.2058,-2.7125 0.45733,-1.75 0.25152,0.9625 0.25152,2.5375 0,3.5 -0.25153,0.9625 -0.45733,0.175 -0.45733,-1.75 z m 2.06766,-2 c 0,-3.025 0.18747,-4.2625 0.41659,-2.75 0.22913,1.5125 0.22913,3.9875 0,5.5 -0.22912,1.5125 -0.41659,0.275 -0.41659,-2.75 z m 226.89539,0.5 c 0.02,-1.65 0.2445,-2.20394 0.498,-1.23097 0.2535,0.97297 0.2369,2.32297 -0.037,3 -0.2739,0.67703 -0.4813,-0.11903 -0.4609,-1.76903 z M 1267.4186,412 c 0,-10.725 0.1471,-15.1125 0.3269,-9.75 0.1798,5.3625 0.1798,14.1375 0,19.5 -0.1798,5.3625 -0.3269,0.975 -0.3269,-9.75 z m -211.971,-15.5 c -4e-4,-18.15 0.1347,-25.71608 0.3003,-16.81351 0.1656,8.90257 0.1659,23.75257 7e-4,33 -0.1652,9.24743 -0.3007,1.96351 -0.301,-16.18649 z m 69.4167,25.75 c -0.2069,-3.1625 -0.1121,-9.575 0.2106,-14.25 0.5226,-7.57104 0.6052,-6.94263 0.7559,5.75 0.1734,14.60577 -0.2967,18.74023 -0.9665,8.5 z M 1076.3201,419 c 0,-3.575 0.1815,-5.0375 0.4033,-3.25 0.2218,1.7875 0.2218,4.7125 0,6.5 -0.2218,1.7875 -0.4033,0.325 -0.4033,-3.25 z m 178.095,-16 c 0,-10.175 0.1485,-14.3375 0.33,-9.25 0.1815,5.0875 0.1815,13.4125 0,18.5 -0.1815,5.0875 -0.33,0.925 -0.33,-9.25 z M 1067.37,399 c 0,-5.775 0.1652,-8.1375 0.3672,-5.25 0.202,2.8875 0.202,7.6125 0,10.5 -0.202,2.8875 -0.3672,0.525 -0.3672,-5.25 z m -5.0499,-4 c 0,-3.575 0.1815,-5.0375 0.4033,-3.25 0.2218,1.7875 0.2218,4.7125 0,6.5 -0.2218,1.7875 -0.4033,0.325 -0.4033,-3.25 z m -14.0881,-6 c 0,-1.925 0.2058,-2.7125 0.4573,-1.75 0.2516,0.9625 0.2516,2.5375 0,3.5 -0.2515,0.9625 -0.4573,0.175 -0.4573,-1.75 z m 208.1654,-16 c 0,-7.975 0.1553,-11.2375 0.3451,-7.25 0.1898,3.9875 0.1898,10.5125 0,14.5 -0.1898,3.9875 -0.3451,0.725 -0.3451,-7.25 z m -188.2395,4 c 0,-1.375 0.227,-1.9375 0.5044,-1.25 0.2774,0.6875 0.2774,1.8125 0,2.5 -0.2774,0.6875 -0.5044,0.125 -0.5044,-1.25 z"
       id="path4632"
       inkscape:connector-curvature="0"
       transform="matrix(0.48523235,0,0,0.92723348,470.17695,43.659912)" /></g></svg>